<svg xmlns="http://www.w3.org/2000/svg" version="1.1" xmlns:xlink="http://www.w3.org/1999/xlink" xmlns:svgjs="http://svgjs.dev/svgjs" width="1440" height="560" preserveAspectRatio="none" viewBox="0 0 1440 560"><g mask="url(&quot;#SvgjsMask1010&quot;)" fill="none"><path d="M-43.92 384.2L-43.92 384.2" stroke="rgba(147, 139, 142, 0)" stroke-width="1.5"></path><path d="M-43.92 384.2L69.92 372.03" stroke="rgba(147, 139, 142, 0)" stroke-width="1.5"></path><path d="M-43.92 384.2L-40.95 507.22" stroke="rgba(147, 139, 142, 0)" stroke-width="1.5"></path><path d="M-40.95 507.22L-40.95 507.22" stroke="rgba(147, 139, 142, 0)" stroke-width="1.5"></path><path d="M-40.95 507.22L44.95 522.33" stroke="rgba(147, 139, 142, 0)" stroke-width="1.5"></path><path d="M-40.95 507.22L-95.88 654.84" stroke="rgba(147, 139, 142, 0)" stroke-width="1.5"></path><path d="M-40.95 507.22L69.92 372.03" stroke="rgba(147, 139, 142, 0)" stroke-width="1.5"></path><path d="M-95.88 654.84L-95.88 654.84" stroke="rgba(147, 139, 142, 0)" stroke-width="1.5"></path><path d="M-95.88 654.84L76.78 704.38" stroke="rgba(147, 139, 142, 0)" stroke-width="1.5"></path><path d="M-95.88 654.84L44.95 522.33" stroke="rgba(147, 139, 142, 0)" stroke-width="1.5"></path><path d="M-95.88 654.84L-43.92 384.2" stroke="rgba(147, 139, 142, 0)" stroke-width="1.5"></path><path d="M-95.88 654.84L188.05 645.93" stroke="rgba(147, 139, 142, 0)" stroke-width="1.5"></path><path d="M69.92 372.03L69.92 372.03" stroke="rgba(147, 139, 142, 0)" stroke-width="1.5"></path><path d="M69.92 372.03L195.48 379.81" stroke="rgba(147, 139, 142, 0)" stroke-width="1.5"></path><path d="M69.92 372.03L44.95 522.33" stroke="rgba(147, 139, 142, 0)" stroke-width="1.5"></path><path d="M44.95 522.33L44.95 522.33" stroke="rgba(147, 139, 142, 0)" stroke-width="1.5"></path><path d="M44.95 522.33L-43.92 384.2" stroke="rgba(147, 139, 142, 0)" stroke-width="1.5"></path><path d="M44.95 522.33L76.78 704.38" stroke="rgba(147, 139, 142, 0)" stroke-width="1.5"></path><path d="M44.95 522.33L188.05 645.93" stroke="rgba(147, 139, 142, 0)" stroke-width="1.5"></path><path d="M44.95 522.33L236.13 538.23" stroke="rgba(147, 139, 142, 0)" stroke-width="1.5"></path><path d="M76.78 704.38L76.78 704.38" stroke="rgba(147, 139, 142, 0)" stroke-width="1.5"></path><path d="M76.78 704.38L188.05 645.93" stroke="rgba(147, 139, 142, 0)" stroke-width="1.5"></path><path d="M195.48 379.81L195.48 379.81" stroke="rgba(147, 139, 142, 0)" stroke-width="1.5"></path><path d="M195.48 379.81L352.44 343.95" stroke="rgba(147, 139, 142, 0)" stroke-width="1.5"></path><path d="M195.48 379.81L236.13 538.23" stroke="rgba(147, 139, 142, 0)" stroke-width="1.5"></path><path d="M195.48 379.81L44.95 522.33" stroke="rgba(147, 139, 142, 0)" stroke-width="1.5"></path><path d="M195.48 379.81L344.64 547.97" stroke="rgba(147, 139, 142, 0)" stroke-width="1.5"></path><path d="M236.13 538.23L236.13 538.23" stroke="rgba(147, 139, 142, 0)" stroke-width="1.5"></path><path d="M236.13 538.23L344.64 547.97" stroke="rgba(147, 139, 142, 0)" stroke-width="1.5"></path><path d="M236.13 538.23L188.05 645.93" stroke="rgba(147, 139, 142, 0)" stroke-width="1.5"></path><path d="M188.05 645.93L188.05 645.93" stroke="rgba(147, 139, 142, 0)" stroke-width="1.5"></path><path d="M188.05 645.93L344.64 547.97" stroke="rgba(147, 139, 142, 0)" stroke-width="1.5"></path><path d="M188.05 645.93L390.04 665.88" stroke="rgba(147, 139, 142, 0)" stroke-width="1.5"></path><path d="M352.44 343.95L352.44 343.95" stroke="rgba(147, 139, 142, 0)" stroke-width="1.5"></path><path d="M352.44 343.95L491.81 406.55" stroke="rgba(147, 139, 142, 0)" stroke-width="1.5"></path><path d="M352.44 343.95L344.64 547.97" stroke="rgba(147, 139, 142, 0)" stroke-width="1.5"></path><path d="M352.44 343.95L236.13 538.23" stroke="rgba(147, 139, 142, 0)" stroke-width="1.5"></path><path d="M352.44 343.95L518.33 529.78" stroke="rgba(147, 139, 142, 0)" stroke-width="1.5"></path><path d="M344.64 547.97L344.64 547.97" stroke="rgba(147, 139, 142, 0)" stroke-width="1.5"></path><path d="M344.64 547.97L390.04 665.88" stroke="rgba(147, 139, 142, 0)" stroke-width="1.5"></path><path d="M344.64 547.97L518.33 529.78" stroke="rgba(147, 139, 142, 0)" stroke-width="1.5"></path><path d="M390.04 665.88L390.04 665.88" stroke="rgba(147, 139, 142, 0)" stroke-width="1.5"></path><path d="M390.04 665.88L512.05 658.94" stroke="rgba(147, 139, 142, 0)" stroke-width="1.5"></path><path d="M390.04 665.88L518.33 529.78" stroke="rgba(147, 139, 142, 0)" stroke-width="1.5"></path><path d="M390.04 665.88L236.13 538.23" stroke="rgba(147, 139, 142, 0)" stroke-width="1.5"></path><path d="M491.81 406.55L491.81 406.55" stroke="rgba(147, 139, 142, 0)" stroke-width="1.5"></path><path d="M491.81 406.55L518.33 529.78" stroke="rgba(147, 139, 142, 0)" stroke-width="1.5"></path><path d="M491.81 406.55L344.64 547.97" stroke="rgba(147, 139, 142, 0)" stroke-width="1.5"></path><path d="M518.33 529.78L518.33 529.78" stroke="rgba(147, 139, 142, 0)" stroke-width="1.5"></path><path d="M518.33 529.78L512.05 658.94" stroke="rgba(147, 139, 142, 0)" stroke-width="1.5"></path><path d="M518.33 529.78L689.24 522.33" stroke="rgba(147, 139, 142, 0)" stroke-width="1.5"></path><path d="M518.33 529.78L653.26 650.61" stroke="rgba(147, 139, 142, 0)" stroke-width="1.5"></path><path d="M512.05 658.94L512.05 658.94" stroke="rgba(147, 139, 142, 0)" stroke-width="1.5"></path><path d="M512.05 658.94L653.26 650.61" stroke="rgba(147, 139, 142, 0)" stroke-width="1.5"></path><path d="M512.05 658.94L344.64 547.97" stroke="rgba(147, 139, 142, 0)" stroke-width="1.5"></path><path d="M512.05 658.94L689.24 522.33" stroke="rgba(147, 139, 142, 0)" stroke-width="1.5"></path><path d="M512.05 658.94L491.81 406.55" stroke="rgba(147, 139, 142, 0)" stroke-width="1.5"></path><path d="M710.34 203.39L710.34 203.39" stroke="rgba(147, 139, 142, 0)" stroke-width="1.5"></path><path d="M710.34 203.39L808.29 204.15" stroke="rgba(147, 139, 142, 0)" stroke-width="1.5"></path><path d="M710.34 203.39L699.65 409.08" stroke="rgba(147, 139, 142, 0)" stroke-width="1.5"></path><path d="M710.34 203.39L827.5 399.87" stroke="rgba(147, 139, 142, 0)" stroke-width="1.5"></path><path d="M710.34 203.39L945.94 220.96" stroke="rgba(147, 139, 142, 0)" stroke-width="1.5"></path><path d="M710.34 203.39L961.35 84.29" stroke="rgba(147, 139, 142, 0)" stroke-width="1.5"></path><path d="M710.34 203.39L491.81 406.55" stroke="rgba(147, 139, 142, 0)" stroke-width="1.5"></path><path d="M699.65 409.08L699.65 409.08" stroke="rgba(147, 139, 142, 0)" stroke-width="1.5"></path><path d="M699.65 409.08L689.24 522.33" stroke="rgba(147, 139, 142, 0)" stroke-width="1.5"></path><path d="M699.65 409.08L827.5 399.87" stroke="rgba(147, 139, 142, 0)" stroke-width="1.5"></path><path d="M699.65 409.08L835.25 517.54" stroke="rgba(147, 139, 142, 0)" stroke-width="1.5"></path><path d="M699.65 409.08L491.81 406.55" stroke="rgba(147, 139, 142, 0)" stroke-width="1.5"></path><path d="M689.24 522.33L689.24 522.33" stroke="rgba(147, 139, 142, 0)" stroke-width="1.5"></path><path d="M689.24 522.33L653.26 650.61" stroke="rgba(147, 139, 142, 0)" stroke-width="1.5"></path><path d="M689.24 522.33L835.25 517.54" stroke="rgba(147, 139, 142, 0)" stroke-width="1.5"></path><path d="M689.24 522.33L809.5 639.07" stroke="rgba(147, 139, 142, 0)" stroke-width="1.5"></path><path d="M653.26 650.61L653.26 650.61" stroke="rgba(147, 139, 142, 0)" stroke-width="1.5"></path><path d="M653.26 650.61L809.5 639.07" stroke="rgba(147, 139, 142, 0)" stroke-width="1.5"></path><path d="M808.29 204.15L808.29 204.15" stroke="rgba(147, 139, 142, 0)" stroke-width="1.5"></path><path d="M808.29 204.15L945.94 220.96" stroke="rgba(147, 139, 142, 0)" stroke-width="1.5"></path><path d="M827.5 399.87L827.5 399.87" stroke="rgba(147, 139, 142, 0)" stroke-width="1.5"></path><path d="M827.5 399.87L835.25 517.54" stroke="rgba(147, 139, 142, 0)" stroke-width="1.5"></path><path d="M827.5 399.87L993.73 358.55" stroke="rgba(147, 139, 142, 0)" stroke-width="1.5"></path><path d="M827.5 399.87L963.3 512.59" stroke="rgba(147, 139, 142, 0)" stroke-width="1.5"></path><path d="M827.5 399.87L689.24 522.33" stroke="rgba(147, 139, 142, 0)" stroke-width="1.5"></path><path d="M827.5 399.87L808.29 204.15" stroke="rgba(147, 139, 142, 0)" stroke-width="1.5"></path><path d="M835.25 517.54L835.25 517.54" stroke="rgba(147, 139, 142, 0)" stroke-width="1.5"></path><path d="M809.5 639.07L809.5 639.07" stroke="rgba(147, 139, 142, 0)" stroke-width="1.5"></path><path d="M809.5 639.07L835.25 517.54" stroke="rgba(147, 139, 142, 0)" stroke-width="1.5"></path><path d="M809.5 639.07L948.38 646.88" stroke="rgba(147, 139, 142, 0)" stroke-width="1.5"></path><path d="M980.44 -106.78L980.44 -106.78" stroke="rgba(147, 139, 142, 0)" stroke-width="1.5"></path><path d="M980.44 -106.78L1104.62 -68.78" stroke="rgba(147, 139, 142, 0)" stroke-width="1.5"></path><path d="M980.44 -106.78L961.35 84.29" stroke="rgba(147, 139, 142, 0)" stroke-width="1.5"></path><path d="M961.35 84.29L961.35 84.29" stroke="rgba(147, 139, 142, 0)" stroke-width="1.5"></path><path d="M961.35 84.29L1090.05 52.35" stroke="rgba(147, 139, 142, 0)" stroke-width="1.5"></path><path d="M961.35 84.29L945.94 220.96" stroke="rgba(147, 139, 142, 0)" stroke-width="1.5"></path><path d="M945.94 220.96L945.94 220.96" stroke="rgba(147, 139, 142, 0)" stroke-width="1.5"></path><path d="M945.94 220.96L993.73 358.55" stroke="rgba(147, 139, 142, 0)" stroke-width="1.5"></path><path d="M993.73 358.55L993.73 358.55" stroke="rgba(147, 139, 142, 0)" stroke-width="1.5"></path><path d="M993.73 358.55L1118.3 389.38" stroke="rgba(147, 139, 142, 0)" stroke-width="1.5"></path><path d="M993.73 358.55L963.3 512.59" stroke="rgba(147, 139, 142, 0)" stroke-width="1.5"></path><path d="M993.73 358.55L1145.99 242.07" stroke="rgba(147, 139, 142, 0)" stroke-width="1.5"></path><path d="M963.3 512.59L963.3 512.59" stroke="rgba(147, 139, 142, 0)" stroke-width="1.5"></path><path d="M963.3 512.59L835.25 517.54" stroke="rgba(147, 139, 142, 0)" stroke-width="1.5"></path><path d="M963.3 512.59L948.38 646.88" stroke="rgba(147, 139, 142, 0)" stroke-width="1.5"></path><path d="M948.38 646.88L948.38 646.88" stroke="rgba(147, 139, 142, 0)" stroke-width="1.5"></path><path d="M948.38 646.88L835.25 517.54" stroke="rgba(147, 139, 142, 0)" stroke-width="1.5"></path><path d="M948.38 646.88L1112.53 541.91" stroke="rgba(147, 139, 142, 0)" stroke-width="1.5"></path><path d="M948.38 646.88L1154.16 673.36" stroke="rgba(147, 139, 142, 0)" stroke-width="1.5"></path><path d="M948.38 646.88L827.5 399.87" stroke="rgba(147, 139, 142, 0)" stroke-width="1.5"></path><path d="M1104.62 -68.78L1104.62 -68.78" stroke="rgba(147, 139, 142, 0)" stroke-width="1.5"></path><path d="M1104.62 -68.78L1090.05 52.35" stroke="rgba(147, 139, 142, 0)" stroke-width="1.5"></path><path d="M1104.62 -68.78L1283.68 -80.69" stroke="rgba(147, 139, 142, 0)" stroke-width="1.5"></path><path d="M1104.62 -68.78L961.35 84.29" stroke="rgba(147, 139, 142, 0)" stroke-width="1.5"></path><path d="M1104.62 -68.78L1307.21 45.82" stroke="rgba(147, 139, 142, 0)" stroke-width="1.5"></path><path d="M1090.05 52.35L1090.05 52.35" stroke="rgba(147, 139, 142, 0)" stroke-width="1.5"></path><path d="M1090.05 52.35L980.44 -106.78" stroke="rgba(147, 139, 142, 0)" stroke-width="1.5"></path><path d="M1090.05 52.35L1145.99 242.07" stroke="rgba(147, 139, 142, 0)" stroke-width="1.5"></path><path d="M1090.05 52.35L1307.21 45.82" stroke="rgba(147, 139, 142, 0)" stroke-width="1.5"></path><path d="M1145.99 242.07L1145.99 242.07" stroke="rgba(147, 139, 142, 0)" stroke-width="1.5"></path><path d="M1145.99 242.07L1291.45 218.79" stroke="rgba(147, 139, 142, 0)" stroke-width="1.5"></path><path d="M1145.99 242.07L1118.3 389.38" stroke="rgba(147, 139, 142, 0)" stroke-width="1.5"></path><path d="M1118.3 389.38L1118.3 389.38" stroke="rgba(147, 139, 142, 0)" stroke-width="1.5"></path><path d="M1118.3 389.38L1112.53 541.91" stroke="rgba(147, 139, 142, 0)" stroke-width="1.5"></path><path d="M1118.3 389.38L1267.86 511.43" stroke="rgba(147, 139, 142, 0)" stroke-width="1.5"></path><path d="M1118.3 389.38L1311.11 373.04" stroke="rgba(147, 139, 142, 0)" stroke-width="1.5"></path><path d="M1118.3 389.38L963.3 512.59" stroke="rgba(147, 139, 142, 0)" stroke-width="1.5"></path><path d="M1112.53 541.91L1112.53 541.91" stroke="rgba(147, 139, 142, 0)" stroke-width="1.5"></path><path d="M1112.53 541.91L1154.16 673.36" stroke="rgba(147, 139, 142, 0)" stroke-width="1.5"></path><path d="M1112.53 541.91L963.3 512.59" stroke="rgba(147, 139, 142, 0)" stroke-width="1.5"></path><path d="M1112.53 541.91L1267.86 511.43" stroke="rgba(147, 139, 142, 0)" stroke-width="1.5"></path><path d="M1154.16 673.36L1154.16 673.36" stroke="rgba(147, 139, 142, 0)" stroke-width="1.5"></path><path d="M1154.16 673.36L1266.06 701.07" stroke="rgba(147, 139, 142, 0)" stroke-width="1.5"></path><path d="M1154.16 673.36L1267.86 511.43" stroke="rgba(147, 139, 142, 0)" stroke-width="1.5"></path><path d="M1283.68 -80.69L1283.68 -80.69" stroke="rgba(147, 139, 142, 0)" stroke-width="1.5"></path><path d="M1283.68 -80.69L1405.22 -48.58" stroke="rgba(147, 139, 142, 0)" stroke-width="1.5"></path><path d="M1307.21 45.82L1307.21 45.82" stroke="rgba(147, 139, 142, 0)" stroke-width="1.5"></path><path d="M1307.21 45.82L1283.68 -80.69" stroke="rgba(147, 139, 142, 0)" stroke-width="1.5"></path><path d="M1307.21 45.82L1405.22 -48.58" stroke="rgba(147, 139, 142, 0)" stroke-width="1.5"></path><path d="M1307.21 45.82L1460.85 96.73" stroke="rgba(147, 139, 142, 0)" stroke-width="1.5"></path><path d="M1307.21 45.82L1291.45 218.79" stroke="rgba(147, 139, 142, 0)" stroke-width="1.5"></path><path d="M1291.45 218.79L1291.45 218.79" stroke="rgba(147, 139, 142, 0)" stroke-width="1.5"></path><path d="M1291.45 218.79L1424.87 245.55" stroke="rgba(147, 139, 142, 0)" stroke-width="1.5"></path><path d="M1311.11 373.04L1311.11 373.04" stroke="rgba(147, 139, 142, 0)" stroke-width="1.5"></path><path d="M1311.11 373.04L1423.36 410.41" stroke="rgba(147, 139, 142, 0)" stroke-width="1.5"></path><path d="M1311.11 373.04L1267.86 511.43" stroke="rgba(147, 139, 142, 0)" stroke-width="1.5"></path><path d="M1311.11 373.04L1291.45 218.79" stroke="rgba(147, 139, 142, 0)" stroke-width="1.5"></path><path d="M1311.11 373.04L1424.87 245.55" stroke="rgba(147, 139, 142, 0)" stroke-width="1.5"></path><path d="M1267.86 511.43L1267.86 511.43" stroke="rgba(147, 139, 142, 0)" stroke-width="1.5"></path><path d="M1267.86 511.43L1423.36 410.41" stroke="rgba(147, 139, 142, 0)" stroke-width="1.5"></path><path d="M1267.86 511.43L1266.06 701.07" stroke="rgba(147, 139, 142, 0)" stroke-width="1.5"></path><path d="M1267.86 511.43L1458.21 506.34" stroke="rgba(147, 139, 142, 0)" stroke-width="1.5"></path><path d="M1266.06 701.07L1266.06 701.07" stroke="rgba(147, 139, 142, 0)" stroke-width="1.5"></path><path d="M1266.06 701.07L1422.95 701.03" stroke="rgba(147, 139, 142, 0)" stroke-width="1.5"></path><path d="M1266.06 701.07L1112.53 541.91" stroke="rgba(147, 139, 142, 0)" stroke-width="1.5"></path><path d="M1266.06 701.07L1458.21 506.34" stroke="rgba(147, 139, 142, 0)" stroke-width="1.5"></path><path d="M1405.22 -48.58L1405.22 -48.58" stroke="rgba(147, 139, 142, 0)" stroke-width="1.5"></path><path d="M1405.22 -48.58L1547.73 -92.95" stroke="rgba(147, 139, 142, 0)" stroke-width="1.5"></path><path d="M1405.22 -48.58L1460.85 96.73" stroke="rgba(147, 139, 142, 0)" stroke-width="1.5"></path><path d="M1460.85 96.73L1460.85 96.73" stroke="rgba(147, 139, 142, 0)" stroke-width="1.5"></path><path d="M1460.85 96.73L1596.53 69.44" stroke="rgba(147, 139, 142, 0)" stroke-width="1.5"></path><path d="M1460.85 96.73L1424.87 245.55" stroke="rgba(147, 139, 142, 0)" stroke-width="1.5"></path><path d="M1460.85 96.73L1581.64 227.15" stroke="rgba(147, 139, 142, 0)" stroke-width="1.5"></path><path d="M1424.87 245.55L1424.87 245.55" stroke="rgba(147, 139, 142, 0)" stroke-width="1.5"></path><path d="M1424.87 245.55L1581.64 227.15" stroke="rgba(147, 139, 142, 0)" stroke-width="1.5"></path><path d="M1424.87 245.55L1423.36 410.41" stroke="rgba(147, 139, 142, 0)" stroke-width="1.5"></path><path d="M1423.36 410.41L1423.36 410.41" stroke="rgba(147, 139, 142, 0)" stroke-width="1.5"></path><path d="M1423.36 410.41L1458.21 506.34" stroke="rgba(147, 139, 142, 0)" stroke-width="1.5"></path><path d="M1423.36 410.41L1569.75 492.52" stroke="rgba(147, 139, 142, 0)" stroke-width="1.5"></path><path d="M1423.36 410.41L1291.45 218.79" stroke="rgba(147, 139, 142, 0)" stroke-width="1.5"></path><path d="M1458.21 506.34L1458.21 506.34" stroke="rgba(147, 139, 142, 0)" stroke-width="1.5"></path><path d="M1458.21 506.34L1569.75 492.52" stroke="rgba(147, 139, 142, 0)" stroke-width="1.5"></path><path d="M1422.95 701.03L1422.95 701.03" stroke="rgba(147, 139, 142, 0)" stroke-width="1.5"></path><path d="M1422.95 701.03L1458.21 506.34" stroke="rgba(147, 139, 142, 0)" stroke-width="1.5"></path><path d="M1547.73 -92.95L1547.73 -92.95" stroke="rgba(147, 139, 142, 0)" stroke-width="1.5"></path><path d="M1547.73 -92.95L1596.53 69.44" stroke="rgba(147, 139, 142, 0)" stroke-width="1.5"></path><path d="M1547.73 -92.95L1460.85 96.73" stroke="rgba(147, 139, 142, 0)" stroke-width="1.5"></path><path d="M1547.73 -92.95L1283.68 -80.69" stroke="rgba(147, 139, 142, 0)" stroke-width="1.5"></path><path d="M1547.73 -92.95L1307.21 45.82" stroke="rgba(147, 139, 142, 0)" stroke-width="1.5"></path><path d="M1596.53 69.44L1596.53 69.44" stroke="rgba(147, 139, 142, 0)" stroke-width="1.5"></path><path d="M1596.53 69.44L1581.64 227.15" stroke="rgba(147, 139, 142, 0)" stroke-width="1.5"></path><path d="M1596.53 69.44L1405.22 -48.58" stroke="rgba(147, 139, 142, 0)" stroke-width="1.5"></path><path d="M1581.64 227.15L1581.64 227.15" stroke="rgba(147, 139, 142, 0)" stroke-width="1.5"></path><path d="M1569.75 492.52L1569.75 492.52" stroke="rgba(147, 139, 142, 0)" stroke-width="1.5"></path><path d="M1569.75 492.52L1422.95 701.03" stroke="rgba(147, 139, 142, 0)" stroke-width="1.5"></path><path d="M1569.75 492.52L1581.64 227.15" stroke="rgba(147, 139, 142, 0)" stroke-width="1.5"></path><circle r="5" cx="-43.92" cy="384.2" fill="rgba(147, 139, 142, 0)"></circle><circle r="5" cx="-40.95" cy="507.22" fill="rgba(147, 139, 142, 0)"></circle><circle r="5" cx="-95.88" cy="654.84" fill="rgba(147, 139, 142, 0)"></circle><circle r="5" cx="69.92" cy="372.03" fill="rgba(147, 139, 142, 0)"></circle><circle r="5" cx="44.95" cy="522.33" fill="rgba(147, 139, 142, 0)"></circle><circle r="5" cx="76.78" cy="704.38" fill="rgba(147, 139, 142, 0)"></circle><circle r="5" cx="195.48" cy="379.81" fill="rgba(147, 139, 142, 0)"></circle><circle r="5" cx="236.13" cy="538.23" fill="rgba(147, 139, 142, 0)"></circle><circle r="5" cx="188.05" cy="645.93" fill="rgba(147, 139, 142, 0)"></circle><circle r="5" cx="352.44" cy="343.95" fill="rgba(147, 139, 142, 0)"></circle><circle r="5" cx="344.64" cy="547.97" fill="rgba(147, 139, 142, 0)"></circle><circle r="5" cx="390.04" cy="665.88" fill="rgba(147, 139, 142, 0)"></circle><circle r="5" cx="491.81" cy="406.55" fill="rgba(147, 139, 142, 0)"></circle><circle r="5" cx="518.33" cy="529.78" fill="rgba(147, 139, 142, 0)"></circle><circle r="5" cx="512.05" cy="658.94" fill="rgba(147, 139, 142, 0)"></circle><circle r="5" cx="710.34" cy="203.39" fill="rgba(147, 139, 142, 0)"></circle><circle r="5" cx="699.65" cy="409.08" fill="rgba(147, 139, 142, 0)"></circle><circle r="5" cx="689.24" cy="522.33" fill="rgba(147, 139, 142, 0)"></circle><circle r="5" cx="653.26" cy="650.61" fill="rgba(147, 139, 142, 0)"></circle><circle r="5" cx="808.29" cy="204.15" fill="rgba(147, 139, 142, 0)"></circle><circle r="5" cx="827.5" cy="399.87" fill="rgba(147, 139, 142, 0)"></circle><circle r="5" cx="835.25" cy="517.54" fill="rgba(147, 139, 142, 0)"></circle><circle r="5" cx="809.5" cy="639.07" fill="rgba(147, 139, 142, 0)"></circle><circle r="5" cx="980.44" cy="-106.78" fill="rgba(147, 139, 142, 0)"></circle><circle r="5" cx="961.35" cy="84.29" fill="rgba(147, 139, 142, 0)"></circle><circle r="5" cx="945.94" cy="220.96" fill="rgba(147, 139, 142, 0)"></circle><circle r="5" cx="993.73" cy="358.55" fill="rgba(147, 139, 142, 0)"></circle><circle r="5" cx="963.3" cy="512.59" fill="rgba(147, 139, 142, 0)"></circle><circle r="5" cx="948.38" cy="646.88" fill="rgba(147, 139, 142, 0)"></circle><circle r="5" cx="1104.62" cy="-68.78" fill="rgba(147, 139, 142, 0)"></circle><circle r="5" cx="1090.05" cy="52.35" fill="rgba(147, 139, 142, 0)"></circle><circle r="5" cx="1145.99" cy="242.07" fill="rgba(147, 139, 142, 0)"></circle><circle r="5" cx="1118.3" cy="389.38" fill="rgba(147, 139, 142, 0)"></circle><circle r="5" cx="1112.53" cy="541.91" fill="rgba(147, 139, 142, 0)"></circle><circle r="5" cx="1154.16" cy="673.36" fill="rgba(147, 139, 142, 0)"></circle><circle r="5" cx="1283.68" cy="-80.69" fill="rgba(147, 139, 142, 0)"></circle><circle r="5" cx="1307.21" cy="45.82" fill="rgba(147, 139, 142, 0)"></circle><circle r="5" cx="1291.45" cy="218.79" fill="rgba(147, 139, 142, 0)"></circle><circle r="5" cx="1311.11" cy="373.04" fill="rgba(147, 139, 142, 0)"></circle><circle r="5" cx="1267.86" cy="511.43" fill="rgba(147, 139, 142, 0)"></circle><circle r="5" cx="1266.06" cy="701.07" fill="rgba(147, 139, 142, 0)"></circle><circle r="5" cx="1405.22" cy="-48.58" fill="rgba(147, 139, 142, 0)"></circle><circle r="5" cx="1460.85" cy="96.73" fill="rgba(147, 139, 142, 0)"></circle><circle r="5" cx="1424.87" cy="245.55" fill="rgba(147, 139, 142, 0)"></circle><circle r="5" cx="1423.36" cy="410.41" fill="rgba(147, 139, 142, 0)"></circle><circle r="5" cx="1458.21" cy="506.34" fill="rgba(147, 139, 142, 0)"></circle><circle r="5" cx="1422.95" cy="701.03" fill="rgba(147, 139, 142, 0)"></circle><circle r="5" cx="1547.73" cy="-92.95" fill="rgba(147, 139, 142, 0)"></circle><circle r="5" cx="1596.53" cy="69.44" fill="rgba(147, 139, 142, 0)"></circle><circle r="5" cx="1581.64" cy="227.15" fill="rgba(147, 139, 142, 0)"></circle><circle r="5" cx="1569.75" cy="492.52" fill="rgba(147, 139, 142, 0)"></circle><path d="M38.44 561.87L38.44 561.87" stroke="hsl(240, 3.3%, 100%)" stroke-width="1.5"></path><path d="M38.44 561.87L-105.75 547.49" stroke="hsl(240, 3.3%, 100%)" stroke-width="1.5"></path><path d="M38.44 561.87L-67.77 677.48" stroke="hsl(240, 3.3%, 100%)" stroke-width="1.5"></path><path d="M38.44 561.87L197.02 494.18" stroke="hsl(240, 3.3%, 100%)" stroke-width="1.5"></path><path d="M38.44 561.87L198.14 643.23" stroke="hsl(240, 3.3%, 100%)" stroke-width="1.5"></path><path d="M38.44 561.87L375.28 495.82" stroke="hsl(240, 3.3%, 100%)" stroke-width="1.5"></path><path d="M38.44 561.87L387.03 648.26" stroke="hsl(240, 3.3%, 100%)" stroke-width="1.5"></path><path d="M375.28 495.82L375.28 495.82" stroke="hsl(240, 3.3%, 100%)" stroke-width="1.5"></path><path d="M375.28 495.82L387.03 648.26" stroke="hsl(240, 3.3%, 100%)" stroke-width="1.5"></path><path d="M375.28 495.82L197.02 494.18" stroke="hsl(240, 3.3%, 100%)" stroke-width="1.5"></path><path d="M375.28 495.82L548.96 403.29" stroke="hsl(240, 3.3%, 100%)" stroke-width="1.5"></path><path d="M375.28 495.82L198.14 643.23" stroke="hsl(240, 3.3%, 100%)" stroke-width="1.5"></path><path d="M375.28 495.82L556.07 698.11" stroke="hsl(240, 3.3%, 100%)" stroke-width="1.5"></path><path d="M375.28 495.82L646.96 529.98" stroke="hsl(240, 3.3%, 100%)" stroke-width="1.5"></path><path d="M387.03 648.26L387.03 648.26" stroke="hsl(240, 3.3%, 100%)" stroke-width="1.5"></path><path d="M387.03 648.26L556.07 698.11" stroke="hsl(240, 3.3%, 100%)" stroke-width="1.5"></path><path d="M387.03 648.26L198.14 643.23" stroke="hsl(240, 3.3%, 100%)" stroke-width="1.5"></path><path d="M387.03 648.26L197.02 494.18" stroke="hsl(240, 3.3%, 100%)" stroke-width="1.5"></path><path d="M1142.21 88.7L1142.21 88.7" stroke="hsl(240, 3.3%, 100%)" stroke-width="1.5"></path><path d="M1142.21 88.7L1254.02 62.93" stroke="hsl(240, 3.3%, 100%)" stroke-width="1.5"></path><path d="M1142.21 88.7L1119.48 219.86" stroke="hsl(240, 3.3%, 100%)" stroke-width="1.5"></path><path d="M1142.21 88.7L1254.7 -37.94" stroke="hsl(240, 3.3%, 100%)" stroke-width="1.5"></path><path d="M1142.21 88.7L996.85 231.17" stroke="hsl(240, 3.3%, 100%)" stroke-width="1.5"></path><path d="M1142.21 88.7L1300.71 258.26" stroke="hsl(240, 3.3%, 100%)" stroke-width="1.5"></path><path d="M1142.21 88.7L1111.44 350.42" stroke="hsl(240, 3.3%, 100%)" stroke-width="1.5"></path><path d="M1591.14 -43.68L1591.14 -43.68" stroke="hsl(240, 3.3%, 100%)" stroke-width="1.5"></path><path d="M1591.14 -43.68L1568.84 94.91" stroke="hsl(240, 3.3%, 100%)" stroke-width="1.5"></path><path d="M1561.71 247.86L1561.71 247.86" stroke="hsl(240, 3.3%, 100%)" stroke-width="1.5"></path><path d="M1561.71 247.86L1570.39 378.95" stroke="hsl(240, 3.3%, 100%)" stroke-width="1.5"></path><path d="M1561.71 247.86L1461.09 339.1" stroke="hsl(240, 3.3%, 100%)" stroke-width="1.5"></path><path d="M1561.71 247.86L1413.02 220.8" stroke="hsl(240, 3.3%, 100%)" stroke-width="1.5"></path><path d="M1561.71 247.86L1568.84 94.91" stroke="hsl(240, 3.3%, 100%)" stroke-width="1.5"></path><path d="M1561.71 247.86L1449.34 83.61" stroke="hsl(240, 3.3%, 100%)" stroke-width="1.5"></path><path d="M1548.7 692.45L1548.7 692.45" stroke="hsl(240, 3.3%, 100%)" stroke-width="1.5"></path><path d="M1548.7 692.45L1564.5 561.6" stroke="hsl(240, 3.3%, 100%)" stroke-width="1.5"></path><path d="M1548.7 692.45L1394.21 699.96" stroke="hsl(240, 3.3%, 100%)" stroke-width="1.5"></path><path d="M1548.7 692.45L1455.87 561.74" stroke="hsl(240, 3.3%, 100%)" stroke-width="1.5"></path><path d="M-105.75 547.49L-105.75 547.49" stroke="hsl(240, 3.3%, 100%)" stroke-width="1.5"></path><path d="M-105.75 547.49L-67.77 677.48" stroke="hsl(240, 3.3%, 100%)" stroke-width="1.5"></path><path d="M-105.75 547.49L197.02 494.18" stroke="hsl(240, 3.3%, 100%)" stroke-width="1.5"></path><path d="M-105.75 547.49L198.14 643.23" stroke="hsl(240, 3.3%, 100%)" stroke-width="1.5"></path><path d="M-105.75 547.49L375.28 495.82" stroke="hsl(240, 3.3%, 100%)" stroke-width="1.5"></path><path d="M-67.77 677.48L-67.77 677.48" stroke="hsl(240, 3.3%, 100%)" stroke-width="1.5"></path><path d="M-67.77 677.48L198.14 643.23" stroke="hsl(240, 3.3%, 100%)" stroke-width="1.5"></path><path d="M197.02 494.18L197.02 494.18" stroke="hsl(240, 3.3%, 100%)" stroke-width="1.5"></path><path d="M197.02 494.18L198.14 643.23" stroke="hsl(240, 3.3%, 100%)" stroke-width="1.5"></path><path d="M198.14 643.23L198.14 643.23" stroke="hsl(240, 3.3%, 100%)" stroke-width="1.5"></path><path d="M548.96 403.29L548.96 403.29" stroke="hsl(240, 3.3%, 100%)" stroke-width="1.5"></path><path d="M548.96 403.29L646.96 529.98" stroke="hsl(240, 3.3%, 100%)" stroke-width="1.5"></path><path d="M556.07 698.11L556.07 698.11" stroke="hsl(240, 3.3%, 100%)" stroke-width="1.5"></path><path d="M556.07 698.11L668.63 694.67" stroke="hsl(240, 3.3%, 100%)" stroke-width="1.5"></path><path d="M556.07 698.11L646.96 529.98" stroke="hsl(240, 3.3%, 100%)" stroke-width="1.5"></path><path d="M556.07 698.11L828.34 643.26" stroke="hsl(240, 3.3%, 100%)" stroke-width="1.5"></path><path d="M556.07 698.11L548.96 403.29" stroke="hsl(240, 3.3%, 100%)" stroke-width="1.5"></path><path d="M646.96 529.98L646.96 529.98" stroke="hsl(240, 3.3%, 100%)" stroke-width="1.5"></path><path d="M646.96 529.98L668.63 694.67" stroke="hsl(240, 3.3%, 100%)" stroke-width="1.5"></path><path d="M646.96 529.98L844.86 510.3" stroke="hsl(240, 3.3%, 100%)" stroke-width="1.5"></path><path d="M668.63 694.67L668.63 694.67" stroke="hsl(240, 3.3%, 100%)" stroke-width="1.5"></path><path d="M668.63 694.67L828.34 643.26" stroke="hsl(240, 3.3%, 100%)" stroke-width="1.5"></path><path d="M844.86 510.3L844.86 510.3" stroke="hsl(240, 3.3%, 100%)" stroke-width="1.5"></path><path d="M844.86 510.3L953.93 541.87" stroke="hsl(240, 3.3%, 100%)" stroke-width="1.5"></path><path d="M844.86 510.3L828.34 643.26" stroke="hsl(240, 3.3%, 100%)" stroke-width="1.5"></path><path d="M828.34 643.26L828.34 643.26" stroke="hsl(240, 3.3%, 100%)" stroke-width="1.5"></path><path d="M828.34 643.26L955.3 643.16" stroke="hsl(240, 3.3%, 100%)" stroke-width="1.5"></path><path d="M828.34 643.26L953.93 541.87" stroke="hsl(240, 3.3%, 100%)" stroke-width="1.5"></path><path d="M828.34 643.26L646.96 529.98" stroke="hsl(240, 3.3%, 100%)" stroke-width="1.5"></path><path d="M828.34 643.26L939.09 407.54" stroke="hsl(240, 3.3%, 100%)" stroke-width="1.5"></path><path d="M996.85 231.17L996.85 231.17" stroke="hsl(240, 3.3%, 100%)" stroke-width="1.5"></path><path d="M996.85 231.17L1119.48 219.86" stroke="hsl(240, 3.3%, 100%)" stroke-width="1.5"></path><path d="M996.85 231.17L1111.44 350.42" stroke="hsl(240, 3.3%, 100%)" stroke-width="1.5"></path><path d="M996.85 231.17L939.09 407.54" stroke="hsl(240, 3.3%, 100%)" stroke-width="1.5"></path><path d="M939.09 407.54L939.09 407.54" stroke="hsl(240, 3.3%, 100%)" stroke-width="1.5"></path><path d="M939.09 407.54L953.93 541.87" stroke="hsl(240, 3.3%, 100%)" stroke-width="1.5"></path><path d="M939.09 407.54L844.86 510.3" stroke="hsl(240, 3.3%, 100%)" stroke-width="1.5"></path><path d="M939.09 407.54L1111.44 350.42" stroke="hsl(240, 3.3%, 100%)" stroke-width="1.5"></path><path d="M953.93 541.87L953.93 541.87" stroke="hsl(240, 3.3%, 100%)" stroke-width="1.5"></path><path d="M953.93 541.87L955.3 643.16" stroke="hsl(240, 3.3%, 100%)" stroke-width="1.5"></path><path d="M955.3 643.16L955.3 643.16" stroke="hsl(240, 3.3%, 100%)" stroke-width="1.5"></path><path d="M1119.48 219.86L1119.48 219.86" stroke="hsl(240, 3.3%, 100%)" stroke-width="1.5"></path><path d="M1119.48 219.86L1111.44 350.42" stroke="hsl(240, 3.3%, 100%)" stroke-width="1.5"></path><path d="M1111.44 350.42L1111.44 350.42" stroke="hsl(240, 3.3%, 100%)" stroke-width="1.5"></path><path d="M1111.44 350.42L1272.24 361.61" stroke="hsl(240, 3.3%, 100%)" stroke-width="1.5"></path><path d="M1150.4 542.18L1150.4 542.18" stroke="hsl(240, 3.3%, 100%)" stroke-width="1.5"></path><path d="M1150.4 542.18L1259.09 536.16" stroke="hsl(240, 3.3%, 100%)" stroke-width="1.5"></path><path d="M1150.4 542.18L1113.79 656.13" stroke="hsl(240, 3.3%, 100%)" stroke-width="1.5"></path><path d="M1150.4 542.18L1285.96 663.51" stroke="hsl(240, 3.3%, 100%)" stroke-width="1.5"></path><path d="M1150.4 542.18L1111.44 350.42" stroke="hsl(240, 3.3%, 100%)" stroke-width="1.5"></path><path d="M1113.79 656.13L1113.79 656.13" stroke="hsl(240, 3.3%, 100%)" stroke-width="1.5"></path><path d="M1113.79 656.13L955.3 643.16" stroke="hsl(240, 3.3%, 100%)" stroke-width="1.5"></path><path d="M1113.79 656.13L1285.96 663.51" stroke="hsl(240, 3.3%, 100%)" stroke-width="1.5"></path><path d="M1254.7 -37.94L1254.7 -37.94" stroke="hsl(240, 3.3%, 100%)" stroke-width="1.5"></path><path d="M1254.7 -37.94L1254.02 62.93" stroke="hsl(240, 3.3%, 100%)" stroke-width="1.5"></path><path d="M1254.7 -37.94L1458.33 -95.9" stroke="hsl(240, 3.3%, 100%)" stroke-width="1.5"></path><path d="M1254.7 -37.94L1449.34 83.61" stroke="hsl(240, 3.3%, 100%)" stroke-width="1.5"></path><path d="M1254.7 -37.94L1119.48 219.86" stroke="hsl(240, 3.3%, 100%)" stroke-width="1.5"></path><path d="M1254.7 -37.94L1300.71 258.26" stroke="hsl(240, 3.3%, 100%)" stroke-width="1.5"></path><path d="M1254.02 62.93L1254.02 62.93" stroke="hsl(240, 3.3%, 100%)" stroke-width="1.5"></path><path d="M1254.02 62.93L1449.34 83.61" stroke="hsl(240, 3.3%, 100%)" stroke-width="1.5"></path><path d="M1254.02 62.93L1300.71 258.26" stroke="hsl(240, 3.3%, 100%)" stroke-width="1.5"></path><path d="M1300.71 258.26L1300.71 258.26" stroke="hsl(240, 3.3%, 100%)" stroke-width="1.5"></path><path d="M1300.71 258.26L1272.24 361.61" stroke="hsl(240, 3.3%, 100%)" stroke-width="1.5"></path><path d="M1300.71 258.26L1413.02 220.8" stroke="hsl(240, 3.3%, 100%)" stroke-width="1.5"></path><path d="M1300.71 258.26L1461.09 339.1" stroke="hsl(240, 3.3%, 100%)" stroke-width="1.5"></path><path d="M1300.71 258.26L1119.48 219.86" stroke="hsl(240, 3.3%, 100%)" stroke-width="1.5"></path><path d="M1272.24 361.61L1272.24 361.61" stroke="hsl(240, 3.3%, 100%)" stroke-width="1.5"></path><path d="M1272.24 361.61L1259.09 536.16" stroke="hsl(240, 3.3%, 100%)" stroke-width="1.5"></path><path d="M1272.24 361.61L1461.09 339.1" stroke="hsl(240, 3.3%, 100%)" stroke-width="1.5"></path><path d="M1272.24 361.61L1413.02 220.8" stroke="hsl(240, 3.3%, 100%)" stroke-width="1.5"></path><path d="M1259.09 536.16L1259.09 536.16" stroke="hsl(240, 3.3%, 100%)" stroke-width="1.5"></path><path d="M1259.09 536.16L1285.96 663.51" stroke="hsl(240, 3.3%, 100%)" stroke-width="1.5"></path><path d="M1285.96 663.51L1285.96 663.51" stroke="hsl(240, 3.3%, 100%)" stroke-width="1.5"></path><path d="M1285.96 663.51L1394.21 699.96" stroke="hsl(240, 3.3%, 100%)" stroke-width="1.5"></path><path d="M1285.96 663.51L1455.87 561.74" stroke="hsl(240, 3.3%, 100%)" stroke-width="1.5"></path><path d="M1458.33 -95.9L1458.33 -95.9" stroke="hsl(240, 3.3%, 100%)" stroke-width="1.5"></path><path d="M1458.33 -95.9L1591.14 -43.68" stroke="hsl(240, 3.3%, 100%)" stroke-width="1.5"></path><path d="M1458.33 -95.9L1449.34 83.61" stroke="hsl(240, 3.3%, 100%)" stroke-width="1.5"></path><path d="M1458.33 -95.9L1568.84 94.91" stroke="hsl(240, 3.3%, 100%)" stroke-width="1.5"></path><path d="M1449.34 83.61L1449.34 83.61" stroke="hsl(240, 3.3%, 100%)" stroke-width="1.5"></path><path d="M1449.34 83.61L1568.84 94.91" stroke="hsl(240, 3.3%, 100%)" stroke-width="1.5"></path><path d="M1449.34 83.61L1413.02 220.8" stroke="hsl(240, 3.3%, 100%)" stroke-width="1.5"></path><path d="M1449.34 83.61L1591.14 -43.68" stroke="hsl(240, 3.3%, 100%)" stroke-width="1.5"></path><path d="M1413.02 220.8L1413.02 220.8" stroke="hsl(240, 3.3%, 100%)" stroke-width="1.5"></path><path d="M1413.02 220.8L1461.09 339.1" stroke="hsl(240, 3.3%, 100%)" stroke-width="1.5"></path><path d="M1461.09 339.1L1461.09 339.1" stroke="hsl(240, 3.3%, 100%)" stroke-width="1.5"></path><path d="M1461.09 339.1L1570.39 378.95" stroke="hsl(240, 3.3%, 100%)" stroke-width="1.5"></path><path d="M1455.87 561.74L1455.87 561.74" stroke="hsl(240, 3.3%, 100%)" stroke-width="1.5"></path><path d="M1455.87 561.74L1564.5 561.6" stroke="hsl(240, 3.3%, 100%)" stroke-width="1.5"></path><path d="M1455.87 561.74L1394.21 699.96" stroke="hsl(240, 3.3%, 100%)" stroke-width="1.5"></path><path d="M1455.87 561.74L1259.09 536.16" stroke="hsl(240, 3.3%, 100%)" stroke-width="1.5"></path><path d="M1455.87 561.74L1570.39 378.95" stroke="hsl(240, 3.3%, 100%)" stroke-width="1.5"></path><path d="M1394.21 699.96L1394.21 699.96" stroke="hsl(240, 3.3%, 100%)" stroke-width="1.5"></path><path d="M1568.84 94.91L1568.84 94.91" stroke="hsl(240, 3.3%, 100%)" stroke-width="1.5"></path><path d="M1570.39 378.95L1570.39 378.95" stroke="hsl(240, 3.3%, 100%)" stroke-width="1.5"></path><path d="M1570.39 378.95L1564.5 561.6" stroke="hsl(240, 3.3%, 100%)" stroke-width="1.5"></path><path d="M1570.39 378.95L1413.02 220.8" stroke="hsl(240, 3.3%, 100%)" stroke-width="1.5"></path><path d="M1570.39 378.95L1568.84 94.91" stroke="hsl(240, 3.3%, 100%)" stroke-width="1.5"></path><path d="M1564.5 561.6L1564.5 561.6" stroke="hsl(240, 3.3%, 100%)" stroke-width="1.5"></path><circle r="25" cx="38.44" cy="561.87" fill="url(&quot;#SvgjsRadialGradient1011&quot;)"></circle><circle r="25" cx="375.28" cy="495.82" fill="url(&quot;#SvgjsRadialGradient1011&quot;)"></circle><circle r="25" cx="387.03" cy="648.26" fill="url(&quot;#SvgjsRadialGradient1011&quot;)"></circle><circle r="25" cx="1142.21" cy="88.7" fill="url(&quot;#SvgjsRadialGradient1011&quot;)"></circle><circle r="25" cx="1591.14" cy="-43.68" fill="url(&quot;#SvgjsRadialGradient1011&quot;)"></circle><circle r="25" cx="1561.71" cy="247.86" fill="url(&quot;#SvgjsRadialGradient1011&quot;)"></circle><circle r="25" cx="1548.7" cy="692.45" fill="url(&quot;#SvgjsRadialGradient1011&quot;)"></circle><circle r="5" cx="-105.75" cy="547.49" fill="#e8e8e9"></circle><circle r="5" cx="-67.77" cy="677.48" fill="#e8e8e9"></circle><circle r="5" cx="197.02" cy="494.18" fill="#e8e8e9"></circle><circle r="5" cx="198.14" cy="643.23" fill="#e8e8e9"></circle><circle r="5" cx="548.96" cy="403.29" fill="#e8e8e9"></circle><circle r="5" cx="556.07" cy="698.11" fill="#e8e8e9"></circle><circle r="5" cx="646.96" cy="529.98" fill="#e8e8e9"></circle><circle r="5" cx="668.63" cy="694.67" fill="#e8e8e9"></circle><circle r="5" cx="844.86" cy="510.3" fill="#e8e8e9"></circle><circle r="5" cx="828.34" cy="643.26" fill="#e8e8e9"></circle><circle r="5" cx="996.85" cy="231.17" fill="#e8e8e9"></circle><circle r="5" cx="939.09" cy="407.54" fill="#e8e8e9"></circle><circle r="5" cx="953.93" cy="541.87" fill="#e8e8e9"></circle><circle r="5" cx="955.3" cy="643.16" fill="#e8e8e9"></circle><circle r="5" cx="1119.48" cy="219.86" fill="#e8e8e9"></circle><circle r="5" cx="1111.44" cy="350.42" fill="#e8e8e9"></circle><circle r="5" cx="1150.4" cy="542.18" fill="#e8e8e9"></circle><circle r="5" cx="1113.79" cy="656.13" fill="#e8e8e9"></circle><circle r="5" cx="1254.7" cy="-37.94" fill="#e8e8e9"></circle><circle r="5" cx="1254.02" cy="62.93" fill="#e8e8e9"></circle><circle r="5" cx="1300.71" cy="258.26" fill="#e8e8e9"></circle><circle r="5" cx="1272.24" cy="361.61" fill="#e8e8e9"></circle><circle r="5" cx="1259.09" cy="536.16" fill="#e8e8e9"></circle><circle r="5" cx="1285.96" cy="663.51" fill="#e8e8e9"></circle><circle r="5" cx="1458.33" cy="-95.9" fill="#e8e8e9"></circle><circle r="5" cx="1449.34" cy="83.61" fill="#e8e8e9"></circle><circle r="5" cx="1413.02" cy="220.8" fill="#e8e8e9"></circle><circle r="5" cx="1461.09" cy="339.1" fill="#e8e8e9"></circle><circle r="5" cx="1455.87" cy="561.74" fill="#e8e8e9"></circle><circle r="5" cx="1394.21" cy="699.96" fill="#e8e8e9"></circle><circle r="5" cx="1568.84" cy="94.91" fill="#e8e8e9"></circle><circle r="5" cx="1570.39" cy="378.95" fill="#e8e8e9"></circle><circle r="5" cx="1564.5" cy="561.6" fill="#e8e8e9"></circle></g><defs><mask id="SvgjsMask1010"><rect width="1440" height="560" fill="#ffffff"></rect></mask><radialGradient id="SvgjsRadialGradient1011"><stop stop-color="#ffffff" offset="0.1"></stop><stop stop-color="rgba(208, 208, 211, 1)" offset="0.2"></stop><stop stop-color="rgba(208, 208, 211, 0)" offset="1"></stop></radialGradient></defs></svg>