<svg id="visual" viewBox="0 0 900 600" width="900" height="600" xmlns="http://www.w3.org/2000/svg" xmlns:xlink="http://www.w3.org/1999/xlink" version="1.1"><path d="M0 475L21.5 479.3C43 483.7 86 492.3 128.8 488.5C171.7 484.7 214.3 468.3 257.2 462.7C300 457 343 462 385.8 466.8C428.7 471.7 471.3 476.3 514.2 479.7C557 483 600 485 642.8 467.8C685.7 450.7 728.3 414.3 771.2 401C814 387.7 857 397.3 878.5 402.2L900 407L900 601L878.5 601C857 601 814 601 771.2 601C728.3 601 685.7 601 642.8 601C600 601 557 601 514.2 601C471.3 601 428.7 601 385.8 601C343 601 300 601 257.2 601C214.3 601 171.7 601 128.8 601C86 601 43 601 21.5 601L0 601Z" fill="#0066FF" stroke-linecap="round" stroke-linejoin="miter"></path></svg>