<svg id="visual" viewBox="0 0 900 600" width="900" height="600" xmlns="http://www.w3.org/2000/svg" xmlns:xlink="http://www.w3.org/1999/xlink" version="1.1"><path d="M0 430L16.7 427.8C33.3 425.7 66.7 421.3 100 409.8C133.3 398.3 166.7 379.7 200 362.8C233.3 346 266.7 331 300 317C333.3 303 366.7 290 400 294.8C433.3 299.7 466.7 322.3 500 326C533.3 329.7 566.7 314.3 600 320.8C633.3 327.3 666.7 355.7 700 352.7C733.3 349.7 766.7 315.3 800 298.3C833.3 281.3 866.7 281.7 883.3 281.8L900 282L900 0L883.3 0C866.7 0 833.3 0 800 0C766.7 0 733.3 0 700 0C666.7 0 633.3 0 600 0C566.7 0 533.3 0 500 0C466.7 0 433.3 0 400 0C366.7 0 333.3 0 300 0C266.7 0 233.3 0 200 0C166.7 0 133.3 0 100 0C66.7 0 33.3 0 16.7 0L0 0Z" fill="#223273"></path><path d="M0 263L16.7 271.2C33.3 279.3 66.7 295.7 100 308.5C133.3 321.3 166.7 330.7 200 330.7C233.3 330.7 266.7 321.3 300 334.8C333.3 348.3 366.7 384.7 400 372.3C433.3 360 466.7 299 500 281.7C533.3 264.3 566.7 290.7 600 318.7C633.3 346.7 666.7 376.3 700 394.3C733.3 412.3 766.7 418.7 800 409.2C833.3 399.7 866.7 374.3 883.3 361.7L900 349L900 0L883.3 0C866.7 0 833.3 0 800 0C766.7 0 733.3 0 700 0C666.7 0 633.3 0 600 0C566.7 0 533.3 0 500 0C466.7 0 433.3 0 400 0C366.7 0 333.3 0 300 0C266.7 0 233.3 0 200 0C166.7 0 133.3 0 100 0C66.7 0 33.3 0 16.7 0L0 0Z" fill="#1b2c6c"></path><path d="M0 371L16.7 365.2C33.3 359.3 66.7 347.7 100 320.5C133.3 293.3 166.7 250.7 200 255.7C233.3 260.7 266.7 313.3 300 340.5C333.3 367.7 366.7 369.3 400 370.7C433.3 372 466.7 373 500 362C533.3 351 566.7 328 600 328C633.3 328 666.7 351 700 358.3C733.3 365.7 766.7 357.3 800 339.8C833.3 322.3 866.7 295.7 883.3 282.3L900 269L900 0L883.3 0C866.7 0 833.3 0 800 0C766.7 0 733.3 0 700 0C666.7 0 633.3 0 600 0C566.7 0 533.3 0 500 0C466.7 0 433.3 0 400 0C366.7 0 333.3 0 300 0C266.7 0 233.3 0 200 0C166.7 0 133.3 0 100 0C66.7 0 33.3 0 16.7 0L0 0Z" fill="#132664"></path><path d="M0 227L16.7 223.2C33.3 219.3 66.7 211.7 100 215C133.3 218.3 166.7 232.7 200 241C233.3 249.3 266.7 251.7 300 253C333.3 254.3 366.7 254.7 400 267.5C433.3 280.3 466.7 305.7 500 317C533.3 328.3 566.7 325.7 600 307.7C633.3 289.7 666.7 256.3 700 239.8C733.3 223.3 766.7 223.7 800 225.5C833.3 227.3 866.7 230.7 883.3 232.3L900 234L900 0L883.3 0C866.7 0 833.3 0 800 0C766.7 0 733.3 0 700 0C666.7 0 633.3 0 600 0C566.7 0 533.3 0 500 0C466.7 0 433.3 0 400 0C366.7 0 333.3 0 300 0C266.7 0 233.3 0 200 0C166.7 0 133.3 0 100 0C66.7 0 33.3 0 16.7 0L0 0Z" fill="#0a205d"></path><path d="M0 278L16.7 270.2C33.3 262.3 66.7 246.7 100 246.7C133.3 246.7 166.7 262.3 200 271.2C233.3 280 266.7 282 300 269.8C333.3 257.7 366.7 231.3 400 214.2C433.3 197 466.7 189 500 192.8C533.3 196.7 566.7 212.3 600 216.7C633.3 221 666.7 214 700 221.7C733.3 229.3 766.7 251.7 800 261.8C833.3 272 866.7 270 883.3 269L900 268L900 0L883.3 0C866.7 0 833.3 0 800 0C766.7 0 733.3 0 700 0C666.7 0 633.3 0 600 0C566.7 0 533.3 0 500 0C466.7 0 433.3 0 400 0C366.7 0 333.3 0 300 0C266.7 0 233.3 0 200 0C166.7 0 133.3 0 100 0C66.7 0 33.3 0 16.7 0L0 0Z" fill="#001a56"></path><path d="M0 202L16.7 191.7C33.3 181.3 66.7 160.7 100 164.8C133.3 169 166.7 198 200 196.3C233.3 194.7 266.7 162.3 300 149.7C333.3 137 366.7 144 400 154.2C433.3 164.3 466.7 177.7 500 180.3C533.3 183 566.7 175 600 170.5C633.3 166 666.7 165 700 174.3C733.3 183.7 766.7 203.3 800 197.7C833.3 192 866.7 161 883.3 145.5L900 130L900 0L883.3 0C866.7 0 833.3 0 800 0C766.7 0 733.3 0 700 0C666.7 0 633.3 0 600 0C566.7 0 533.3 0 500 0C466.7 0 433.3 0 400 0C366.7 0 333.3 0 300 0C266.7 0 233.3 0 200 0C166.7 0 133.3 0 100 0C66.7 0 33.3 0 16.7 0L0 0Z" fill="#00144f"></path><path d="M0 148L16.7 138C33.3 128 66.7 108 100 111.3C133.3 114.7 166.7 141.3 200 150.2C233.3 159 266.7 150 300 142.2C333.3 134.3 366.7 127.7 400 124.3C433.3 121 466.7 121 500 120.7C533.3 120.3 566.7 119.7 600 117.3C633.3 115 666.7 111 700 116.3C733.3 121.7 766.7 136.3 800 135.8C833.3 135.3 866.7 119.7 883.3 111.8L900 104L900 0L883.3 0C866.7 0 833.3 0 800 0C766.7 0 733.3 0 700 0C666.7 0 633.3 0 600 0C566.7 0 533.3 0 500 0C466.7 0 433.3 0 400 0C366.7 0 333.3 0 300 0C266.7 0 233.3 0 200 0C166.7 0 133.3 0 100 0C66.7 0 33.3 0 16.7 0L0 0Z" fill="#000e48"></path><path d="M0 84L16.7 87.7C33.3 91.3 66.7 98.7 100 103C133.3 107.3 166.7 108.7 200 107.2C233.3 105.7 266.7 101.3 300 96.5C333.3 91.7 366.7 86.3 400 83.8C433.3 81.3 466.7 81.7 500 86C533.3 90.3 566.7 98.7 600 103.7C633.3 108.7 666.7 110.3 700 113.7C733.3 117 766.7 122 800 120.2C833.3 118.3 866.7 109.7 883.3 105.3L900 101L900 0L883.3 0C866.7 0 833.3 0 800 0C766.7 0 733.3 0 700 0C666.7 0 633.3 0 600 0C566.7 0 533.3 0 500 0C466.7 0 433.3 0 400 0C366.7 0 333.3 0 300 0C266.7 0 233.3 0 200 0C166.7 0 133.3 0 100 0C66.7 0 33.3 0 16.7 0L0 0Z" fill="#000341"></path><path d="M0 52L16.7 50.2C33.3 48.3 66.7 44.7 100 47.2C133.3 49.7 166.7 58.3 200 62C233.3 65.7 266.7 64.3 300 67C333.3 69.7 366.7 76.3 400 77.8C433.3 79.3 466.7 75.7 500 75.8C533.3 76 566.7 80 600 78.7C633.3 77.3 666.7 70.7 700 66.8C733.3 63 766.7 62 800 56.7C833.3 51.3 866.7 41.7 883.3 36.8L900 32L900 0L883.3 0C866.7 0 833.3 0 800 0C766.7 0 733.3 0 700 0C666.7 0 633.3 0 600 0C566.7 0 533.3 0 500 0C466.7 0 433.3 0 400 0C366.7 0 333.3 0 300 0C266.7 0 233.3 0 200 0C166.7 0 133.3 0 100 0C66.7 0 33.3 0 16.7 0L0 0Z" fill="#000000"></path></svg>