<svg id="visual" viewBox="0 0 900 600" width="900" height="600" xmlns="http://www.w3.org/2000/svg" xmlns:xlink="http://www.w3.org/1999/xlink" version="1.1"><path d="M0 180L21.5 177.7C43 175.3 86 170.7 128.8 170C171.7 169.3 214.3 172.7 257.2 170.8C300 169 343 162 385.8 157.8C428.7 153.7 471.3 152.3 514.2 150.5C557 148.7 600 146.3 642.8 147.5C685.7 148.7 728.3 153.3 771.2 160C814 166.7 857 175.3 878.5 179.7L900 184L900 0L878.5 0C857 0 814 0 771.2 0C728.3 0 685.7 0 642.8 0C600 0 557 0 514.2 0C471.3 0 428.7 0 385.8 0C343 0 300 0 257.2 0C214.3 0 171.7 0 128.8 0C86 0 43 0 21.5 0L0 0Z" fill="#223273"></path><path d="M0 131L21.5 134.5C43 138 86 145 128.8 149.5C171.7 154 214.3 156 257.2 151.5C300 147 343 136 385.8 131.8C428.7 127.7 471.3 130.3 514.2 132.8C557 135.3 600 137.7 642.8 140C685.7 142.3 728.3 144.7 771.2 145.5C814 146.3 857 145.7 878.5 145.3L900 145L900 0L878.5 0C857 0 814 0 771.2 0C728.3 0 685.7 0 642.8 0C600 0 557 0 514.2 0C471.3 0 428.7 0 385.8 0C343 0 300 0 257.2 0C214.3 0 171.7 0 128.8 0C86 0 43 0 21.5 0L0 0Z" fill="#182a69"></path><path d="M0 136L21.5 133.8C43 131.7 86 127.3 128.8 124.7C171.7 122 214.3 121 257.2 121.5C300 122 343 124 385.8 124.5C428.7 125 471.3 124 514.2 123.7C557 123.3 600 123.7 642.8 123.7C685.7 123.7 728.3 123.3 771.2 123.3C814 123.3 857 123.7 878.5 123.8L900 124L900 0L878.5 0C857 0 814 0 771.2 0C728.3 0 685.7 0 642.8 0C600 0 557 0 514.2 0C471.3 0 428.7 0 385.8 0C343 0 300 0 257.2 0C214.3 0 171.7 0 128.8 0C86 0 43 0 21.5 0L0 0Z" fill="#0d2260"></path><path d="M0 102L21.5 100C43 98 86 94 128.8 93.8C171.7 93.7 214.3 97.3 257.2 100.3C300 103.3 343 105.7 385.8 106.3C428.7 107 471.3 106 514.2 106.2C557 106.3 600 107.7 642.8 104C685.7 100.3 728.3 91.7 771.2 87C814 82.3 857 81.7 878.5 81.3L900 81L900 0L878.5 0C857 0 814 0 771.2 0C728.3 0 685.7 0 642.8 0C600 0 557 0 514.2 0C471.3 0 428.7 0 385.8 0C343 0 300 0 257.2 0C214.3 0 171.7 0 128.8 0C86 0 43 0 21.5 0L0 0Z" fill="#001a56"></path><path d="M0 66L21.5 68C43 70 86 74 128.8 76.8C171.7 79.7 214.3 81.3 257.2 81.5C300 81.7 343 80.3 385.8 78.3C428.7 76.3 471.3 73.7 514.2 71.3C557 69 600 67 642.8 68.7C685.7 70.3 728.3 75.7 771.2 78.5C814 81.3 857 81.7 878.5 81.8L900 82L900 0L878.5 0C857 0 814 0 771.2 0C728.3 0 685.7 0 642.8 0C600 0 557 0 514.2 0C471.3 0 428.7 0 385.8 0C343 0 300 0 257.2 0C214.3 0 171.7 0 128.8 0C86 0 43 0 21.5 0L0 0Z" fill="#00124c"></path><path d="M0 46L21.5 45.5C43 45 86 44 128.8 46.5C171.7 49 214.3 55 257.2 55C300 55 343 49 385.8 49.3C428.7 49.7 471.3 56.3 514.2 59.5C557 62.7 600 62.3 642.8 61.7C685.7 61 728.3 60 771.2 56.8C814 53.7 857 48.3 878.5 45.7L900 43L900 0L878.5 0C857 0 814 0 771.2 0C728.3 0 685.7 0 642.8 0C600 0 557 0 514.2 0C471.3 0 428.7 0 385.8 0C343 0 300 0 257.2 0C214.3 0 171.7 0 128.8 0C86 0 43 0 21.5 0L0 0Z" fill="#000743"></path><path d="M0 25L21.5 24.3C43 23.7 86 22.3 128.8 22.3C171.7 22.3 214.3 23.7 257.2 24.3C300 25 343 25 385.8 25.3C428.7 25.7 471.3 26.3 514.2 26.8C557 27.3 600 27.7 642.8 29.3C685.7 31 728.3 34 771.2 35.5C814 37 857 37 878.5 37L900 37L900 0L878.5 0C857 0 814 0 771.2 0C728.3 0 685.7 0 642.8 0C600 0 557 0 514.2 0C471.3 0 428.7 0 385.8 0C343 0 300 0 257.2 0C214.3 0 171.7 0 128.8 0C86 0 43 0 21.5 0L0 0Z" fill="#000000"></path></svg>