<svg width="111" height="40" viewBox="0 0 111 40" fill="none" xmlns="http://www.w3.org/2000/svg">
<g clip-path="url(#clip0_114_1235)">
<path d="M36.4135 16.5815C36.4135 16.5815 36.4135 16.5899 36.4093 16.594C36.4681 16.6273 36.6404 16.6897 36.8464 16.723C37.2709 16.8021 37.8803 16.8229 38.4225 16.8312C38.4393 16.8312 38.4519 16.8312 38.4603 16.8312H38.5066C38.5066 16.8312 38.5192 16.8312 38.5234 16.8312C38.6873 16.8437 39.1706 16.3943 39.4648 15.6536C39.7212 15.0794 39.9272 14.3928 40.1079 13.8145L33.795 13.8519C33.795 14.1182 33.7782 14.3804 33.7656 14.6425C34.0935 14.5718 34.4087 14.551 34.6945 14.551H34.7659C35.1022 14.551 35.3964 14.5718 35.6359 14.5718H35.7746C35.8335 14.5676 35.8839 14.5676 35.9175 14.5676C36.1487 14.5676 36.3841 14.5967 36.5942 14.7174C36.838 14.863 36.9431 15.0961 36.9473 15.3124C36.9473 15.3124 36.9473 15.3249 36.9473 15.3374C36.9262 15.7826 36.6573 16.1446 36.4135 16.5899" fill="white"/>
<path d="M26.415 21.6951C27.3859 19.2151 30.7525 16.8517 31.6981 15.8197C32.0722 15.4244 32.4631 15.1498 32.8498 14.9542C32.8708 14.5881 32.8834 14.2219 32.8876 13.8516L26.4487 13.889L26.3184 21.6909C26.352 21.6909 26.3814 21.6909 26.415 21.6909" fill="white"/>
<path d="M31.6996 4.12774C31.7332 4.19848 31.7668 4.26922 31.8004 4.34412C33.6876 4.12774 35.4108 3.80734 36.8692 3.39956C35.0914 1.93072 32.931 0.823884 30.5354 0.195569C29.3501 0.0873817 28.1397 0.0249662 26.9082 0C28.9172 0.399459 30.5438 1.95569 31.6996 4.12774Z" fill="white"/>
<path d="M43.1684 13.8599C43.4038 14.3343 43.7442 15.0001 44.1855 15.7615C45.0639 17.2803 46.3332 19.1736 47.8421 20.6424C47.9219 20.7215 47.9976 20.8005 48.0648 20.8837C50.5824 18.8157 52.066 16.369 52.1165 13.7393L43.1348 13.7892C43.1474 13.8142 43.1558 13.835 43.1684 13.8558" fill="white"/>
<path d="M14.5136 23.5261C14.8835 23.3721 15.2744 23.2265 15.6821 23.0933C16.9388 22.6856 18.393 22.3652 19.9733 22.1321C18.9562 19.8311 18.3762 16.9475 18.3257 13.8475L10.1426 13.8018C10.151 17.58 11.8112 20.9962 14.5136 23.5303" fill="white"/>
<path d="M26.6463 24.3757C26.4866 24.1635 26.3731 23.9388 26.289 23.71L26.2344 27.147C26.8732 27.0929 27.4827 26.8765 28.0669 26.5228C27.676 25.9028 27.2389 25.1746 26.6463 24.3757Z" fill="white"/>
<path d="M42.8954 13.2699L52.1124 13.3781C51.9695 8.66364 47.2328 4.53173 40.134 2.14746C39.5372 2.70088 38.7386 3.1794 37.793 3.58718C40.7981 6.04635 42.723 9.45007 42.8954 13.2699Z" fill="white"/>
<path d="M41.3907 12.3459L41.4202 12.35C41.5967 12.3584 41.7564 12.3958 41.8993 12.4457C41.542 9.06699 39.8651 6.04192 37.3223 3.77832C37.0365 3.89067 36.7423 3.99469 36.4397 4.09872C35.183 4.5065 33.7287 4.8269 32.1484 5.05576C33.1445 7.3152 33.7161 10.1281 33.7834 13.1531L40.2896 13.2322C40.4619 12.6996 40.8864 12.3459 41.3907 12.3417" fill="white"/>
<path d="M31.1221 4.41452C31.0633 4.28136 31.0002 4.14821 30.9372 4.02338C29.7225 1.58917 28.0666 0.145296 26.2383 0.0371094L26.3139 4.66418C27.9825 4.64753 29.6006 4.56015 31.1221 4.41035" fill="white"/>
<path d="M32.8889 13.1445C32.8385 10.1527 32.3173 7.3731 31.4389 5.15527C29.8334 5.35916 28.1144 5.47151 26.3281 5.49648L26.4542 13.0654L32.8931 13.1445H32.8889Z" fill="white"/>
<path d="M40.0622 2.12195C37.4102 1.23982 34.4303 0.590695 31.2402 0.257812C33.535 0.886128 35.6239 1.90974 37.3723 3.24959C38.4525 2.92087 39.3561 2.5339 40.0622 2.12195Z" fill="white"/>
<path d="M9.20447 13.7934L0 13.7393C0.092465 18.487 4.85021 22.648 11.991 25.0448C12.5206 24.5496 13.2099 24.1127 14.0295 23.7341C11.0622 21.1833 9.21287 17.6922 9.20447 13.7934Z" fill="white"/>
<path d="M14.3234 3.58718C13.3735 3.1794 12.5791 2.70088 11.9823 2.14746C4.88354 4.53173 0.146807 8.66364 0.00390625 13.3781L9.22098 13.2657C9.3891 9.45007 11.3141 6.04635 14.3234 3.58718Z" fill="white"/>
<path d="M25.8187 21.6919L25.5582 13.89L19.2285 13.8525C19.2621 16.9192 19.7875 19.7737 20.6827 22.0373C22.2925 21.8334 24.0283 21.7169 25.8229 21.6919" fill="white"/>
<path d="M20.998 22.777C21.0611 22.9102 21.1199 23.0392 21.183 23.1723C22.4186 25.6523 24.1166 27.1128 25.9912 27.1627H25.9996V27.0837L25.8483 22.5273C24.1629 22.544 22.5321 22.6314 20.998 22.7812" fill="white"/>
<path d="M20.418 23.0648C20.3844 22.9982 20.3507 22.9233 20.3171 22.8525C18.3039 23.0814 16.4714 23.4309 14.9499 23.8845C14.9373 23.8845 14.9247 23.8886 14.9121 23.8928C16.3117 25.1203 17.9677 26.1106 19.8001 26.8097C21.5318 27.0344 23.339 27.1675 25.1883 27.1967C23.1877 26.793 21.5654 25.2327 20.418 23.0648Z" fill="white"/>
<path d="M28.2147 26.7559C27.8028 26.9556 27.3699 27.1054 26.916 27.1928C27.4372 27.1844 27.9541 27.1636 28.4711 27.1387C28.4669 27.1304 28.4585 27.122 28.4543 27.1137C28.3744 27.0014 28.2946 26.8765 28.2147 26.7559Z" fill="white"/>
<path d="M25.9957 0.0371094C24.1422 0.136974 22.482 1.57253 21.2548 3.98593C21.1833 4.1274 21.1161 4.26888 21.0488 4.41452C22.5661 4.56431 24.18 4.65169 25.8402 4.66418L25.9957 0.0371094Z" fill="white"/>
<path d="M20.8683 0.261719C17.6824 0.598762 14.7068 1.23956 12.0547 2.12586C12.7608 2.54196 13.6602 2.92478 14.7404 3.2535C16.493 1.91781 18.5735 0.890035 20.8683 0.261719Z" fill="white"/>
<path d="M14.7941 3.77858C12.0537 6.2211 10.3137 9.54993 10.1582 13.2532L18.3329 13.1534C18.3918 10.12 18.9592 7.30713 19.9511 5.05185C18.3792 4.81883 16.9292 4.50259 15.6767 4.09481C15.3699 3.99079 15.0757 3.88676 14.7899 3.77441" fill="white"/>
<path d="M25.8103 5.50111C24.0367 5.4803 22.3219 5.36795 20.7248 5.16406C19.8337 7.37773 19.3 10.1573 19.2285 13.1449L25.554 13.07L25.8061 5.50527L25.8103 5.50111Z" fill="white"/>
<path d="M20.2961 4.33996C20.3255 4.27754 20.3591 4.2068 20.3886 4.14439C21.5318 1.97649 23.1457 0.411942 25.1589 0C23.9358 0.0208052 22.7338 0.0873817 21.5612 0.195569C19.1781 0.823884 17.022 1.93072 15.2441 3.3954C16.7026 3.80318 18.4132 4.11942 20.2961 4.3358" fill="white"/>
<path d="M12.0625 25.0705C14.1892 25.782 16.526 26.3313 19.0142 26.6975C17.3036 26.0317 15.7485 25.1329 14.4035 24.0469C13.4705 24.3506 12.6929 24.7002 12.0625 25.0705Z" fill="white"/>
<path d="M42.34 13.2776C42.34 13.2776 41.8609 12.8115 41.4069 12.8115C41.1506 12.8115 40.9068 12.9572 40.7555 13.4149C40.3394 14.6881 39.7384 17.3013 38.4565 17.293C37.1704 17.2805 35.4934 17.1973 35.9683 16.3692C36.4391 15.537 36.8005 14.9877 35.817 15.0294C35.6321 15.0377 35.4304 15.0294 35.2202 15.0252C34.3166 14.9919 33.2112 14.9628 32.0806 16.1279C30.6852 17.5717 25.1331 21.5206 27.0665 24.1254C28.9956 26.7302 29.294 28.586 31.2904 27.7954C33.291 27.0048 34.2325 26.1809 36.2709 26.1476C38.3052 26.1143 40.0326 26.3557 40.7219 27.0048C41.4112 27.6539 41.6297 27.8869 42.2307 27.8953C42.8318 27.9077 42.9158 27.5957 44.038 27.5957C45.1602 27.5957 45.6603 28.2365 46.1521 27.4833C47.0515 26.0977 49.6405 23.081 47.4718 20.963C44.3532 17.9129 42.3442 13.2817 42.3442 13.2817" fill="white"/>
<path d="M43.3286 28.6367H43.3202C43.1983 28.6367 41.7987 28.6825 43.5513 31.0501C43.9968 31.6535 44.8206 30.5466 45.3208 29.8434C45.8167 29.1402 43.3328 28.6367 43.3328 28.6367" fill="white"/>
<path d="M1.89553 38.5394L0.62624 34.911H0.596819C0.630443 35.4478 0.647255 35.9554 0.647255 36.4256V38.5394H0V34.1953H1.00871L2.23177 37.6531H2.24858L3.50106 34.1953H4.51397V38.5394H3.82469V36.3923C3.82469 36.176 3.82889 35.893 3.8415 35.5476C3.84991 35.2023 3.86251 34.9942 3.86672 34.9193H3.8457L2.52597 38.5436H1.89133L1.89553 38.5394Z" fill="white"/>
<path d="M6.91375 35.7221C6.69099 35.7221 6.51027 35.7886 6.37577 35.9301C6.24128 36.0716 6.15722 36.2755 6.1362 36.546H7.64086C7.63666 36.2755 7.56941 36.0716 7.44332 35.9301C7.31723 35.7886 7.14071 35.7221 6.91375 35.7221ZM7.04404 38.5932C6.53128 38.5932 6.1236 38.4434 5.83359 38.1438C5.54359 37.8484 5.39648 37.4364 5.39648 36.9163C5.39648 36.3962 5.53098 35.9551 5.79997 35.6472C6.06896 35.3392 6.44302 35.1895 6.91375 35.1895C7.35086 35.1895 7.6997 35.3184 7.95188 35.5847C8.20406 35.8469 8.33435 36.2047 8.33435 36.6708V37.0453H6.1236C6.1362 37.3657 6.22026 37.6153 6.38418 37.7818C6.54809 37.9524 6.77926 38.0439 7.07767 38.0439C7.271 38.0439 7.45593 38.0231 7.62405 37.9898C7.79217 37.9482 7.97289 37.89 8.17043 37.8067V38.3768C7.99391 38.4559 7.82159 38.5141 7.64927 38.5474C7.47274 38.5807 7.271 38.5973 7.04404 38.5973" fill="white"/>
<path d="M11.9359 38.5398H11.2256V36.5134C11.2256 36.2637 11.1752 36.0765 11.0785 35.9475C10.9818 35.8268 10.8347 35.7644 10.6288 35.7644C10.3598 35.7644 10.158 35.8518 10.0319 36.0265C9.91006 36.2013 9.84282 36.4967 9.84282 36.9004V38.5398H9.13672V35.2526H9.68731L9.78818 35.6812H9.826C9.91426 35.5231 10.0488 35.4024 10.2253 35.3192C10.4018 35.2318 10.5909 35.1943 10.8011 35.1943C11.3096 35.1943 11.6501 35.3649 11.814 35.7103H11.8644C11.9611 35.548 12.0998 35.4232 12.2763 35.3317C12.4571 35.2401 12.6588 35.1943 12.8858 35.1943C13.285 35.1943 13.575 35.2942 13.7558 35.4939C13.9365 35.6895 14.029 35.9933 14.029 36.401V38.544H13.3229V36.5175C13.3229 36.2679 13.2724 36.0806 13.18 35.9516C13.0833 35.831 12.932 35.7686 12.726 35.7686C12.4528 35.7686 12.2511 35.8518 12.125 36.0224C11.9989 36.193 11.9359 36.451 11.9359 36.8005V38.544V38.5398Z" fill="white"/>
<path d="M16.5254 35.7638C16.2396 35.7638 16.0378 35.847 15.9117 36.0093C15.7899 36.1757 15.7226 36.4545 15.7184 36.8415V36.8872C15.7184 37.2867 15.7815 37.5738 15.9075 37.7569C16.0378 37.9358 16.2438 38.0274 16.538 38.0274C16.786 38.0274 16.9751 37.9275 17.1054 37.7319C17.2357 37.5364 17.2987 37.2534 17.2987 36.8831C17.2987 36.1341 17.0423 35.7638 16.5254 35.7638ZM16.7061 35.1937C17.118 35.1937 17.4416 35.3393 17.6728 35.6389C17.9081 35.9344 18.0174 36.3505 18.0174 36.8872C18.0174 37.424 17.8997 37.8443 17.6686 38.1439C17.4332 38.4435 17.1096 38.5933 16.6935 38.5933C16.2774 38.5933 15.9454 38.4435 15.7142 38.1439H15.6638L15.5335 38.535H15.0039V33.9121H15.71V35.0106C15.71 35.0938 15.7058 35.2145 15.6974 35.3726C15.689 35.5349 15.6848 35.6348 15.6806 35.6764H15.71C15.9328 35.3518 16.2648 35.1895 16.7019 35.1895" fill="white"/>
<path d="M20.1579 35.7221C19.9351 35.7221 19.7586 35.7886 19.6199 35.9301C19.4854 36.0716 19.4056 36.2755 19.3803 36.546H20.885C20.8808 36.2755 20.8136 36.0674 20.6875 35.9301C20.5572 35.7886 20.3849 35.7221 20.1579 35.7221ZM20.2882 38.5932C19.7712 38.5932 19.3677 38.4434 19.0777 38.1438C18.7877 37.8484 18.6406 37.4364 18.6406 36.9163C18.6406 36.3962 18.7751 35.9551 19.0441 35.6472C19.3131 35.3392 19.6872 35.1895 20.1579 35.1895C20.595 35.1895 20.9438 35.3184 21.196 35.5847C21.4524 35.8469 21.5785 36.2089 21.5785 36.6708V37.0453H19.3677C19.3761 37.3657 19.4644 37.6153 19.6241 37.7818C19.788 37.9524 20.0192 38.0439 20.3218 38.0439C20.5151 38.0439 20.7001 38.0231 20.8682 37.9898C21.0405 37.9482 21.2212 37.89 21.4146 37.8067V38.3768C21.2381 38.4559 21.0657 38.5141 20.8934 38.5474C20.7211 38.5807 20.5193 38.5973 20.2924 38.5973" fill="white"/>
<path d="M24.0662 35.1943C24.2049 35.1943 24.3226 35.2027 24.4151 35.2235L24.3436 35.8767C24.247 35.8518 24.1419 35.8393 24.0326 35.8393C23.751 35.8393 23.5241 35.9267 23.3475 36.1098C23.171 36.2928 23.087 36.53 23.087 36.8213V38.5398H22.3809V35.2526H22.9314L23.0239 35.831H23.0575C23.171 35.6354 23.3139 35.4773 23.4904 35.3649C23.6712 35.2484 23.8561 35.1943 24.0662 35.1943Z" fill="white"/>
<path d="M27.1548 36.8876C27.1548 37.6491 27.4364 38.0277 28.0038 38.0277C28.5712 38.0277 28.8444 37.6491 28.8444 36.8876C28.8444 36.1262 28.5628 35.7641 27.9996 35.7641C27.7054 35.7641 27.4911 35.8598 27.3524 36.0554C27.2179 36.2468 27.1548 36.5298 27.1548 36.8918V36.8876ZM29.5673 36.8918C29.5673 37.4286 29.4286 37.8488 29.1512 38.1484C28.8739 38.448 28.4872 38.602 27.9912 38.602C27.6802 38.602 27.407 38.5312 27.1675 38.3939C26.9279 38.2566 26.7472 38.0569 26.6211 37.7947C26.4908 37.5367 26.4277 37.233 26.4277 36.8918C26.4277 36.3592 26.5664 35.9431 26.8438 35.6435C27.1212 35.3439 27.5079 35.1982 28.0122 35.1982C28.5166 35.1982 28.8739 35.348 29.1512 35.656C29.4286 35.9639 29.5715 36.3758 29.5715 36.8918" fill="white"/>
<path d="M32.0441 35.7802H31.2329V38.539H30.5269V35.7802H29.9805V35.4515L30.5269 35.2393V35.0229C30.5269 34.636 30.6193 34.3488 30.8042 34.1616C30.9892 33.9744 31.2666 33.8828 31.649 33.8828C31.897 33.8828 32.1408 33.9244 32.3804 34.0035L32.1954 34.5319C32.0231 34.4778 31.8592 34.4487 31.6995 34.4487C31.5398 34.4487 31.4221 34.4986 31.3506 34.5943C31.2792 34.6942 31.2372 34.8398 31.2372 35.0354V35.2518H32.0483V35.7802H32.0441Z" fill="white"/>
<path d="M35.4427 38.0322C35.615 38.0322 35.7873 38.003 35.9596 37.9531V38.4816C35.8798 38.5148 35.7831 38.544 35.657 38.5689C35.5351 38.5897 35.409 38.6022 35.2745 38.6022C34.6063 38.6022 34.27 38.2569 34.27 37.5578V35.7852H33.8203V35.4731L34.3079 35.2193L34.5474 34.5244H34.9803V35.2526H35.9218V35.781H34.9803V37.5412C34.9803 37.7118 35.0224 37.8324 35.1064 37.9157C35.1905 37.9989 35.2998 38.0363 35.4384 38.0363" fill="white"/>
<path d="M39.5421 38.5399H38.8318V36.5176C38.8318 36.2638 38.7814 36.0766 38.6763 35.9517C38.5755 35.8269 38.4074 35.7645 38.1888 35.7645C37.8904 35.7645 37.676 35.8519 37.5373 36.0266C37.3986 36.2014 37.3272 36.4968 37.3272 36.9088V38.5399H36.6211V33.917H37.3272V35.0904C37.3272 35.2776 37.3146 35.4815 37.2894 35.6938H37.3356C37.4323 35.5356 37.5668 35.4108 37.7391 35.3193C37.9114 35.2319 38.1089 35.1944 38.3401 35.1944C39.1387 35.1944 39.5463 35.5897 39.5463 36.397V38.5399H39.5421Z" fill="white"/>
<path d="M41.8398 35.7221C41.6171 35.7221 41.4405 35.7886 41.3018 35.9301C41.1674 36.0716 41.0833 36.2755 41.0581 36.546H42.5669C42.5627 36.2755 42.4955 36.0674 42.3652 35.9301C42.2391 35.7886 42.0626 35.7221 41.8356 35.7221H41.8398ZM41.9659 38.5932C41.4532 38.5932 41.0455 38.4434 40.7555 38.1438C40.4655 37.8442 40.3184 37.4364 40.3184 36.9163C40.3184 36.3962 40.4529 35.9551 40.726 35.6472C40.995 35.3392 41.3649 35.1895 41.8356 35.1895C42.2727 35.1895 42.6216 35.3184 42.8738 35.5847C43.1259 35.8469 43.2562 36.2089 43.2562 36.6708V37.0453H41.0455C41.0539 37.3657 41.1421 37.6153 41.3061 37.7818C41.47 37.9524 41.7011 38.0439 41.9995 38.0439C42.1971 38.0439 42.3778 38.0231 42.5459 37.9898C42.714 37.9482 42.8948 37.89 43.0923 37.8067V38.3768C42.92 38.4559 42.7477 38.5141 42.5711 38.5474C42.3946 38.5807 42.1929 38.5973 41.9701 38.5973" fill="white"/>
<path d="M48.2627 37.3579C48.2627 37.7407 48.124 38.0486 47.8424 38.2691C47.5608 38.4897 47.1699 38.5979 46.6739 38.5979C46.178 38.5979 45.7745 38.523 45.4551 38.369V37.6949C45.6568 37.7906 45.867 37.8614 46.0939 37.9196C46.3209 37.9695 46.5268 37.9945 46.7202 37.9945C47.006 37.9945 47.2161 37.9404 47.3506 37.8322C47.4851 37.7282 47.5524 37.5826 47.5524 37.3995C47.5524 37.2414 47.4893 37.0999 47.3674 36.9875C47.2455 36.8752 46.985 36.742 46.5983 36.5881C46.199 36.4258 45.9174 36.2427 45.7535 36.0388C45.5896 35.8349 45.5097 35.5853 45.5097 35.294C45.5097 34.9361 45.64 34.649 45.9006 34.441C46.1612 34.2329 46.5142 34.1289 46.9513 34.1289C47.3674 34.1289 47.7877 34.2205 48.2038 34.4035L47.9769 34.9819C47.5818 34.8196 47.2371 34.7364 46.9303 34.7364C46.7034 34.7364 46.5226 34.7863 46.4007 34.8862C46.2831 34.9861 46.22 35.1192 46.22 35.2815C46.22 35.3939 46.2452 35.4937 46.2915 35.5728C46.3377 35.656 46.4176 35.7309 46.5268 35.8016C46.6403 35.8724 46.8336 35.9681 47.1194 36.0846C47.4431 36.2177 47.6784 36.3384 47.8297 36.4549C47.9811 36.5673 48.0903 36.6963 48.1576 36.8419C48.229 36.9875 48.2627 37.1581 48.2627 37.3537" fill="white"/>
<path d="M51.3763 38.5392L51.2797 38.1064H51.2418C51.141 38.2604 51.0065 38.381 50.8215 38.4643C50.6408 38.5517 50.4349 38.5974 50.2037 38.5974C49.8044 38.5974 49.5018 38.4976 49.3043 38.2978C49.1025 38.1023 49.0059 37.8027 49.0059 37.399V35.252H49.7162V37.2784C49.7162 37.5322 49.7708 37.7194 49.8717 37.8484C49.9767 37.9733 50.1407 38.0357 50.3592 38.0357C50.6534 38.0357 50.8762 37.9441 51.0149 37.7735C51.1494 37.5988 51.2208 37.3033 51.2208 36.8914V35.2561H51.9311V38.5433H51.3763V38.5392Z" fill="white"/>
<path d="M54.6209 35.1943C54.7596 35.1943 54.8773 35.2027 54.9698 35.2235L54.9025 35.8767C54.8017 35.8518 54.6966 35.8393 54.5873 35.8393C54.3057 35.8393 54.0787 35.9267 53.9064 36.1098C53.7299 36.2928 53.6416 36.53 53.6416 36.8213V38.5398H52.9355V35.2526H53.4861L53.5828 35.831H53.6164C53.7257 35.6354 53.8686 35.4773 54.0493 35.3649C54.2259 35.2484 54.4192 35.1943 54.6209 35.1943Z" fill="white"/>
<path d="M57.0968 35.7645C56.811 35.7645 56.6092 35.8477 56.4873 36.01C56.3612 36.1764 56.2982 36.4552 56.2898 36.8422V36.888C56.2898 37.2874 56.3528 37.5787 56.4831 37.7576C56.6134 37.9365 56.8194 38.0281 57.1094 38.0281C57.3615 38.0281 57.5507 37.9282 57.6768 37.7327C57.8071 37.5371 57.8701 37.2541 57.8701 36.8838C57.8701 36.1348 57.6137 35.7645 57.0968 35.7645ZM57.2817 35.1944C57.6978 35.1944 58.0214 35.3401 58.2484 35.6397C58.4795 35.9351 58.593 36.3512 58.593 36.888C58.593 37.4247 58.4753 37.8492 58.2442 38.1488C58.013 38.4484 57.6852 38.5982 57.2649 38.5982C56.8446 38.5982 56.5209 38.4484 56.2898 38.1488H56.2436L56.1133 38.5399H55.5879V33.917H56.294V35.0155C56.294 35.0987 56.294 35.2194 56.2814 35.3775C56.273 35.5398 56.2688 35.6397 56.2646 35.6813H56.294C56.5209 35.3525 56.8488 35.1944 57.2859 35.1944" fill="white"/>
<path d="M60.4419 38.0611C60.6983 38.0611 60.9085 37.9945 61.064 37.8489C61.2153 37.7115 61.2909 37.5077 61.2909 37.2538V36.9709L60.8664 36.9834C60.5344 36.9958 60.2948 37.0541 60.1435 37.1498C59.9922 37.2455 59.9166 37.3995 59.9166 37.5992C59.9166 37.7448 59.9628 37.8613 60.0469 37.9362C60.1351 38.0153 60.2696 38.0569 60.4419 38.0569V38.0611ZM61.4927 38.5354L61.354 38.0736H61.333C61.1732 38.2774 61.0093 38.4148 60.8496 38.4855C60.6857 38.5604 60.4798 38.5937 60.2234 38.5937C59.8955 38.5937 59.6434 38.5063 59.4626 38.3315C59.2819 38.1568 59.1895 37.9113 59.1895 37.5909C59.1895 37.2705 59.3197 36.9958 59.5719 36.8252C59.8241 36.6546 60.2108 36.5631 60.7319 36.5423L61.3035 36.5257V36.3467C61.3035 36.1387 61.2531 35.9806 61.1564 35.8765C61.0598 35.7725 60.9001 35.7184 60.6941 35.7184C60.526 35.7184 60.3621 35.7392 60.2066 35.7933C60.0469 35.8432 59.8997 35.8973 59.7568 35.9681L59.5299 35.4646C59.7106 35.373 59.9082 35.2981 60.1183 35.2524C60.3327 35.2024 60.5344 35.1816 60.7277 35.1816C61.148 35.1816 61.4675 35.2732 61.6818 35.4521C61.8962 35.6352 62.0054 35.9223 62.0054 36.3093V38.5229H61.5011L61.4927 38.5354Z" fill="white"/>
<path d="M65.9032 38.5391H65.1929V36.5168C65.1929 36.263 65.1424 36.0758 65.0416 35.9509C64.9365 35.8261 64.7726 35.7637 64.5498 35.7637C64.2556 35.7637 64.0329 35.8511 63.8984 36.0258C63.7597 36.1964 63.6924 36.4919 63.6924 36.8996V38.5391H62.9863V35.2519H63.5411L63.642 35.6805H63.6756C63.7765 35.5223 63.9194 35.4017 64.1001 35.3143C64.285 35.2311 64.4868 35.1895 64.7137 35.1895C65.5123 35.1895 65.9074 35.5848 65.9074 36.392V38.5349L65.9032 38.5391Z" fill="white"/>
<path d="M67.9074 38.0611C68.1638 38.0611 68.3697 37.9945 68.5252 37.8489C68.6765 37.7115 68.7564 37.5077 68.7564 37.2538V36.9709L68.3319 36.9834C67.9956 36.9958 67.7519 37.0541 67.6048 37.1498C67.4535 37.2455 67.3778 37.3995 67.3778 37.5992C67.3778 37.7448 67.424 37.8613 67.5123 37.9362C67.6006 38.0153 67.7308 38.0569 67.9074 38.0569V38.0611ZM68.9539 38.5354L68.8152 38.0736H68.7942C68.6345 38.2774 68.4706 38.4148 68.3066 38.4855C68.1469 38.5604 67.9368 38.5937 67.6846 38.5937C67.3568 38.5937 67.1046 38.5063 66.9239 38.3315C66.7389 38.1568 66.6465 37.9113 66.6465 37.5909C66.6465 37.2705 66.7768 36.9958 67.0289 36.8252C67.2853 36.6546 67.672 36.5631 68.189 36.5423L68.7648 36.5257V36.3467C68.7648 36.1387 68.7143 35.9806 68.6135 35.8765C68.5126 35.7725 68.3613 35.7184 68.1511 35.7184C67.983 35.7184 67.8191 35.7392 67.6636 35.7933C67.5081 35.8432 67.361 35.8973 67.2139 35.9681L66.9827 35.4646C67.1676 35.373 67.361 35.2981 67.5753 35.2524C67.7939 35.2024 67.9914 35.1816 68.1806 35.1816C68.6009 35.1816 68.9203 35.2732 69.1346 35.4521C69.349 35.6352 69.4583 35.9223 69.4583 36.3093V38.5229H68.9539V38.5354Z" fill="white"/>
<path d="M71.564 39.7503C71.3665 39.7503 71.2026 39.7212 71.0723 39.6712V39.0762C71.2404 39.1137 71.3875 39.1386 71.5094 39.1386C71.9002 39.1386 72.0978 38.8931 72.0978 38.4021V34.1953H72.8207V38.3772C72.8207 38.8265 72.7114 39.1636 72.5013 39.3966C72.2869 39.6338 71.9759 39.7503 71.564 39.7503Z" fill="white"/>
<path d="M76.2159 38.5392L76.1192 38.1064H76.0814C75.9847 38.2604 75.846 38.381 75.6653 38.4643C75.4846 38.5517 75.2786 38.5974 75.0432 38.5974C74.6398 38.5974 74.3414 38.4976 74.1438 38.2978C73.9463 38.1023 73.8496 37.8027 73.8496 37.399V35.252H74.5599V37.2784C74.5599 37.5322 74.6103 37.7194 74.7154 37.8484C74.8205 37.9733 74.9844 38.0357 75.2072 38.0357C75.5014 38.0357 75.7199 37.9441 75.8586 37.7735C75.9973 37.5988 76.0646 37.3033 76.0646 36.8914V35.2561H76.7749V38.5433H76.2201L76.2159 38.5392Z" fill="white"/>
<path d="M79.4644 35.1943C79.6031 35.1943 79.725 35.2027 79.8132 35.2235L79.746 35.8767C79.6451 35.8518 79.54 35.8393 79.4308 35.8393C79.1492 35.8393 78.9222 35.9267 78.7499 36.1098C78.5734 36.2928 78.4893 36.53 78.4893 36.8213V38.5398H77.7832V35.2526H78.338L78.4305 35.831H78.4683C78.5776 35.6354 78.7205 35.4773 78.9012 35.3649C79.0735 35.2484 79.2668 35.1943 79.4728 35.1943" fill="white"/>
<path d="M80.9573 36.8876C80.9573 37.6491 81.2389 38.0277 81.8063 38.0277C82.3737 38.0277 82.6469 37.6491 82.6469 36.8876C82.6469 36.1262 82.3653 35.7641 81.8021 35.7641C81.5079 35.7641 81.2935 35.8598 81.159 36.0554C81.0245 36.2468 80.9573 36.5298 80.9573 36.8918V36.8876ZM83.374 36.8918C83.374 37.4286 83.2353 37.8488 82.9579 38.1484C82.6805 38.448 82.2938 38.602 81.7937 38.602C81.4869 38.602 81.2095 38.5312 80.9741 38.3939C80.7345 38.2566 80.5538 38.0569 80.4277 37.7947C80.3016 37.5367 80.2344 37.233 80.2344 36.8918C80.2344 36.3592 80.3731 35.9431 80.6505 35.6435C80.9279 35.3439 81.3145 35.1982 81.8189 35.1982C82.3232 35.1982 82.6805 35.348 82.9579 35.656C83.2395 35.9639 83.3782 36.3758 83.3782 36.8918" fill="white"/>
<path d="M87.1024 38.5391H86.3921V36.5168C86.3921 36.263 86.3417 36.0758 86.2366 35.9509C86.1357 35.8261 85.9718 35.7637 85.749 35.7637C85.4506 35.7637 85.2321 35.8511 85.0976 36.0258C84.9589 36.1964 84.8874 36.4919 84.8874 36.8996V38.5391H84.1855V35.2519H84.7403L84.837 35.6805H84.8748C84.9715 35.5223 85.1144 35.4017 85.2993 35.3143C85.4843 35.2311 85.6902 35.1895 85.913 35.1895C86.7115 35.1895 87.1108 35.5848 87.1108 36.392V38.5349L87.1024 38.5391Z" fill="white"/>
<path d="M88.5815 36.3171C88.5815 36.521 88.6361 36.6791 88.7412 36.7914C88.8505 36.8996 89.0018 36.9579 89.1993 36.9579C89.6112 36.9579 89.813 36.7415 89.813 36.3088C89.813 36.0966 89.7625 35.9301 89.6617 35.8136C89.5608 35.6971 89.4053 35.6388 89.1993 35.6388C88.9934 35.6388 88.8421 35.6971 88.737 35.8094C88.6319 35.9218 88.5815 36.0924 88.5815 36.3129V36.3171ZM88.2789 39.0426C88.2789 39.1924 88.3461 39.3089 88.4806 39.3921C88.6193 39.4753 88.8127 39.5128 89.0606 39.5128C89.4431 39.5128 89.7289 39.4628 89.918 39.3505C90.103 39.2423 90.1996 39.0967 90.1996 38.9177C90.1996 38.7763 90.145 38.6764 90.0441 38.614C89.9433 38.5516 89.7499 38.5224 89.4725 38.5224H88.9387C88.737 38.5224 88.5773 38.5682 88.4596 38.6639C88.3419 38.7555 88.2789 38.8845 88.2789 39.0426ZM90.8889 35.2477V35.6305L90.3215 35.7345C90.372 35.8053 90.4182 35.8927 90.4518 35.9884C90.4854 36.0924 90.5022 36.1964 90.5022 36.3129C90.5022 36.65 90.3846 36.9163 90.1492 37.1119C89.9138 37.3033 89.586 37.399 89.1741 37.399C89.069 37.399 88.9724 37.399 88.8883 37.3782C88.737 37.4739 88.6614 37.582 88.6614 37.7069C88.6614 37.7818 88.695 37.84 88.7664 37.8733C88.8379 37.9149 88.9682 37.9316 89.1573 37.9316H89.7373C90.103 37.9316 90.3804 38.0065 90.5695 38.1646C90.7586 38.3185 90.8553 38.5391 90.8553 38.8304C90.8553 39.2007 90.6998 39.4878 90.3888 39.6917C90.0777 39.8956 89.6322 39.9954 89.0438 39.9954C88.5899 39.9954 88.2453 39.9164 88.0057 39.7583C87.7703 39.6001 87.6484 39.3713 87.6484 39.08C87.6484 38.8803 87.7115 38.7097 87.8418 38.5682C87.9721 38.4351 88.1528 38.3352 88.384 38.2853C88.2873 38.2478 88.2116 38.1812 88.1528 38.0939C88.094 38.0065 88.0603 37.9149 88.0603 37.8151C88.0603 37.6944 88.094 37.5904 88.1654 37.503C88.2369 37.4198 88.3377 37.3365 88.4764 37.2492C88.3041 37.1784 88.1654 37.0578 88.0561 36.8913C87.9511 36.7249 87.8964 36.5293 87.8964 36.3129C87.8964 35.9551 88.0099 35.6805 88.2369 35.4849C88.4638 35.2893 88.7874 35.1895 89.2077 35.1895C89.3044 35.1895 89.4011 35.1936 89.5019 35.2061C89.6028 35.2186 89.6827 35.2352 89.7331 35.2477H90.8847H90.8889Z" fill="white"/>
<path d="M94.9702 36.1805H96.58V38.3609C96.3152 38.4442 96.063 38.5024 95.8192 38.5399C95.5755 38.5773 95.3149 38.5939 95.0333 38.5939C94.3692 38.5939 93.8565 38.3984 93.4992 38.0072C93.1378 37.6203 92.957 37.071 92.957 36.3595C92.957 35.6479 93.1588 35.1153 93.5665 34.72C93.9741 34.3247 94.5289 34.125 95.2434 34.125C95.7016 34.125 96.1345 34.2124 96.5464 34.3871L96.2942 34.978C95.9411 34.8157 95.5797 34.7367 95.2266 34.7367C94.7601 34.7367 94.386 34.8823 94.117 35.1736C93.8396 35.4607 93.7094 35.8601 93.7094 36.3636C93.7094 36.8962 93.8312 37.2957 94.075 37.5745C94.3188 37.8491 94.6718 37.9864 95.13 37.9864C95.3653 37.9864 95.6091 37.9615 95.8739 37.8991V36.7839H94.966V36.1764L94.9702 36.1805Z" fill="white"/>
<path d="M99.2398 35.1943C99.3827 35.1943 99.5004 35.2027 99.5928 35.2235L99.5214 35.8767C99.4205 35.8518 99.3196 35.8393 99.2104 35.8393C98.9288 35.8393 98.7018 35.9267 98.5253 36.1098C98.353 36.2928 98.2647 36.53 98.2647 36.8213V38.5398H97.5586V35.2526H98.1134L98.2059 35.831H98.2437C98.353 35.6354 98.4959 35.4773 98.6724 35.3649C98.8489 35.2484 99.038 35.1943 99.244 35.1943" fill="white"/>
<path d="M100.737 36.8876C100.737 37.6491 101.022 38.0277 101.586 38.0277C102.149 38.0277 102.426 37.6491 102.426 36.8876C102.426 36.1262 102.145 35.7641 101.581 35.7641C101.283 35.7641 101.069 35.8598 100.938 36.0554C100.804 36.2468 100.737 36.5298 100.737 36.8918V36.8876ZM103.153 36.8918C103.153 37.4286 103.015 37.8488 102.737 38.1484C102.46 38.448 102.069 38.602 101.577 38.602C101.266 38.602 100.993 38.5312 100.758 38.3939C100.514 38.2566 100.337 38.0569 100.207 37.7947C100.081 37.5367 100.014 37.233 100.014 36.8918C100.014 36.3592 100.152 35.9431 100.43 35.6435C100.707 35.3439 101.094 35.1982 101.598 35.1982C102.103 35.1982 102.456 35.348 102.737 35.656C103.019 35.9639 103.153 36.3758 103.153 36.8918Z" fill="white"/>
<path d="M106.3 38.5392L106.203 38.1064H106.17C106.069 38.2604 105.93 38.381 105.75 38.4643C105.569 38.5517 105.363 38.5974 105.132 38.5974C104.728 38.5974 104.43 38.4976 104.228 38.2978C104.031 38.1023 103.93 37.8027 103.93 37.399V35.252H104.64V37.2784C104.64 37.5322 104.695 37.7194 104.795 37.8484C104.896 37.9733 105.06 38.0357 105.283 38.0357C105.581 38.0357 105.796 37.9441 105.939 37.7735C106.077 37.5988 106.145 37.3033 106.145 36.8914V35.2561H106.855V38.5433H106.3V38.5392Z" fill="white"/>
<path d="M109.373 35.7641C109.091 35.7641 108.885 35.8432 108.763 36.0096C108.633 36.1719 108.566 36.4341 108.566 36.7878V36.8918C108.566 37.2912 108.629 37.5825 108.759 37.7614C108.885 37.9404 109.095 38.0319 109.385 38.0319C109.629 38.0319 109.818 37.932 109.949 37.7365C110.079 37.5367 110.146 37.2538 110.146 36.8918C110.146 36.5298 110.079 36.2427 109.949 36.0554C109.818 35.864 109.625 35.7683 109.369 35.7683L109.373 35.7641ZM109.541 38.602C109.121 38.602 108.797 38.4522 108.562 38.1526H108.52C108.549 38.4272 108.562 38.5978 108.562 38.6561V40.0042H107.855V35.2565H108.427C108.44 35.3148 108.478 35.4646 108.524 35.6976H108.562C108.78 35.3605 109.112 35.1982 109.553 35.1982C109.965 35.1982 110.289 35.3439 110.52 35.6435C110.747 35.9389 110.865 36.355 110.865 36.8918C110.865 37.4286 110.747 37.8488 110.512 38.1484C110.276 38.448 109.953 38.5978 109.537 38.5978" fill="white"/>
<path d="M55.6476 17.2518H61.9941C62.8389 17.2518 63.4777 16.919 63.4777 16.0701C63.4777 15.1797 62.9271 14.8218 62.0613 14.8218H59.5522C56.6353 14.8218 55.2441 13.328 55.2441 11.0894C55.2441 8.85072 56.7278 7.26953 59.7161 7.26953H66.8779V10.0533H60.8551C59.943 10.0533 59.3756 10.3445 59.3756 11.235C59.3756 12.0672 59.8758 12.4167 60.792 12.4167H63.3895C66.2643 12.4167 67.6555 13.8273 67.6555 16.2116C67.6555 18.5959 66.1718 20.0273 63.276 20.0273H55.656V17.2477L55.6476 17.2518ZM68.4036 7.27369H73.9473L76.343 14.2434C76.6624 15.1797 77.007 16.5445 77.007 16.5445C77.007 16.5445 77.3223 15.1797 77.6669 14.2434L80.0836 7.27369H85.6063V20.0314H81.4958V14.3474C81.4958 13.1865 81.5882 11.4639 81.5882 11.4639C81.5882 11.4639 81.0923 13.1449 80.7014 14.2892L78.5999 20.0314H75.1787L73.0815 14.2892C72.6654 13.1241 72.1904 11.4639 72.1904 11.4639C72.1904 11.4639 72.2577 13.0409 72.2577 14.3474V20.0314H68.4036V7.27369ZM87.1109 7.27369H98.8624V10.0574H91.4694V12.3793H97.9251V14.7677H91.4694V17.256H99.0893V20.0356H87.1109V7.27369ZM99.2238 13.665C99.2238 9.41246 101.846 7.27369 105.999 7.27369H110.992V10.0325H107.117C104.608 10.0325 103.645 11.0519 103.645 13.665C103.645 16.2782 104.608 17.2768 107.117 17.2768H110.992V20.0356H105.999C101.846 20.0356 99.2238 17.8968 99.2238 13.6692" fill="white"/>
</g>
<defs>
<clipPath id="clip0_114_1235">
<rect width="111" height="40" fill="white"/>
</clipPath>
</defs>
</svg>
