<svg width="865" height="333" viewBox="0 0 865 333" fill="none" xmlns="http://www.w3.org/2000/svg">
<g filter="url(#filter0_d_3_4)">
<path d="M422.425 28L453.97 163H485.303L509.701 85.0255L532.428 163H563.761L595.095 28H561.86L543.148 109.555L519.806 28H492.046V47.0723L473.527 109.345L455.66 28H422.425ZM649.347 113.328V163H683.408V113.328L731.993 28H696.664L666.387 83.9723L636.091 28H600.762L649.347 113.328ZM739.774 28V163H773.643V82.4979L831.257 163H860.497V28H826.416V108.713L768.802 28H739.774Z" fill="#4A6CF7"/>
<path d="M297.869 203.531C285.941 193.778 271.08 188.473 255.765 188.499H240.315V136.504H255.765C271.707 136.504 286.344 130.87 297.869 121.466C301.666 118.361 305.124 114.852 308.183 110.999C317.457 99.2987 323 84.44 323 68.2556C323 52.0712 317.453 37.2125 308.183 25.5126C305.122 21.6605 301.664 18.1515 297.869 15.0452C285.943 5.28768 271.082 -0.0227608 255.765 7.3331e-05C239.836 7.3331e-05 225.192 5.63768 213.674 15.0383C209.872 18.1373 206.414 21.6471 203.36 25.5057C193.749 37.6124 188.52 52.6998 188.546 68.2487V87.333H138.461V68.2521C138.461 52.0677 132.917 37.209 123.644 25.5091C120.589 21.6522 117.132 18.1426 113.333 15.0418C101.407 5.28745 86.5471 -0.0215519 71.232 7.3331e-05C55.2895 7.3331e-05 40.6596 5.63768 29.1312 15.0383C25.333 18.1427 21.874 21.6519 18.8135 25.5057C9.54655 37.2055 4 52.0677 4 68.2487C4 84.4296 9.54995 99.2918 18.8135 110.992C21.8704 114.849 25.3298 118.358 29.1312 121.459C41.0565 131.214 55.9168 136.522 71.232 136.497H86.6882V188.492H71.232C55.2895 188.492 40.6596 194.123 29.1312 203.524C25.3296 206.628 21.8702 210.141 18.8135 214.001C9.54655 225.698 4 240.55 4 256.738C4 272.925 9.54995 287.774 18.8135 299.481C21.8696 303.337 25.3291 306.846 29.1312 309.944C41.0559 319.702 55.9161 325.012 71.232 324.99C87.1677 324.99 101.808 319.345 113.329 309.944C117.13 306.847 120.588 303.338 123.64 299.481C133.254 287.375 138.484 272.287 138.457 256.738V237.664H188.543V256.744C188.52 272.293 193.749 287.379 203.356 299.487C206.408 303.347 209.867 306.855 213.671 309.951C225.592 319.708 240.448 325.019 255.761 325C271.704 325 286.34 319.355 297.865 309.951C301.663 306.849 305.121 303.341 308.18 299.487C317.457 287.781 322.993 272.929 322.993 256.744C322.993 240.56 317.447 225.701 308.18 214.008C305.123 210.151 301.666 206.638 297.869 203.531ZM203.36 136.504V68.2452C203.36 38.9041 226.865 15.0349 255.765 15.0349C284.671 15.0349 308.183 38.9041 308.183 68.2452C308.183 97.5863 284.671 121.456 255.765 121.456H248.232V121.262H240.482V121.072H240.315V102.444H256.972C264.161 102.456 271.137 99.9668 276.737 95.3907C278.522 93.9334 280.147 92.284 281.583 90.4711C286.096 84.7882 288.553 77.7061 288.544 70.4063C288.544 62.8113 285.936 55.8307 281.583 50.3416C280.15 48.5263 278.525 46.8765 276.737 45.422C271.138 40.8425 264.162 38.3505 256.972 38.3621C252.249 38.3582 247.586 39.4329 243.327 41.5066C239.069 43.5803 235.324 46.5998 232.371 50.3416C227.855 56.0228 225.398 63.106 225.41 70.4063V188.489H203.36V136.504ZM240.315 87.3295V70.4098C240.315 61.0851 247.787 53.4935 256.972 53.4935C261.389 53.499 265.624 55.2831 268.748 58.4544C271.871 61.6258 273.627 65.9253 273.632 70.4098C273.628 74.8949 271.872 79.1953 268.749 82.3674C265.625 85.5395 261.39 87.3241 256.972 87.3295H240.315ZM138.461 102.447H188.543V121.076H138.461V102.447ZM138.461 136.504H188.543V188.496H138.461V136.504ZM78.7714 121.269V121.459H71.232C42.326 121.459 18.8135 97.5898 18.8135 68.2487C18.8135 38.9075 42.326 15.0383 71.232 15.0383C100.135 15.0383 123.64 38.9075 123.64 68.2487V188.492H101.59V70.4167C101.59 62.8216 98.9818 55.8411 94.6323 50.3519C91.6783 46.6102 87.9332 43.5909 83.6743 41.5172C79.4154 39.4436 74.7516 38.3688 70.0281 38.3724C62.8384 38.362 55.8624 40.8538 50.2632 45.4324C48.4751 46.8869 46.85 48.5367 45.4172 50.3519C40.9076 56.0363 38.4531 63.118 38.4628 70.4167C38.4628 78.0152 41.0711 84.9889 45.4172 90.4815C46.8527 92.2943 48.4775 93.9438 50.2632 95.401C55.8641 99.9756 62.8395 102.465 70.0281 102.454H86.6882V121.273L78.7714 121.269ZM86.6882 70.4098V87.333H70.0281C65.6095 87.3275 61.3733 85.5431 58.2489 82.3713C55.1244 79.1994 53.3667 74.899 53.3613 70.4133C53.3613 61.0886 60.8394 53.497 70.0281 53.497C74.4453 53.5015 78.6802 55.2849 81.8036 58.4557C84.927 61.6265 86.6837 65.9256 86.6882 70.4098ZM255.765 309.951C226.865 309.951 203.36 286.082 203.36 256.744V237.664H225.41V254.587C225.41 262.185 228.015 269.176 232.371 274.658C235.325 278.398 239.07 281.416 243.329 283.487C247.587 285.559 252.25 286.632 256.972 286.628C264.161 286.642 271.137 284.152 276.737 279.575C278.521 278.117 280.145 276.469 281.583 274.658C286.097 268.973 288.554 261.889 288.544 254.587C288.553 247.288 286.096 240.207 281.583 234.525C278.63 230.78 274.884 227.759 270.624 225.685C266.363 223.611 261.697 222.538 256.972 222.546H70.0315C65.3066 222.539 60.6407 223.612 56.3802 225.686C52.1197 227.76 48.3738 230.781 45.4206 234.525C40.911 240.208 38.4564 247.289 38.4662 254.587C38.4662 262.185 41.0745 269.176 45.4206 274.658C46.8523 276.461 48.4779 278.111 50.2666 279.575C55.8667 284.151 62.8426 286.64 70.0315 286.628C74.7546 286.635 79.4186 285.563 83.6779 283.491C87.9371 281.419 91.6823 278.4 94.6357 274.658C99.1473 268.972 101.603 261.888 101.594 254.587V237.664H123.644V256.744C123.644 286.082 100.138 309.951 71.2354 309.951C42.3294 309.951 18.8169 286.082 18.8169 256.744C18.8169 227.4 42.3294 203.531 71.2354 203.531H255.782C284.674 203.531 308.186 227.4 308.186 256.744C308.183 286.082 284.671 309.951 255.765 309.951ZM240.315 254.58V237.66H256.972C266.164 237.66 273.632 245.248 273.632 254.573C273.632 263.898 266.164 271.496 256.972 271.496C252.555 271.491 248.32 269.706 245.197 266.535C242.075 263.364 240.319 259.064 240.315 254.58ZM86.6882 237.66V254.58C86.6828 259.065 84.9262 263.364 81.8032 266.537C78.6803 269.709 74.4459 271.495 70.0281 271.503C60.8394 271.503 53.3613 263.905 53.3613 254.58C53.3613 245.255 60.8394 237.664 70.0281 237.664L86.6882 237.66Z" fill="#4A6CF7"/>
<path d="M508.778 253.408C508.778 244.861 512.078 240.573 518.616 240.573C520.052 240.573 521.457 240.749 522.832 241.102C524.237 241.454 525.367 241.895 526.223 242.453V266.626C525.551 266.743 524.695 266.831 523.626 266.919C522.587 267.008 521.426 267.066 520.204 267.066C516.416 267.066 513.575 265.803 511.65 263.307C509.756 260.81 508.778 257.52 508.778 253.408ZM540.063 275.701V208L526.223 210.144V231.38C524.695 230.734 523.168 230.234 521.64 229.852C520.113 229.5 518.402 229.324 516.477 229.324C513.025 229.324 509.939 229.882 507.251 231.027C504.562 232.143 502.301 233.788 500.438 235.932C498.574 238.077 497.169 240.661 496.161 243.745C495.183 246.8 494.694 250.236 494.694 254.025C494.694 257.785 495.244 261.163 496.405 264.158C497.535 267.154 499.185 269.71 501.354 271.824C503.523 273.939 506.181 275.555 509.359 276.7C512.505 277.816 516.08 278.374 520.113 278.374C521.762 278.374 523.534 278.316 525.337 278.169C527.17 278.022 528.973 277.816 530.745 277.581C532.486 277.346 534.166 277.053 535.785 276.73C537.405 276.406 538.81 276.083 540.063 275.701ZM566.856 277.229V230.322H553.047V277.229H566.856ZM568.17 216.753C568.17 214.315 567.345 212.406 565.695 210.996C564.076 209.586 562.151 208.911 559.921 208.911C557.691 208.911 555.766 209.586 554.116 210.996C552.466 212.406 551.642 214.315 551.642 216.753C551.642 219.191 552.466 221.1 554.116 222.51C555.766 223.89 557.691 224.595 559.921 224.595C562.151 224.595 564.076 223.89 565.695 222.51C567.345 221.1 568.17 219.191 568.17 216.753ZM591.633 252.263C591.633 248.68 592.55 245.742 594.322 243.422C596.124 241.102 598.843 239.956 602.509 239.956C603.731 239.956 604.831 239.986 605.748 240.074C606.664 240.162 607.489 240.279 608.161 240.397V261.633C607.306 262.102 606.237 262.514 605.014 262.866C603.762 263.219 602.448 263.395 601.012 263.395C594.78 263.395 591.633 259.694 591.633 252.263ZM621.97 271.355V231.908C620.748 231.556 619.343 231.204 617.754 230.88C616.196 230.557 614.516 230.293 612.805 230.029C611.064 229.794 609.322 229.617 607.55 229.471C605.778 229.324 604.067 229.236 602.418 229.236C598.507 229.236 595.024 229.794 591.908 230.88C588.822 231.997 586.225 233.553 584.087 235.58C581.948 237.607 580.329 240.015 579.199 242.835C578.099 245.654 577.549 248.797 577.549 252.263C577.549 259.165 579.321 264.511 582.926 268.359C586.5 272.177 591.664 274.115 598.415 274.115C600.279 274.115 601.99 273.939 603.579 273.616C605.137 273.293 606.664 272.794 608.161 272.148V273.851C608.161 276.465 607.336 278.609 605.687 280.254C604.067 281.928 601.257 282.751 597.316 282.751C594.26 282.751 591.572 282.516 589.189 282.046C586.806 281.576 584.515 280.93 582.376 280.078L579.962 291.239C582.498 292.061 585.248 292.737 588.211 293.236C591.175 293.736 594.138 294 597.102 294C605.595 294 611.858 292.15 615.891 288.419C619.954 284.719 621.97 279.02 621.97 271.355ZM648.794 277.229V230.322H634.985V277.229H648.794ZM650.108 216.753C650.108 214.315 649.283 212.406 647.633 210.996C645.984 209.586 644.059 208.911 641.829 208.911C639.598 208.911 637.674 209.586 636.054 210.996C634.405 212.406 633.58 214.315 633.58 216.753C633.58 219.191 634.405 221.1 636.054 222.51C637.674 223.89 639.598 224.595 641.829 224.595C644.059 224.595 645.984 223.89 647.633 222.51C649.283 221.1 650.108 219.191 650.108 216.753ZM661.32 218.633V258.049C661.32 261.074 661.626 263.835 662.206 266.332C662.787 268.858 663.826 270.973 665.323 272.735C666.789 274.468 668.775 275.848 671.249 276.818C673.724 277.816 676.84 278.286 680.629 278.286C683.592 278.286 686.097 278.051 688.144 277.581C690.191 277.111 692.024 276.553 693.705 275.878L691.749 265.539C690.466 266.009 689.03 266.391 687.442 266.655C685.853 266.919 684.325 267.066 682.859 267.066C679.743 267.066 677.696 266.214 676.688 264.57C675.649 262.895 675.16 260.663 675.16 257.873V241.366H691.749V230.322H675.16V216.488L661.32 218.633ZM719.765 267.947C717.229 267.947 715.243 267.536 713.777 266.743C712.341 265.95 711.608 264.511 711.608 262.426C711.608 261.339 711.852 260.458 712.341 259.753C712.86 259.018 713.532 258.46 714.388 258.049C715.274 257.638 716.251 257.344 717.412 257.197C718.543 257.051 719.765 256.992 721.078 256.992C721.995 256.992 723.034 257.051 724.134 257.168C725.264 257.286 726.089 257.403 726.639 257.52V267.595C725.906 267.712 724.897 267.801 723.675 267.859C722.423 267.918 721.14 267.947 719.765 267.947ZM718.665 229.059C717.046 229.059 715.457 229.148 713.899 229.294C712.31 229.441 710.813 229.617 709.377 229.823C707.972 230.029 706.658 230.264 705.436 230.528C704.245 230.792 703.237 231.057 702.412 231.292L704.184 241.983C705.864 241.395 707.85 240.926 710.141 240.602C712.402 240.279 714.724 240.133 717.076 240.133C720.62 240.133 723.095 240.808 724.5 242.159C725.936 243.54 726.639 245.361 726.639 247.622V248.856C725.783 248.621 724.653 248.445 723.248 248.268C721.873 248.122 720.284 248.063 718.482 248.063C715.824 248.063 713.257 248.327 710.783 248.827C708.308 249.326 706.108 250.148 704.184 251.264C702.259 252.41 700.731 253.908 699.601 255.817C698.44 257.726 697.89 260.046 697.89 262.778C697.89 265.627 698.379 268.036 699.357 270.003C700.365 271.971 701.77 273.557 703.634 274.762C705.497 275.995 707.697 276.876 710.263 277.405C712.83 277.934 715.701 278.198 718.848 278.198C723.859 278.198 728.136 277.934 731.649 277.376C735.193 276.788 737.943 276.318 739.898 275.878V248.239C739.898 245.331 739.562 242.688 738.89 240.309C738.218 237.93 737.057 235.903 735.407 234.229C733.757 232.555 731.588 231.292 728.869 230.411C726.15 229.5 722.759 229.059 718.665 229.059ZM771.916 278.11L773.871 267.154C772.191 267.037 770.877 266.773 769.869 266.332C768.891 265.921 768.127 265.392 767.608 264.746C767.089 264.1 766.722 263.277 766.539 262.337C766.355 261.368 766.264 260.311 766.264 259.107V208L752.424 210.144V261.809C752.424 264.305 752.699 266.538 753.218 268.535C753.738 270.532 754.746 272.206 756.182 273.616C757.648 275.026 759.634 276.113 762.139 276.876C764.645 277.64 767.913 278.051 771.916 278.11Z" fill="#F7F7F7"/>
</g>
<defs>
<filter id="filter0_d_3_4" x="-4" y="0" width="869" height="333" filterUnits="userSpaceOnUse" color-interpolation-filters="sRGB">
<feFlood flood-opacity="0" result="BackgroundImageFix"/>
<feColorMatrix in="SourceAlpha" type="matrix" values="0 0 0 0 0 0 0 0 0 0 0 0 0 0 0 0 0 0 127 0" result="hardAlpha"/>
<feOffset dy="4"/>
<feGaussianBlur stdDeviation="2"/>
<feComposite in2="hardAlpha" operator="out"/>
<feColorMatrix type="matrix" values="0 0 0 0 0 0 0 0 0 0 0 0 0 0 0 0 0 0 0.25 0"/>
<feBlend mode="normal" in2="BackgroundImageFix" result="effect1_dropShadow_3_4"/>
<feBlend mode="normal" in="SourceGraphic" in2="effect1_dropShadow_3_4" result="shape"/>
</filter>
</defs>
</svg>
