<svg width="869" height="333" viewBox="0 0 869 333" fill="none" xmlns="http://www.w3.org/2000/svg">
<g filter="url(#filter0_d_3_4)">
<path d="M426.425 28L457.97 163H489.303L513.701 85.0255L536.428 163H567.761L599.095 28H565.86L547.148 109.555L523.806 28H496.046V47.0723L477.527 109.345L459.66 28H426.425ZM653.347 113.328V163H687.408V113.328L735.993 28H700.664L670.387 83.9723L640.091 28H604.762L653.347 113.328ZM743.774 28V163H777.643V82.4979L835.257 163H864.497V28H830.416V108.713L772.802 28H743.774Z" fill="#4A6CF7"/>
<path d="M305.239 203.531C293.012 193.778 277.778 188.473 262.078 188.499H246.242V136.504H262.078C278.421 136.504 293.424 130.87 305.239 121.466C309.131 118.361 312.676 114.852 315.812 110.999C325.318 99.2987 331 84.44 331 68.2556C331 52.0712 325.314 37.2125 315.812 25.5126C312.674 21.6605 309.129 18.1515 305.239 15.0452C293.014 5.28768 277.78 -0.0227608 262.078 7.3331e-05C245.75 7.3331e-05 230.739 5.63768 218.932 15.0383C215.035 18.1373 211.49 21.6471 208.359 25.5057C198.507 37.6124 193.147 52.6998 193.174 68.2487V87.333H141.833V68.2521C141.833 52.0677 136.15 37.209 126.644 25.5091C123.513 21.6522 119.969 18.1426 116.075 15.0418C103.85 5.28745 88.6173 -0.0215519 72.9181 7.3331e-05C56.5757 7.3331e-05 41.579 5.63768 29.7615 15.0383C25.868 18.1427 22.3222 21.6519 19.185 25.5057C9.68565 37.2055 4 52.0677 4 68.2487C4 84.4296 9.68914 99.2918 19.185 110.992C22.3186 114.849 25.8647 118.358 29.7615 121.459C41.9858 131.214 57.2188 136.522 72.9181 136.497H88.7619V188.492H72.9181C56.5757 188.492 41.579 194.123 29.7615 203.524C25.8645 206.628 22.3184 210.141 19.185 214.001C9.68565 225.698 4 240.55 4 256.738C4 272.925 9.68914 287.774 19.185 299.481C22.3177 303.337 25.864 306.846 29.7615 309.944C41.9852 319.702 57.2181 325.012 72.9181 324.99C89.2534 324.99 104.261 319.345 116.071 309.944C119.967 306.847 123.511 303.338 126.641 299.481C136.495 287.375 141.857 272.287 141.829 256.738V237.664H193.171V256.744C193.147 272.293 198.507 287.379 208.356 299.487C211.485 303.347 215.03 306.855 218.929 309.951C231.149 319.708 246.378 325.019 262.075 325C278.417 325 293.421 319.355 305.235 309.951C309.128 306.849 312.673 303.341 315.808 299.487C325.318 287.781 330.993 272.929 330.993 256.744C330.993 240.56 325.307 225.701 315.808 214.008C312.674 210.151 309.131 206.638 305.239 203.531ZM208.359 136.504V68.2452C208.359 38.9041 232.454 15.0349 262.078 15.0349C291.709 15.0349 315.812 38.9041 315.812 68.2452C315.812 97.5863 291.709 121.456 262.078 121.456H254.357V121.262H246.412V121.072H246.242V102.444H263.316C270.685 102.456 277.836 99.9668 283.577 95.3907C285.407 93.9334 287.073 92.284 288.544 90.4711C293.17 84.7882 295.689 77.7061 295.68 70.4063C295.68 62.8113 293.006 55.8307 288.544 50.3416C287.075 48.5263 285.41 46.8765 283.577 45.422C277.837 40.8425 270.686 38.3505 263.316 38.3621C258.475 38.3582 253.694 39.4329 249.329 41.5066C244.964 43.5803 241.126 46.5998 238.098 50.3416C233.469 56.0228 230.95 63.106 230.962 70.4063V188.489H208.359V136.504ZM246.242 87.3295V70.4098C246.242 61.0851 253.9 53.4935 263.316 53.4935C267.844 53.499 272.185 55.2831 275.387 58.4544C278.589 61.6258 280.389 65.9253 280.394 70.4098C280.39 74.8949 278.59 79.1953 275.388 82.3674C272.186 85.5395 267.845 87.3241 263.316 87.3295H246.242ZM141.833 102.447H193.171V121.076H141.833V102.447ZM141.833 136.504H193.171V188.496H141.833V136.504ZM80.6465 121.269V121.459H72.9181C43.2871 121.459 19.185 97.5898 19.185 68.2487C19.185 38.9075 43.2871 15.0383 72.9181 15.0383C102.546 15.0383 126.641 38.9075 126.641 68.2487V188.492H104.038V70.4167C104.038 62.8216 101.364 55.8411 96.9052 50.3519C93.8771 46.6102 90.0381 43.5909 85.6724 41.5172C81.3066 39.4436 76.5259 38.3688 71.684 38.3724C64.314 38.362 57.163 40.8538 51.4234 45.4324C49.5905 46.8869 47.9246 48.5367 46.4559 50.3519C41.8331 56.0363 39.3171 63.118 39.327 70.4167C39.327 78.0152 42.0008 84.9889 46.4559 90.4815C47.9274 92.2943 49.5929 93.9438 51.4234 95.401C57.1648 99.9756 64.3151 102.465 71.684 102.454H88.7619V121.273L80.6465 121.269ZM88.7619 70.4098V87.333H71.684C67.1545 87.3275 62.8122 85.5431 59.6093 82.3713C56.4065 79.1994 54.6047 74.899 54.5992 70.4133C54.5992 61.0886 62.2649 53.497 71.684 53.497C76.2119 53.5015 80.5531 55.2849 83.7548 58.4557C86.9565 61.6265 88.7573 65.9256 88.7619 70.4098ZM262.078 309.951C232.454 309.951 208.359 286.082 208.359 256.744V237.664H230.962V254.587C230.962 262.185 233.633 269.176 238.098 274.658C241.127 278.398 244.965 281.416 249.331 283.487C253.696 285.559 258.475 286.632 263.316 286.628C270.685 286.642 277.837 284.152 283.577 279.575C285.405 278.117 287.071 276.469 288.544 274.658C293.171 268.973 295.69 261.889 295.68 254.587C295.689 247.288 293.17 240.207 288.544 234.525C285.517 230.78 281.678 227.759 277.31 225.685C272.943 223.611 268.16 222.538 263.316 222.546H71.6875C66.8441 222.539 62.0612 223.612 57.6938 225.686C53.3265 227.76 49.4867 230.781 46.4594 234.525C41.8366 240.208 39.3205 247.289 39.3305 254.587C39.3305 262.185 42.0043 269.176 46.4594 274.658C47.927 276.461 49.5933 278.111 51.4269 279.575C57.1675 284.151 64.3183 286.64 71.6875 286.628C76.529 286.635 81.31 285.563 85.6761 283.491C90.0421 281.419 93.8812 278.4 96.9087 274.658C101.533 268.972 104.051 261.888 104.041 254.587V237.664H126.644V256.744C126.644 286.082 102.549 309.951 72.9215 309.951C43.2906 309.951 19.1885 286.082 19.1885 256.744C19.1885 227.4 43.2906 203.531 72.9215 203.531H262.096C291.713 203.531 315.815 227.4 315.815 256.744C315.812 286.082 291.709 309.951 262.078 309.951ZM246.242 254.58V237.66H263.316C272.739 237.66 280.394 245.248 280.394 254.573C280.394 263.898 272.739 271.496 263.316 271.496C258.788 271.491 254.447 269.706 251.246 266.535C248.045 263.364 246.245 259.064 246.242 254.58ZM88.7619 237.66V254.58C88.7564 259.065 86.9557 263.364 83.7544 266.537C80.5532 269.709 76.2126 271.495 71.684 271.503C62.2649 271.503 54.5992 263.905 54.5992 254.58C54.5992 245.255 62.2649 237.664 71.684 237.664L88.7619 237.66Z" fill="#4A6CF7"/>
<path d="M512.778 253.408C512.778 244.861 516.078 240.573 522.616 240.573C524.052 240.573 525.457 240.749 526.832 241.102C528.237 241.454 529.367 241.895 530.223 242.453V266.626C529.551 266.743 528.695 266.831 527.626 266.919C526.587 267.008 525.426 267.066 524.204 267.066C520.416 267.066 517.575 265.803 515.65 263.307C513.756 260.81 512.778 257.52 512.778 253.408ZM544.063 275.702V208L530.223 210.144V231.38C528.695 230.734 527.168 230.234 525.64 229.852C524.113 229.5 522.402 229.324 520.477 229.324C517.025 229.324 513.939 229.882 511.251 231.027C508.562 232.143 506.301 233.788 504.438 235.932C502.574 238.077 501.169 240.661 500.161 243.745C499.183 246.8 498.694 250.236 498.694 254.025C498.694 257.785 499.244 261.163 500.405 264.158C501.535 267.154 503.185 269.71 505.354 271.824C507.523 273.939 510.181 275.555 513.359 276.7C516.505 277.816 520.08 278.374 524.113 278.374C525.762 278.374 527.534 278.316 529.337 278.169C531.17 278.022 532.973 277.816 534.745 277.581C536.486 277.346 538.166 277.053 539.785 276.73C541.405 276.406 542.81 276.083 544.063 275.702ZM570.856 277.229V230.322H557.047V277.229H570.856ZM572.17 216.753C572.17 214.315 571.345 212.406 569.695 210.996C568.076 209.586 566.151 208.911 563.921 208.911C561.691 208.911 559.766 209.586 558.116 210.996C556.466 212.406 555.642 214.315 555.642 216.753C555.642 219.191 556.466 221.1 558.116 222.51C559.766 223.89 561.691 224.595 563.921 224.595C566.151 224.595 568.076 223.89 569.695 222.51C571.345 221.1 572.17 219.191 572.17 216.753ZM595.633 252.263C595.633 248.68 596.55 245.742 598.322 243.422C600.124 241.102 602.843 239.956 606.509 239.956C607.731 239.956 608.831 239.986 609.748 240.074C610.664 240.162 611.489 240.279 612.161 240.397V261.633C611.306 262.102 610.237 262.514 609.014 262.866C607.762 263.219 606.448 263.395 605.012 263.395C598.78 263.395 595.633 259.694 595.633 252.263ZM625.97 271.355V231.908C624.748 231.556 623.343 231.204 621.754 230.88C620.196 230.557 618.516 230.293 616.805 230.029C615.064 229.794 613.322 229.617 611.55 229.471C609.778 229.324 608.067 229.236 606.418 229.236C602.507 229.236 599.024 229.794 595.908 230.88C592.822 231.997 590.225 233.553 588.087 235.58C585.948 237.607 584.329 240.015 583.199 242.835C582.099 245.654 581.549 248.797 581.549 252.263C581.549 259.165 583.321 264.511 586.926 268.359C590.5 272.177 595.664 274.115 602.415 274.115C604.279 274.115 605.99 273.939 607.579 273.616C609.137 273.293 610.664 272.794 612.161 272.148V273.851C612.161 276.465 611.336 278.609 609.687 280.254C608.067 281.928 605.257 282.751 601.316 282.751C598.26 282.751 595.572 282.516 593.189 282.046C590.806 281.576 588.515 280.93 586.376 280.078L583.962 291.239C586.498 292.061 589.248 292.737 592.211 293.236C595.175 293.736 598.138 294 601.102 294C609.595 294 615.858 292.15 619.891 288.419C623.954 284.719 625.97 279.02 625.97 271.355ZM652.794 277.229V230.322H638.985V277.229H652.794ZM654.108 216.753C654.108 214.315 653.283 212.406 651.633 210.996C649.984 209.586 648.059 208.911 645.829 208.911C643.598 208.911 641.674 209.586 640.054 210.996C638.405 212.406 637.58 214.315 637.58 216.753C637.58 219.191 638.405 221.1 640.054 222.51C641.674 223.89 643.598 224.595 645.829 224.595C648.059 224.595 649.984 223.89 651.633 222.51C653.283 221.1 654.108 219.191 654.108 216.753ZM665.32 218.633V258.049C665.32 261.074 665.626 263.835 666.206 266.332C666.787 268.858 667.826 270.973 669.323 272.735C670.789 274.468 672.775 275.848 675.249 276.818C677.724 277.816 680.84 278.286 684.629 278.286C687.592 278.286 690.097 278.051 692.144 277.581C694.191 277.111 696.024 276.553 697.705 275.878L695.749 265.539C694.466 266.009 693.03 266.391 691.442 266.655C689.853 266.919 688.325 267.066 686.859 267.066C683.743 267.066 681.696 266.214 680.688 264.57C679.649 262.895 679.16 260.663 679.16 257.873V241.366H695.749V230.322H679.16V216.488L665.32 218.633ZM723.765 267.947C721.229 267.947 719.243 267.536 717.777 266.743C716.341 265.95 715.608 264.511 715.608 262.426C715.608 261.339 715.852 260.458 716.341 259.753C716.86 259.018 717.532 258.46 718.388 258.049C719.274 257.638 720.251 257.344 721.412 257.197C722.543 257.051 723.765 256.992 725.078 256.992C725.995 256.992 727.034 257.051 728.134 257.168C729.264 257.286 730.089 257.403 730.639 257.52V267.595C729.906 267.712 728.897 267.801 727.675 267.859C726.423 267.918 725.14 267.947 723.765 267.947ZM722.665 229.059C721.046 229.059 719.457 229.148 717.899 229.294C716.31 229.441 714.813 229.617 713.377 229.823C711.972 230.029 710.658 230.264 709.436 230.528C708.245 230.792 707.237 231.057 706.412 231.292L708.184 241.983C709.864 241.395 711.85 240.926 714.141 240.602C716.402 240.279 718.724 240.133 721.076 240.133C724.62 240.133 727.095 240.808 728.5 242.159C729.936 243.54 730.639 245.361 730.639 247.622V248.856C729.783 248.621 728.653 248.445 727.248 248.268C725.873 248.122 724.284 248.063 722.482 248.063C719.824 248.063 717.257 248.327 714.783 248.827C712.308 249.326 710.108 250.148 708.184 251.264C706.259 252.41 704.731 253.908 703.601 255.817C702.44 257.726 701.89 260.046 701.89 262.778C701.89 265.627 702.379 268.036 703.357 270.003C704.365 271.971 705.77 273.557 707.634 274.762C709.497 275.995 711.697 276.876 714.263 277.405C716.83 277.934 719.701 278.198 722.848 278.198C727.859 278.198 732.136 277.934 735.649 277.376C739.193 276.788 741.943 276.318 743.898 275.878V248.239C743.898 245.331 743.562 242.688 742.89 240.309C742.218 237.93 741.057 235.903 739.407 234.229C737.757 232.555 735.588 231.292 732.869 230.411C730.15 229.5 726.759 229.059 722.665 229.059ZM775.916 278.11L777.871 267.154C776.191 267.037 774.877 266.773 773.869 266.332C772.891 265.921 772.127 265.392 771.608 264.746C771.089 264.1 770.722 263.277 770.539 262.337C770.355 261.368 770.264 260.311 770.264 259.107V208L756.424 210.144V261.809C756.424 264.305 756.699 266.538 757.218 268.535C757.738 270.532 758.746 272.206 760.182 273.616C761.648 275.026 763.634 276.113 766.139 276.876C768.644 277.64 771.913 278.051 775.916 278.11Z" fill="#F7F7F7"/>
</g>
<defs>
<filter id="filter0_d_3_4" x="0" y="0" width="869" height="333" filterUnits="userSpaceOnUse" color-interpolation-filters="sRGB">
<feFlood flood-opacity="0" result="BackgroundImageFix"/>
<feColorMatrix in="SourceAlpha" type="matrix" values="0 0 0 0 0 0 0 0 0 0 0 0 0 0 0 0 0 0 127 0" result="hardAlpha"/>
<feOffset dy="4"/>
<feGaussianBlur stdDeviation="2"/>
<feComposite in2="hardAlpha" operator="out"/>
<feColorMatrix type="matrix" values="0 0 0 0 0 0 0 0 0 0 0 0 0 0 0 0 0 0 0.25 0"/>
<feBlend mode="normal" in2="BackgroundImageFix" result="effect1_dropShadow_3_4"/>
<feBlend mode="normal" in="SourceGraphic" in2="effect1_dropShadow_3_4" result="shape"/>
</filter>
</defs>
</svg>
