<svg width="903" height="333" viewBox="0 0 903 333" fill="none" xmlns="http://www.w3.org/2000/svg">
<g filter="url(#filter0_d_3_4)">
<path d="M454 28L485.864 163H517.514L542.159 85.0255L565.115 163H596.766L628.416 28H594.845L575.944 109.555L552.366 28H524.325V47.0723L505.618 109.345L487.571 28H454ZM683.217 113.328V163H717.623V113.328L766.699 28H731.012L700.429 83.9723L669.827 28H634.141L683.217 113.328ZM774.558 28V163H808.77V82.4979L866.967 163H896.502V28H862.077V108.713L803.88 28H774.558Z" fill="#4A6CF7"/>
<path d="M305.239 203.531C293.012 193.778 277.778 188.473 262.078 188.499H246.242V136.504H262.078C278.421 136.504 293.424 130.87 305.239 121.466C309.131 118.361 312.675 114.852 315.812 110.999C325.318 99.2987 331 84.44 331 68.2556C331 52.0712 325.314 37.2125 315.812 25.5126C312.674 21.6605 309.129 18.1515 305.239 15.0452C293.014 5.28768 277.78 -0.0227608 262.078 7.3331e-05C245.75 7.3331e-05 230.739 5.63768 218.932 15.0383C215.035 18.1373 211.49 21.6471 208.359 25.5057C198.507 37.6124 193.147 52.6998 193.174 68.2487V87.333H141.833V68.2521C141.833 52.0677 136.15 37.209 126.644 25.5091C123.513 21.6522 119.969 18.1426 116.075 15.0418C103.85 5.28745 88.6173 -0.0215519 72.9181 7.3331e-05C56.5757 7.3331e-05 41.579 5.63768 29.7615 15.0383C25.868 18.1427 22.3222 21.6519 19.185 25.5057C9.68565 37.2055 4 52.0677 4 68.2487C4 84.4296 9.68914 99.2918 19.185 110.992C22.3186 114.849 25.8647 118.358 29.7615 121.459C41.9858 131.214 57.2188 136.522 72.9181 136.497H88.7619V188.492H72.9181C56.5757 188.492 41.579 194.123 29.7615 203.524C25.8645 206.628 22.3184 210.141 19.185 214.001C9.68565 225.698 4 240.55 4 256.738C4 272.925 9.68914 287.774 19.185 299.481C22.3177 303.337 25.864 306.846 29.7615 309.944C41.9852 319.702 57.2181 325.012 72.9181 324.99C89.2534 324.99 104.261 319.345 116.071 309.944C119.967 306.847 123.511 303.338 126.641 299.481C136.495 287.375 141.857 272.287 141.829 256.738V237.664H193.171V256.744C193.147 272.293 198.507 287.379 208.356 299.487C211.485 303.347 215.03 306.855 218.929 309.951C231.149 319.708 246.378 325.019 262.075 325C278.417 325 293.421 319.355 305.235 309.951C309.128 306.849 312.673 303.341 315.808 299.487C325.318 287.781 330.993 272.929 330.993 256.744C330.993 240.56 325.307 225.701 315.808 214.008C312.674 210.151 309.131 206.638 305.239 203.531ZM208.359 136.504V68.2452C208.359 38.9041 232.454 15.0349 262.078 15.0349C291.709 15.0349 315.812 38.9041 315.812 68.2452C315.812 97.5863 291.709 121.456 262.078 121.456H254.357V121.262H246.412V121.072H246.242V102.444H263.316C270.685 102.456 277.836 99.9668 283.577 95.3907C285.407 93.9334 287.073 92.284 288.544 90.4711C293.17 84.7882 295.689 77.7061 295.68 70.4063C295.68 62.8113 293.006 55.8307 288.544 50.3416C287.075 48.5263 285.41 46.8765 283.577 45.422C277.838 40.8425 270.686 38.3505 263.316 38.3621C258.475 38.3582 253.694 39.4329 249.329 41.5066C244.964 43.5803 241.126 46.5998 238.098 50.3416C233.469 56.0228 230.95 63.106 230.962 70.4063V188.489H208.359V136.504ZM246.242 87.3295V70.4098C246.242 61.0851 253.9 53.4935 263.316 53.4935C267.844 53.499 272.185 55.2831 275.387 58.4544C278.589 61.6258 280.389 65.9253 280.394 70.4098C280.39 74.8949 278.59 79.1953 275.388 82.3674C272.186 85.5395 267.845 87.3241 263.316 87.3295H246.242ZM141.833 102.447H193.171V121.076H141.833V102.447ZM141.833 136.504H193.171V188.496H141.833V136.504ZM80.6465 121.269V121.459H72.9181C43.2871 121.459 19.185 97.5898 19.185 68.2487C19.185 38.9075 43.2871 15.0383 72.9181 15.0383C102.546 15.0383 126.641 38.9075 126.641 68.2487V188.492H104.038V70.4167C104.038 62.8216 101.364 55.8411 96.9052 50.3519C93.8771 46.6102 90.0381 43.5909 85.6724 41.5172C81.3066 39.4436 76.5259 38.3688 71.684 38.3724C64.314 38.362 57.163 40.8538 51.4234 45.4324C49.5905 46.8869 47.9246 48.5367 46.4559 50.3519C41.8331 56.0363 39.3171 63.118 39.327 70.4167C39.327 78.0152 42.0008 84.9889 46.4559 90.4815C47.9274 92.2943 49.5929 93.9438 51.4234 95.401C57.1648 99.9756 64.3151 102.465 71.684 102.454H88.7619V121.273L80.6465 121.269ZM88.7619 70.4098V87.333H71.684C67.1545 87.3275 62.8122 85.5431 59.6093 82.3713C56.4065 79.1994 54.6047 74.899 54.5992 70.4133C54.5992 61.0886 62.2649 53.497 71.684 53.497C76.2119 53.5015 80.5531 55.2849 83.7548 58.4557C86.9565 61.6265 88.7573 65.9256 88.7619 70.4098ZM262.078 309.951C232.454 309.951 208.359 286.082 208.359 256.744V237.664H230.962V254.587C230.962 262.185 233.633 269.176 238.098 274.658C241.127 278.398 244.966 281.416 249.331 283.487C253.696 285.559 258.475 286.632 263.316 286.628C270.685 286.642 277.837 284.152 283.577 279.575C285.405 278.117 287.071 276.469 288.544 274.658C293.171 268.973 295.69 261.889 295.68 254.587C295.689 247.288 293.17 240.207 288.544 234.525C285.517 230.78 281.678 227.759 277.31 225.685C272.943 223.611 268.16 222.538 263.316 222.546H71.6875C66.8441 222.539 62.0612 223.612 57.6938 225.686C53.3265 227.76 49.4867 230.781 46.4594 234.525C41.8366 240.208 39.3205 247.289 39.3305 254.587C39.3305 262.185 42.0043 269.176 46.4594 274.658C47.927 276.461 49.5933 278.111 51.4269 279.575C57.1675 284.151 64.3183 286.64 71.6875 286.628C76.529 286.635 81.31 285.563 85.6761 283.491C90.0421 281.419 93.8812 278.4 96.9087 274.658C101.533 268.972 104.051 261.888 104.041 254.587V237.664H126.644V256.744C126.644 286.082 102.549 309.951 72.9215 309.951C43.2906 309.951 19.1885 286.082 19.1885 256.744C19.1885 227.4 43.2906 203.531 72.9215 203.531H262.096C291.713 203.531 315.815 227.4 315.815 256.744C315.812 286.082 291.709 309.951 262.078 309.951ZM246.242 254.58V237.66H263.316C272.739 237.66 280.394 245.248 280.394 254.573C280.394 263.898 272.739 271.496 263.316 271.496C258.788 271.491 254.447 269.706 251.246 266.535C248.045 263.364 246.245 259.064 246.242 254.58ZM88.7619 237.66V254.58C88.7564 259.065 86.9557 263.364 83.7544 266.537C80.5532 269.709 76.2126 271.495 71.684 271.503C62.2649 271.503 54.5992 263.905 54.5992 254.58C54.5992 245.255 62.2649 237.664 71.684 237.664L88.7619 237.66Z" fill="#4A6CF7"/>
<path d="M555.227 253.408C555.227 244.861 558.559 240.573 565.163 240.573C566.614 240.573 568.033 240.749 569.422 241.102C570.842 241.454 571.984 241.895 572.848 242.453V266.626C572.169 266.743 571.305 266.831 570.225 266.919C569.175 267.008 568.003 267.066 566.768 267.066C562.942 267.066 560.072 265.803 558.127 263.307C556.214 260.81 555.227 257.52 555.227 253.408ZM586.827 275.702V208L572.848 210.144V231.38C571.305 230.734 569.762 230.234 568.219 229.852C566.676 229.5 564.947 229.324 563.003 229.324C559.516 229.324 556.399 229.882 553.684 231.027C550.968 232.143 548.684 233.788 546.802 235.932C544.919 238.077 543.5 240.661 542.481 243.745C541.494 246.8 541 250.236 541 254.025C541 257.785 541.555 261.163 542.728 264.158C543.87 267.154 545.536 269.71 547.728 271.824C549.919 273.939 552.603 275.555 555.813 276.7C558.991 277.816 562.602 278.374 566.676 278.374C568.342 278.374 570.132 278.316 571.953 278.169C573.804 278.022 575.625 277.816 577.415 277.581C579.174 277.346 580.871 277.053 582.507 276.73C584.142 276.406 585.562 276.083 586.827 275.702ZM613.892 277.229V230.322H599.943V277.229H613.892ZM615.219 216.753C615.219 214.315 614.385 212.406 612.719 210.996C611.083 209.586 609.139 208.911 606.886 208.911C604.634 208.911 602.689 209.586 601.023 210.996C599.357 212.406 598.523 214.315 598.523 216.753C598.523 219.191 599.357 221.1 601.023 222.51C602.689 223.89 604.634 224.595 606.886 224.595C609.139 224.595 611.083 223.89 612.719 222.51C614.385 221.1 615.219 219.191 615.219 216.753ZM638.919 252.263C638.919 248.68 639.845 245.742 641.635 243.422C643.456 241.102 646.202 239.956 649.905 239.956C651.14 239.956 652.251 239.986 653.177 240.074C654.102 240.162 654.936 240.279 655.615 240.397V261.633C654.75 262.102 653.67 262.514 652.436 262.866C651.171 263.219 649.844 263.395 648.393 263.395C642.098 263.395 638.919 259.694 638.919 252.263ZM669.563 271.355V231.908C668.329 231.556 666.909 231.204 665.305 230.88C663.731 230.557 662.033 230.293 660.305 230.029C658.546 229.794 656.787 229.617 654.997 229.471C653.207 229.324 651.479 229.236 649.813 229.236C645.863 229.236 642.345 229.794 639.197 230.88C636.08 231.997 633.457 233.553 631.297 235.58C629.137 237.607 627.501 240.015 626.359 242.835C625.248 245.654 624.693 248.797 624.693 252.263C624.693 259.165 626.483 264.511 630.124 268.359C633.735 272.177 638.95 274.115 645.77 274.115C647.653 274.115 649.381 273.939 650.986 273.616C652.559 273.293 654.102 272.794 655.615 272.148V273.851C655.615 276.465 654.781 278.609 653.115 280.254C651.479 281.928 648.64 282.751 644.659 282.751C641.573 282.751 638.858 282.516 636.45 282.046C634.043 281.576 631.729 280.93 629.569 280.078L627.131 291.239C629.692 292.061 632.469 292.737 635.463 293.236C638.456 293.736 641.45 294 644.443 294C653.022 294 659.349 292.15 663.422 288.419C667.527 284.719 669.563 279.02 669.563 271.355ZM696.659 277.229V230.322H682.71V277.229H696.659ZM697.986 216.753C697.986 214.315 697.152 212.406 695.486 210.996C693.819 209.586 691.875 208.911 689.622 208.911C687.37 208.911 685.425 209.586 683.79 210.996C682.123 212.406 681.29 214.315 681.29 216.753C681.29 219.191 682.123 221.1 683.79 222.51C685.425 223.89 687.37 224.595 689.622 224.595C691.875 224.595 693.819 223.89 695.486 222.51C697.152 221.1 697.986 219.191 697.986 216.753ZM709.311 218.633V258.049C709.311 261.074 709.62 263.835 710.206 266.332C710.793 268.858 711.842 270.973 713.354 272.735C714.835 274.468 716.841 275.848 719.341 276.818C721.84 277.816 724.988 278.286 728.815 278.286C731.808 278.286 734.339 278.051 736.406 277.581C738.474 277.111 740.326 276.553 742.023 275.878L740.048 265.539C738.752 266.009 737.301 266.391 735.697 266.655C734.092 266.919 732.549 267.066 731.068 267.066C727.92 267.066 725.852 266.214 724.834 264.57C723.785 262.895 723.291 260.663 723.291 257.873V241.366H740.048V230.322H723.291V216.488L709.311 218.633ZM768.347 267.947C765.785 267.947 763.779 267.536 762.298 266.743C760.848 265.95 760.107 264.511 760.107 262.426C760.107 261.339 760.354 260.458 760.848 259.753C761.372 259.018 762.051 258.46 762.915 258.049C763.81 257.638 764.798 257.344 765.97 257.197C767.112 257.051 768.347 256.992 769.674 256.992C770.599 256.992 771.649 257.051 772.76 257.168C773.902 257.286 774.735 257.403 775.29 257.52V267.595C774.55 267.712 773.531 267.801 772.297 267.859C771.032 267.918 769.735 267.947 768.347 267.947ZM767.236 229.059C765.6 229.059 763.995 229.148 762.422 229.294C760.817 229.441 759.305 229.617 757.854 229.823C756.435 230.029 755.108 230.264 753.873 230.528C752.67 230.792 751.651 231.057 750.818 231.292L752.608 241.983C754.305 241.395 756.311 240.926 758.626 240.602C760.909 240.279 763.255 240.133 765.631 240.133C769.211 240.133 771.71 240.808 773.13 242.159C774.58 243.54 775.29 245.361 775.29 247.622V248.856C774.426 248.621 773.284 248.445 771.865 248.268C770.476 248.122 768.871 248.063 767.051 248.063C764.366 248.063 761.773 248.327 759.274 248.827C756.774 249.326 754.552 250.148 752.608 251.264C750.664 252.41 749.121 253.908 747.979 255.817C746.806 257.726 746.251 260.046 746.251 262.778C746.251 265.627 746.745 268.036 747.732 270.003C748.75 271.971 750.17 273.557 752.053 274.762C753.935 275.995 756.157 276.876 758.749 277.405C761.341 277.934 764.242 278.198 767.421 278.198C772.482 278.198 776.802 277.934 780.351 277.376C783.931 276.788 786.708 276.318 788.684 275.878V248.239C788.684 245.331 788.344 242.688 787.665 240.309C786.986 237.93 785.814 235.903 784.147 234.229C782.481 232.555 780.29 231.292 777.543 230.411C774.796 229.5 771.371 229.059 767.236 229.059ZM821.025 278.11L823 267.154C821.303 267.037 819.976 266.773 818.957 266.332C817.97 265.921 817.198 265.392 816.674 264.746C816.149 264.1 815.779 263.277 815.594 262.337C815.408 261.368 815.316 260.311 815.316 259.107V208L801.336 210.144V261.809C801.336 264.305 801.614 266.538 802.139 268.535C802.663 270.532 803.682 272.206 805.132 273.616C806.613 275.026 808.619 276.113 811.15 276.876C813.68 277.64 816.982 278.051 821.025 278.11Z" fill="#F7F7F7"/>
</g>
<defs>
<filter id="filter0_d_3_4" x="0" y="0" width="907" height="333" filterUnits="userSpaceOnUse" color-interpolation-filters="sRGB">
<feFlood flood-opacity="0" result="BackgroundImageFix"/>
<feColorMatrix in="SourceAlpha" type="matrix" values="0 0 0 0 0 0 0 0 0 0 0 0 0 0 0 0 0 0 127 0" result="hardAlpha"/>
<feOffset dy="4"/>
<feGaussianBlur stdDeviation="2"/>
<feComposite in2="hardAlpha" operator="out"/>
<feColorMatrix type="matrix" values="0 0 0 0 0 0 0 0 0 0 0 0 0 0 0 0 0 0 0.25 0"/>
<feBlend mode="normal" in2="BackgroundImageFix" result="effect1_dropShadow_3_4"/>
<feBlend mode="normal" in="SourceGraphic" in2="effect1_dropShadow_3_4" result="shape"/>
</filter>
</defs>
</svg>
