<svg width="861" height="325" viewBox="0 0 861 325" fill="none" xmlns="http://www.w3.org/2000/svg">
<path d="M307.687 203.531C295.198 193.778 279.638 188.473 263.603 188.499H247.427V136.504H263.603C280.295 136.504 295.62 130.87 307.687 121.466C311.663 118.361 315.283 114.852 318.486 110.999C328.196 99.2987 334 84.44 334 68.2556C334 52.0712 328.193 37.2125 318.486 25.5126C315.281 21.6605 311.661 18.1515 307.687 15.0452C295.2 5.28768 279.64 -0.0227608 263.603 7.3331e-05C246.925 7.3331e-05 231.593 5.63768 219.533 15.0383C215.553 18.1373 211.932 21.6471 208.734 25.5057C198.671 37.6124 193.196 52.6998 193.224 68.2487V87.333H140.783V68.2521C140.783 52.0677 134.979 37.209 125.27 25.5091C122.071 21.6522 118.452 18.1426 114.474 15.0418C101.987 5.28745 86.4287 -0.0215519 70.3934 7.3331e-05C53.7012 7.3331e-05 38.3834 5.63768 26.313 15.0383C22.3361 18.1427 18.7144 21.6519 15.51 25.5057C5.80736 37.2055 0 52.0677 0 68.2487C0 84.4296 5.81092 99.2918 15.51 110.992C18.7107 114.849 22.3328 118.358 26.313 121.459C38.799 131.214 54.3581 136.522 70.3934 136.497H86.5764V188.492H70.3934C53.7012 188.492 38.3834 194.123 26.313 203.524C22.3326 206.628 18.7105 210.141 15.51 214.001C5.80736 225.698 0 240.55 0 256.738C0 272.925 5.81092 287.774 15.51 299.481C18.7098 303.337 22.332 306.846 26.313 309.944C38.7983 319.702 54.3573 325.012 70.3934 324.99C87.0784 324.99 102.407 319.345 114.47 309.944C118.45 306.847 122.07 303.338 125.266 299.481C135.331 287.375 140.808 272.287 140.78 256.738V237.664H193.22V256.744C193.197 272.293 198.671 287.379 208.73 299.487C211.926 303.347 215.547 306.855 219.53 309.951C232.012 319.708 247.567 325.019 263.599 325C280.292 325 295.617 319.355 307.683 309.951C311.66 306.849 315.281 303.341 318.483 299.487C328.196 287.781 333.993 272.929 333.993 256.744C333.993 240.56 328.186 225.701 318.483 214.008C315.282 210.151 311.663 206.638 307.687 203.531ZM208.734 136.504V68.2452C208.734 38.9041 233.345 15.0349 263.603 15.0349C293.868 15.0349 318.486 38.9041 318.486 68.2452C318.486 97.5863 293.868 121.456 263.603 121.456H255.716V121.262H247.602V121.072H247.427V102.444H264.867C272.394 102.456 279.698 99.9668 285.561 95.3907C287.431 93.9334 289.132 92.284 290.635 90.4711C295.361 84.7882 297.933 77.7061 297.924 70.4063C297.924 62.8113 295.193 55.8307 290.635 50.3416C289.135 48.5263 287.434 46.8765 285.561 45.422C279.699 40.8425 272.395 38.3505 264.867 38.3621C259.922 38.3582 255.039 39.4329 250.581 41.5066C246.122 43.5803 242.202 46.5998 239.11 50.3416C234.381 56.0228 231.808 63.106 231.821 70.4063V188.489H208.734V136.504ZM247.427 87.3295V70.4098C247.427 61.0851 255.25 53.4935 264.867 53.4935C269.492 53.499 273.926 55.2831 277.196 58.4544C280.467 61.6258 282.306 65.9253 282.311 70.4098C282.307 74.8949 280.468 79.1953 277.198 82.3674C273.927 85.5395 269.493 87.3241 264.867 87.3295H247.427ZM140.783 102.447H193.22V121.076H140.783V102.447ZM140.783 136.504H193.22V188.496H140.783V136.504ZM78.2873 121.269V121.459H70.3934C40.1281 121.459 15.51 97.5898 15.51 68.2487C15.51 38.9075 40.1281 15.0383 70.3934 15.0383C100.655 15.0383 125.266 38.9075 125.266 68.2487V188.492H102.179V70.4167C102.179 62.8216 99.448 55.8411 94.894 50.3519C91.8011 46.6102 87.8799 43.5909 83.4207 41.5172C78.9615 39.4436 74.0785 38.3688 69.1329 38.3724C61.6051 38.362 54.3011 40.8538 48.4386 45.4324C46.5664 46.8869 44.8649 48.5367 43.3647 50.3519C38.643 56.0363 36.0731 63.118 36.0833 70.4167C36.0833 78.0152 38.8143 84.9889 43.3647 90.4815C44.8677 92.2943 46.5689 93.9438 48.4386 95.401C54.3029 99.9756 61.6063 102.465 69.1329 102.454H86.5764V121.273L78.2873 121.269ZM86.5764 70.4098V87.333H69.1329C64.5065 87.3275 60.0711 85.5431 56.7997 82.3713C53.5283 79.1994 51.688 74.899 51.6823 70.4133C51.6823 61.0886 59.5121 53.497 69.1329 53.497C73.7578 53.5015 78.1918 55.2849 81.4621 58.4557C84.7324 61.6265 86.5717 65.9256 86.5764 70.4098ZM263.603 309.951C233.345 309.951 208.734 286.082 208.734 256.744V237.664H231.821V254.587C231.821 262.185 234.548 269.176 239.11 274.658C242.203 278.398 246.124 281.416 250.582 283.487C255.041 285.559 259.923 286.632 264.867 286.628C272.394 286.642 279.699 284.152 285.561 279.575C287.429 278.117 289.13 276.469 290.635 274.658C295.362 268.973 297.934 261.889 297.924 254.587C297.933 247.288 295.36 240.207 290.635 234.525C287.544 230.78 283.622 227.759 279.161 225.685C274.7 223.611 269.814 222.538 264.867 222.546H69.1365C64.1893 222.539 59.3041 223.612 54.8432 225.686C50.3824 227.76 46.4604 230.781 43.3683 234.525C38.6466 240.208 36.0766 247.289 36.0868 254.587C36.0868 262.185 38.8178 269.176 43.3683 274.658C44.8673 276.461 46.5693 278.111 48.4422 279.575C54.3056 284.151 61.6095 286.64 69.1365 286.628C74.0816 286.635 78.965 285.563 83.4245 283.491C87.884 281.419 91.8053 278.4 94.8975 274.658C99.6213 268.972 102.192 261.888 102.183 254.587V237.664H125.27V256.744C125.27 286.082 100.659 309.951 70.3969 309.951C40.1317 309.951 15.5136 286.082 15.5136 256.744C15.5136 227.4 40.1317 203.531 70.3969 203.531H263.621C293.872 203.531 318.49 227.4 318.49 256.744C318.486 286.082 293.868 309.951 263.603 309.951ZM247.427 254.58V237.66H264.867C274.491 237.66 282.311 245.248 282.311 254.573C282.311 263.898 274.491 271.496 264.867 271.496C260.242 271.491 255.809 269.706 252.539 266.535C249.269 263.364 247.431 259.064 247.427 254.58ZM86.5764 237.66V254.58C86.5707 259.065 84.7315 263.364 81.4617 266.537C78.192 269.709 73.7585 271.495 69.1329 271.503C59.5121 271.503 51.6823 263.905 51.6823 254.58C51.6823 245.255 59.5121 237.664 69.1329 237.664L86.5764 237.66Z" fill="#4A6CF7"/>
<path d="M508.778 253.408C508.778 244.861 512.078 240.573 518.616 240.573C520.052 240.573 521.457 240.749 522.832 241.102C524.237 241.454 525.367 241.895 526.223 242.453V266.626C525.551 266.743 524.695 266.831 523.626 266.919C522.587 267.008 521.426 267.066 520.204 267.066C516.416 267.066 513.575 265.803 511.65 263.307C509.756 260.81 508.778 257.52 508.778 253.408ZM540.063 275.701V208L526.223 210.144V231.38C524.695 230.734 523.168 230.234 521.64 229.852C520.113 229.5 518.402 229.324 516.477 229.324C513.025 229.324 509.939 229.882 507.251 231.027C504.562 232.143 502.301 233.788 500.438 235.932C498.574 238.077 497.169 240.661 496.161 243.745C495.183 246.8 494.694 250.236 494.694 254.025C494.694 257.785 495.244 261.163 496.405 264.158C497.535 267.154 499.185 269.71 501.354 271.824C503.523 273.939 506.181 275.555 509.359 276.7C512.505 277.816 516.08 278.374 520.113 278.374C521.762 278.374 523.534 278.316 525.337 278.169C527.17 278.022 528.973 277.816 530.745 277.581C532.486 277.346 534.166 277.053 535.785 276.73C537.405 276.406 538.81 276.083 540.063 275.701ZM566.856 277.229V230.322H553.047V277.229H566.856ZM568.17 216.753C568.17 214.315 567.345 212.406 565.695 210.996C564.076 209.586 562.151 208.911 559.921 208.911C557.691 208.911 555.766 209.586 554.116 210.996C552.466 212.406 551.642 214.315 551.642 216.753C551.642 219.191 552.466 221.1 554.116 222.51C555.766 223.89 557.691 224.595 559.921 224.595C562.151 224.595 564.076 223.89 565.695 222.51C567.345 221.1 568.17 219.191 568.17 216.753ZM591.633 252.263C591.633 248.68 592.55 245.742 594.322 243.422C596.124 241.102 598.843 239.956 602.509 239.956C603.731 239.956 604.831 239.986 605.748 240.074C606.664 240.162 607.489 240.279 608.161 240.397V261.633C607.306 262.102 606.237 262.514 605.014 262.866C603.762 263.219 602.448 263.395 601.012 263.395C594.78 263.395 591.633 259.694 591.633 252.263ZM621.97 271.355V231.908C620.748 231.556 619.343 231.204 617.754 230.88C616.196 230.557 614.516 230.293 612.805 230.029C611.064 229.794 609.322 229.617 607.55 229.471C605.778 229.324 604.067 229.236 602.418 229.236C598.507 229.236 595.024 229.794 591.908 230.88C588.822 231.997 586.225 233.553 584.087 235.58C581.948 237.607 580.329 240.015 579.199 242.835C578.099 245.654 577.549 248.797 577.549 252.263C577.549 259.165 579.321 264.511 582.926 268.359C586.5 272.177 591.664 274.115 598.415 274.115C600.279 274.115 601.99 273.939 603.579 273.616C605.137 273.293 606.664 272.794 608.161 272.148V273.851C608.161 276.465 607.336 278.609 605.687 280.254C604.067 281.928 601.257 282.751 597.316 282.751C594.26 282.751 591.572 282.516 589.189 282.046C586.806 281.576 584.515 280.93 582.376 280.078L579.962 291.239C582.498 292.061 585.248 292.737 588.211 293.236C591.175 293.736 594.138 294 597.102 294C605.595 294 611.858 292.15 615.891 288.419C619.954 284.719 621.97 279.02 621.97 271.355ZM648.794 277.229V230.322H634.985V277.229H648.794ZM650.108 216.753C650.108 214.315 649.283 212.406 647.633 210.996C645.984 209.586 644.059 208.911 641.829 208.911C639.598 208.911 637.674 209.586 636.054 210.996C634.405 212.406 633.58 214.315 633.58 216.753C633.58 219.191 634.405 221.1 636.054 222.51C637.674 223.89 639.598 224.595 641.829 224.595C644.059 224.595 645.984 223.89 647.633 222.51C649.283 221.1 650.108 219.191 650.108 216.753ZM661.32 218.633V258.049C661.32 261.074 661.626 263.835 662.206 266.332C662.787 268.858 663.826 270.973 665.323 272.735C666.789 274.468 668.775 275.848 671.249 276.818C673.724 277.816 676.84 278.286 680.629 278.286C683.592 278.286 686.097 278.051 688.144 277.581C690.191 277.111 692.024 276.553 693.705 275.878L691.749 265.539C690.466 266.009 689.03 266.391 687.442 266.655C685.853 266.919 684.325 267.066 682.859 267.066C679.743 267.066 677.696 266.214 676.688 264.57C675.649 262.895 675.16 260.663 675.16 257.873V241.366H691.749V230.322H675.16V216.488L661.32 218.633ZM719.765 267.947C717.229 267.947 715.243 267.536 713.777 266.743C712.341 265.95 711.608 264.511 711.608 262.426C711.608 261.339 711.852 260.458 712.341 259.753C712.86 259.018 713.532 258.46 714.388 258.049C715.274 257.638 716.251 257.344 717.412 257.197C718.543 257.051 719.765 256.992 721.078 256.992C721.995 256.992 723.034 257.051 724.134 257.168C725.264 257.286 726.089 257.403 726.639 257.52V267.595C725.906 267.712 724.897 267.801 723.675 267.859C722.423 267.918 721.14 267.947 719.765 267.947ZM718.665 229.059C717.046 229.059 715.457 229.148 713.899 229.294C712.31 229.441 710.813 229.617 709.377 229.823C707.972 230.029 706.658 230.264 705.436 230.528C704.245 230.792 703.237 231.057 702.412 231.292L704.184 241.983C705.864 241.395 707.85 240.926 710.141 240.602C712.402 240.279 714.724 240.133 717.076 240.133C720.62 240.133 723.095 240.808 724.5 242.159C725.936 243.54 726.639 245.361 726.639 247.622V248.856C725.783 248.621 724.653 248.445 723.248 248.268C721.873 248.122 720.284 248.063 718.482 248.063C715.824 248.063 713.257 248.327 710.783 248.827C708.308 249.326 706.108 250.148 704.184 251.264C702.259 252.41 700.731 253.908 699.601 255.817C698.44 257.726 697.89 260.046 697.89 262.778C697.89 265.627 698.379 268.036 699.357 270.003C700.365 271.971 701.77 273.557 703.634 274.762C705.497 275.995 707.697 276.876 710.263 277.405C712.83 277.934 715.701 278.198 718.848 278.198C723.859 278.198 728.136 277.934 731.649 277.376C735.193 276.788 737.943 276.318 739.898 275.878V248.239C739.898 245.331 739.562 242.688 738.89 240.309C738.218 237.93 737.057 235.903 735.407 234.229C733.757 232.555 731.588 231.292 728.869 230.411C726.15 229.5 722.759 229.059 718.665 229.059ZM771.916 278.11L773.871 267.154C772.191 267.037 770.877 266.773 769.869 266.332C768.891 265.921 768.127 265.392 767.608 264.746C767.089 264.1 766.722 263.277 766.539 262.337C766.355 261.368 766.264 260.311 766.264 259.107V208L752.424 210.144V261.809C752.424 264.305 752.699 266.538 753.218 268.535C753.738 270.532 754.746 272.206 756.182 273.616C757.648 275.026 759.634 276.113 762.139 276.876C764.645 277.64 767.913 278.051 771.916 278.11Z" fill="#F7F7F7"/>
<path d="M526.012 87.834V73.5H546.871L565.043 136.57L565.576 138.423L566.01 136.544L580.572 73.5H605.566L581.266 177.5H557.504L539.815 117.212L539.352 115.635L538.858 117.203L519.865 177.5H496.095L471.631 73.5H496.621L510.523 136.376L510.939 138.255L511.49 136.411L525.991 87.9774L526.012 87.9073V87.834ZM649.175 139.366V139.233L649.108 139.117L611.497 73.5H637.999L661.578 116.773L662.017 117.579L662.456 116.773L686.02 73.5H712.522L674.91 139.117L674.844 139.233V139.366V177.5H649.175V139.366ZM787.816 135.777V73.5H813.5V177.5H791.362L746.401 115.095L745.496 113.838V115.387V177.5H719.977V73.5H741.949L786.91 136.068L787.816 137.329V135.777Z" fill="#4A6CF7" stroke="black"/>
</svg>
