<svg xmlns="http://www.w3.org/2000/svg" version="1.1" xlink="http://www.w3.org/1999/xlink" xmlns:svgjs="http://svgjs.com/svgjs" width="100%" height="100%" viewBox="3.390000104904175 -70.5 228.02999877929688 70.5"><g fill="#4a6cf7"><path d="M3.39 -70.5L19.81 0L36.12 0L48.82 -40.72L60.65 0L76.96 0L93.27 -70.5L75.97 -70.5L66.23 -27.91L54.08 -70.5L39.63 -70.5L39.63 -60.54L29.99 -28.02L20.69 -70.5Z M121.51 -25.94L121.51 0L139.24 0L139.24 -25.94L164.53 -70.5L146.14 -70.5L130.38 -41.27L114.61 -70.5L96.22 -70.5Z M168.58 -70.5L168.58 0L186.21 0L186.21 -42.04L216.2 0L231.42 0L231.42 -70.5L213.68 -70.5L213.68 -28.35L183.69 -70.5Z"></path></g></svg>