<svg xmlns="http://www.w3.org/2000/svg" version="1.1" xlink="http://www.w3.org/1999/xlink" xmlns:svgjs="http://svgjs.com/svgjs" width="100%" height="100%" viewBox="2.7200000286102295 -43.209999084472656 309.3299865722656 44.119998931884766"><g fill="#1a1a1a"><path d="M2.72 -42.3L2.72 0L17.61 0C24.91 0 30.62 -1.81 34.74 -5.42C38.85 -9.03 40.91 -14.34 40.91 -21.36C40.91 -25.6 39.97 -29.3 38.1 -32.47C36.22 -35.64 33.55 -38.07 30.08 -39.76C26.61 -41.46 22.55 -42.3 17.91 -42.3ZM18.52 -9.02L13.44 -9.02L13.44 -33.29L18.88 -33.29C22.31 -33.29 25.01 -32.17 26.96 -29.93C28.92 -27.69 29.9 -24.83 29.9 -21.36C29.9 -17.57 28.92 -14.57 26.96 -12.35C25.01 -10.13 22.19 -9.02 18.52 -9.02Z M45.15 -42.3L45.15 0L55.86 0L55.86 -42.3Z M71.02 -1.76C74.51 0.02 78.56 0.91 83.16 0.91C89.49 0.91 94.82 -0.4 99.13 -3.03L99.13 -24.09L82.49 -24.09L82.49 -16.58L88.97 -16.58L88.97 -9.8C87.51 -9.08 85.72 -8.72 83.58 -8.72C79.75 -8.72 76.71 -9.82 74.47 -12.04C72.23 -14.26 71.11 -17.29 71.11 -21.12C71.11 -23.58 71.68 -25.74 72.81 -27.6C73.94 -29.45 75.48 -30.88 77.44 -31.86C79.39 -32.85 81.62 -33.35 84.13 -33.35C87.03 -33.35 89.6 -33.03 91.84 -32.41C94.08 -31.78 96.09 -30.77 97.86 -29.35L97.86 -39.52C95.85 -40.81 93.66 -41.75 91.3 -42.33C88.94 -42.92 86.22 -43.21 83.16 -43.21C78.56 -43.21 74.51 -42.31 71.02 -40.52C67.53 -38.72 64.84 -36.16 62.94 -32.83C61.05 -29.5 60.1 -25.6 60.1 -21.12C60.1 -16.64 61.05 -12.74 62.94 -9.41C64.84 -6.08 67.53 -3.53 71.02 -1.76Z M103.37 -42.3L103.37 0L114.08 0L114.08 -42.3Z M124.8 0.15C127.42 0.66 130.06 0.91 132.72 0.91C138.37 0.91 142.62 -0.19 145.46 -2.39C148.31 -4.59 149.73 -7.65 149.73 -11.56C149.73 -13.86 149.37 -15.76 148.64 -17.25C147.92 -18.74 146.76 -20.05 145.16 -21.18C143.57 -22.31 141.34 -23.46 138.47 -24.63C135.33 -25.88 133.17 -26.87 132 -27.6C130.83 -28.32 130.24 -29.27 130.24 -30.44C130.24 -31.61 130.82 -32.51 131.97 -33.14C133.12 -33.76 134.66 -34.07 136.6 -34.07C140.19 -34.07 143.76 -33.15 147.31 -31.29L147.31 -40.67C145.45 -41.56 143.52 -42.2 141.5 -42.61C139.48 -43.01 137.18 -43.21 134.6 -43.21C131.45 -43.21 128.67 -42.69 126.25 -41.64C123.83 -40.59 121.94 -39.12 120.59 -37.22C119.24 -35.32 118.56 -33.17 118.56 -30.75C118.56 -27.8 119.45 -25.32 121.23 -23.3C123 -21.28 125.84 -19.45 129.76 -17.79C131.98 -16.87 133.61 -16.14 134.66 -15.61C135.71 -15.09 136.51 -14.52 137.05 -13.89C137.6 -13.26 137.87 -12.53 137.87 -11.68C137.87 -10.55 137.36 -9.68 136.36 -9.08C135.35 -8.47 133.85 -8.17 131.88 -8.17C129.74 -8.17 127.49 -8.45 125.13 -9.02C122.77 -9.58 120.5 -10.43 118.32 -11.56L118.32 -1.94C120.01 -1.05 122.17 -0.35 124.8 0.15Z M153.97 -42.3L153.97 0L164.68 0L164.68 -12.65L172.61 -12.65C177.57 -12.65 181.51 -13.95 184.44 -16.55C187.37 -19.16 188.83 -22.84 188.83 -27.6C188.83 -32.24 187.36 -35.85 184.41 -38.43C181.46 -41.01 177.53 -42.3 172.61 -42.3ZM170.91 -21.67L164.68 -21.67L164.68 -33.29L170.91 -33.29C173.09 -33.29 174.79 -32.88 176 -32.08C177.21 -31.27 177.81 -29.78 177.81 -27.6C177.81 -25.42 177.2 -23.89 175.97 -23C174.74 -22.11 173.05 -21.67 170.91 -21.67Z M202.14 -42.3L185.2 0L196.21 0L199.6 -8.72L215.22 -8.72L218.6 0L229.56 0L212.67 -42.3ZM212.55 -16.95L202.2 -16.95L207.41 -31.17Z M233.8 -42.3L233.8 0L244.51 0L244.51 -13.25L250.56 -13.25L257.28 0L268.29 0L260.79 -14.77C263.29 -15.86 265.23 -17.51 266.6 -19.73C267.97 -21.95 268.66 -24.63 268.66 -27.78C268.66 -32.46 267.25 -36.05 264.45 -38.55C261.65 -41.05 257.76 -42.3 252.8 -42.3ZM250.92 -22.27L244.51 -22.27L244.51 -33.29L250.92 -33.29C253.1 -33.29 254.77 -32.89 255.92 -32.11C257.07 -31.32 257.64 -29.88 257.64 -27.78C257.64 -25.76 257.06 -24.34 255.89 -23.51C254.72 -22.69 253.06 -22.27 250.92 -22.27Z M272.89 -42.3L272.89 0L283.6 0L283.6 -18.7L299.34 0L312.05 0L293.77 -21.73L310.9 -42.3L298.19 -42.3L283.6 -24.75L283.6 -42.3Z"></path></g></svg>