<svg xmlns="http://www.w3.org/2000/svg" version="1.1" xlink="http://www.w3.org/1999/xlink" xmlns:svgjs="http://svgjs.com/svgjs" width="100%" height="100%" viewBox="5.389999866485596 -52.84000015258789 173.49000549316406 53.45000076293945"><g fill="#4a6cf7"><path d="M50.03 0L62.71 0L62.71 -52.24L44.64 -52.24L34.39 -22.09L33.86 -22.09L23.54 -52.24L5.39 -52.24L5.39 0L17.69 0L17.69 -33.25L18.22 -33.25L29.38 0L38.34 0L49.5 -33.25L50.03 -33.25Z M81.24 -52.24L81.24 0L99.69 0C107.38 0 112.87 -0.77 116.16 -2.32C119.45 -3.86 121.5 -6.29 122.31 -9.6C123.12 -12.92 123.53 -18.42 123.53 -26.12C123.53 -33.81 123.12 -39.32 122.31 -42.63C121.5 -45.95 119.45 -48.38 116.16 -49.92C112.87 -51.46 107.38 -52.24 99.69 -52.24ZM99.39 -10.71L94.37 -10.71L94.37 -41.53L99.39 -41.53C103.23 -41.53 105.8 -41.29 107.09 -40.81C108.38 -40.33 109.2 -39.15 109.56 -37.28C109.91 -35.41 110.09 -31.69 110.09 -26.12C110.09 -20.5 109.93 -16.77 109.6 -14.92C109.27 -13.07 108.46 -11.91 107.17 -11.43C105.88 -10.95 103.28 -10.71 99.39 -10.71Z M140.31 -0.68C146.03 0.18 152.58 0.61 159.97 0.61C164.17 0.61 167.59 0.23 170.22 -0.53C172.85 -1.29 174.96 -2.92 176.52 -5.43C178.09 -7.93 178.88 -11.67 178.88 -16.63C178.88 -21.39 178.14 -24.85 176.68 -27.03C175.71 -28.6 174.51 -29.71 173.07 -30.37C171.63 -31.03 169.79 -31.48 167.57 -31.74L156.48 -33.1C155.01 -33.31 153.99 -33.52 153.41 -33.75C152.82 -33.98 152.44 -34.36 152.27 -34.89C152.09 -35.42 152 -36.32 152 -37.58C152 -38.59 152.09 -39.38 152.27 -39.94C152.44 -40.49 152.86 -40.92 153.52 -41.23C154.73 -41.83 157.37 -42.14 161.42 -42.14C165.26 -42.14 170.2 -41.81 176.22 -41.15L176.22 -51.25C173.08 -51.81 170.18 -52.21 167.53 -52.46C164.87 -52.72 161.95 -52.84 158.76 -52.84C154.41 -52.84 150.82 -52.48 148.01 -51.74C145.21 -51.01 142.97 -49.48 141.3 -47.15C139.63 -44.82 138.79 -41.4 138.79 -36.9C138.79 -33.71 139.11 -31.05 139.74 -28.93C140.37 -26.8 141.59 -25.07 143.38 -23.73C145.18 -22.39 147.8 -21.51 151.24 -21.11L160.88 -19.89C162.4 -19.69 163.47 -19.47 164.07 -19.25C164.68 -19.02 165.09 -18.63 165.29 -18.07C165.49 -17.51 165.59 -16.6 165.59 -15.34C165.59 -14.27 165.53 -13.45 165.4 -12.87C165.28 -12.29 164.96 -11.79 164.45 -11.39C163.9 -10.93 162.96 -10.6 161.64 -10.4C160.33 -10.2 158.43 -10.1 155.95 -10.1C151.7 -10.1 146.48 -10.4 140.31 -11.01Z"></path></g></svg>