<svg xmlns="http://www.w3.org/2000/svg" version="1.1" xlink="http://www.w3.org/1999/xlink" xmlns:svgjs="http://svgjs.com/svgjs" width="100%" height="100%" viewBox="1.2100000381469727 -14.90999984741211 309.33001708984375 19.549999237060547"><g fill="#4a6cf7"><path d="M1.21 -14.1L1.21 0L5.71 0C8.14 0 10.04 -0.6 11.4 -1.81C12.76 -3.01 13.44 -4.78 13.44 -7.12C13.44 -8.55 13.13 -9.78 12.53 -10.83C11.92 -11.88 11.06 -12.69 9.93 -13.25C8.8 -13.82 7.46 -14.1 5.93 -14.1ZM5.75 -2.12L3.77 -2.12L3.77 -11.98L6.01 -11.98C7.01 -11.98 7.87 -11.78 8.59 -11.37C9.32 -10.96 9.88 -10.39 10.27 -9.65C10.66 -8.92 10.85 -8.08 10.85 -7.12C10.85 -5.55 10.41 -4.32 9.53 -3.44C8.65 -2.56 7.39 -2.12 5.75 -2.12Z M19.62 -1.05C20.67 -0.15 22.1 0.3 23.9 0.3C24.61 0.3 25.33 0.24 26.05 0.12C26.77 0 27.36 -0.15 27.81 -0.34L27.81 -2.3C27.33 -2.11 26.77 -1.96 26.12 -1.86C25.47 -1.75 24.84 -1.69 24.22 -1.69C21.9 -1.69 20.65 -2.41 20.47 -3.85L28.72 -3.85L28.72 -5.02C28.72 -5.98 28.52 -6.83 28.12 -7.58C27.71 -8.32 27.11 -8.91 26.31 -9.34C25.51 -9.77 24.55 -9.99 23.42 -9.99C21.7 -9.99 20.37 -9.52 19.44 -8.59C18.51 -7.67 18.05 -6.41 18.05 -4.82C18.05 -3.21 18.57 -1.95 19.62 -1.05ZM26.32 -5.59L20.47 -5.59C20.5 -6.33 20.77 -6.91 21.28 -7.34C21.79 -7.77 22.49 -7.99 23.38 -7.99C24.28 -7.99 24.99 -7.78 25.5 -7.36C26.02 -6.95 26.29 -6.35 26.32 -5.59Z M35.27 0.06C36.07 0.22 36.81 0.3 37.51 0.3C38.9 0.3 39.96 0.04 40.69 -0.47C41.42 -0.99 41.79 -1.68 41.79 -2.54C41.79 -3.11 41.69 -3.58 41.49 -3.95C41.29 -4.33 40.95 -4.65 40.48 -4.92C40.01 -5.19 39.36 -5.44 38.52 -5.67C37.74 -5.87 37.2 -6.02 36.91 -6.12C36.61 -6.22 36.37 -6.34 36.19 -6.49C36.01 -6.63 35.92 -6.82 35.92 -7.06C35.92 -7.42 36.09 -7.67 36.42 -7.8C36.76 -7.92 37.26 -7.99 37.92 -7.99C38.52 -7.99 39.11 -7.91 39.69 -7.77C40.27 -7.62 40.76 -7.42 41.16 -7.18L41.16 -9.26C40.79 -9.49 40.27 -9.67 39.6 -9.79C38.94 -9.92 38.27 -9.99 37.59 -9.99C36.29 -9.99 35.25 -9.74 34.49 -9.25C33.72 -8.76 33.34 -8.03 33.34 -7.06C33.34 -6.47 33.45 -5.99 33.69 -5.62C33.93 -5.25 34.28 -4.94 34.74 -4.7C35.2 -4.46 35.84 -4.22 36.65 -3.99C37.36 -3.81 37.89 -3.65 38.23 -3.52C38.57 -3.39 38.82 -3.25 38.98 -3.1C39.13 -2.94 39.21 -2.74 39.21 -2.5C39.21 -2.19 39.06 -1.98 38.76 -1.87C38.47 -1.75 38 -1.69 37.35 -1.69C36.71 -1.69 36.02 -1.79 35.29 -1.99C34.57 -2.18 33.94 -2.44 33.42 -2.76L33.42 -0.61C33.86 -0.32 34.48 -0.1 35.27 0.06Z M47.22 -11.78C47.5 -11.51 47.84 -11.38 48.24 -11.38C48.64 -11.38 48.99 -11.51 49.27 -11.78C49.55 -12.05 49.69 -12.39 49.69 -12.79C49.69 -13.19 49.55 -13.53 49.27 -13.81C48.99 -14.08 48.64 -14.22 48.24 -14.22C47.84 -14.22 47.5 -14.08 47.22 -13.81C46.95 -13.53 46.81 -13.19 46.81 -12.79C46.81 -12.39 46.95 -12.05 47.22 -11.78ZM46.95 -9.68L46.95 0L49.53 0L49.53 -9.68Z M58.3 4.46C58.95 4.58 59.59 4.64 60.24 4.64C62.23 4.64 63.7 4.19 64.67 3.28C65.63 2.37 66.11 1.08 66.11 -0.59L66.11 -9.68L63.65 -9.68L63.65 -8.55C63.1 -9.06 62.52 -9.43 61.93 -9.65C61.34 -9.88 60.64 -9.99 59.81 -9.99C58.83 -9.99 57.96 -9.77 57.18 -9.35C56.41 -8.93 55.8 -8.33 55.37 -7.56C54.93 -6.78 54.71 -5.88 54.71 -4.86C54.71 -3.85 54.93 -2.96 55.38 -2.18C55.82 -1.4 56.44 -0.79 57.23 -0.35C58.03 0.08 58.91 0.3 59.9 0.3C60.62 0.3 61.3 0.2 61.93 -0.01C62.57 -0.22 63.11 -0.53 63.57 -0.95L63.57 -0.32C63.57 0.66 63.31 1.4 62.79 1.9C62.27 2.39 61.42 2.64 60.24 2.64C58.92 2.64 57.74 2.41 56.69 1.96L56.69 3.97C57.12 4.18 57.66 4.34 58.3 4.46ZM62.39 -2.29C61.82 -1.89 61.17 -1.69 60.44 -1.69C59.53 -1.69 58.77 -1.99 58.18 -2.58C57.59 -3.17 57.29 -3.93 57.29 -4.86C57.29 -5.79 57.59 -6.54 58.18 -7.12C58.77 -7.7 59.53 -7.99 60.44 -7.99C61.17 -7.99 61.81 -7.79 62.38 -7.4C62.94 -7.01 63.34 -6.49 63.57 -5.83L63.57 -3.87C63.35 -3.21 62.96 -2.69 62.39 -2.29Z M71.53 -9.68L71.53 0L74.07 0L74.07 -6.33C74.42 -6.89 74.85 -7.3 75.36 -7.58C75.87 -7.85 76.42 -7.99 77 -7.99C78.32 -7.99 78.97 -7.28 78.97 -5.87L78.97 0L81.52 0L81.52 -6.11C81.52 -7.28 81.19 -8.22 80.55 -8.93C79.9 -9.63 78.93 -9.99 77.62 -9.99C76.92 -9.99 76.26 -9.85 75.63 -9.59C74.99 -9.33 74.45 -8.92 73.99 -8.37L73.99 -9.68Z M86.74 -0.29C86.94 -0.1 87.18 0 87.46 0C87.75 0 87.99 -0.1 88.19 -0.29C88.39 -0.49 88.49 -0.73 88.49 -1.01C88.49 -1.3 88.39 -1.55 88.19 -1.76C87.99 -1.96 87.75 -2.06 87.46 -2.06C87.18 -2.06 86.94 -1.96 86.74 -1.76C86.53 -1.55 86.43 -1.3 86.43 -1.01C86.43 -0.73 86.53 -0.49 86.74 -0.29Z M103.77 -14.1L103.77 0L108.27 0C110.71 0 112.6 -0.6 113.96 -1.81C115.32 -3.01 116 -4.78 116 -7.12C116 -8.55 115.7 -9.78 115.09 -10.83C114.49 -11.88 113.62 -12.69 112.49 -13.25C111.36 -13.82 110.03 -14.1 108.49 -14.1ZM108.31 -2.12L106.33 -2.12L106.33 -11.98L108.57 -11.98C109.57 -11.98 110.43 -11.78 111.16 -11.37C111.88 -10.96 112.44 -10.39 112.83 -9.65C113.22 -8.92 113.42 -8.08 113.42 -7.12C113.42 -5.55 112.98 -4.32 112.09 -3.44C111.21 -2.56 109.95 -2.12 108.31 -2.12Z M122.19 -1.05C123.24 -0.15 124.66 0.3 126.46 0.3C127.18 0.3 127.89 0.24 128.61 0.12C129.33 0 129.92 -0.15 130.38 -0.34L130.38 -2.3C129.89 -2.11 129.33 -1.96 128.68 -1.86C128.04 -1.75 127.4 -1.69 126.79 -1.69C124.46 -1.69 123.21 -2.41 123.03 -3.85L131.28 -3.85L131.28 -5.02C131.28 -5.98 131.08 -6.83 130.68 -7.58C130.28 -8.32 129.67 -8.91 128.87 -9.34C128.07 -9.77 127.11 -9.99 125.98 -9.99C124.26 -9.99 122.93 -9.52 122 -8.59C121.08 -7.67 120.61 -6.41 120.61 -4.82C120.61 -3.21 121.14 -1.95 122.19 -1.05ZM128.88 -5.59L123.03 -5.59C123.06 -6.33 123.33 -6.91 123.84 -7.34C124.35 -7.77 125.05 -7.99 125.94 -7.99C126.84 -7.99 127.55 -7.78 128.07 -7.36C128.58 -6.95 128.86 -6.35 128.88 -5.59Z M135.09 -9.68L139.09 0L141.47 0L145.46 -9.68L142.9 -9.68L140.28 -2.99L137.65 -9.68Z M150.84 -1.05C151.89 -0.15 153.32 0.3 155.12 0.3C155.83 0.3 156.55 0.24 157.27 0.12C157.99 0 158.58 -0.15 159.03 -0.34L159.03 -2.3C158.55 -2.11 157.98 -1.96 157.34 -1.86C156.69 -1.75 156.06 -1.69 155.44 -1.69C153.12 -1.69 151.87 -2.41 151.69 -3.85L159.94 -3.85L159.94 -5.02C159.94 -5.98 159.74 -6.83 159.34 -7.58C158.93 -8.32 158.33 -8.91 157.53 -9.34C156.73 -9.77 155.77 -9.99 154.64 -9.99C152.91 -9.99 151.59 -9.52 150.66 -8.59C149.73 -7.67 149.27 -6.41 149.27 -4.82C149.27 -3.21 149.79 -1.95 150.84 -1.05ZM157.54 -5.59L151.69 -5.59C151.72 -6.33 151.99 -6.91 152.5 -7.34C153.01 -7.77 153.71 -7.99 154.6 -7.99C155.5 -7.99 156.21 -7.78 156.72 -7.36C157.24 -6.95 157.51 -6.35 157.54 -5.59Z M164.96 -14.91L164.96 0L167.5 0L167.5 -14.91Z M175.21 -0.31C176.07 0.1 177.06 0.3 178.19 0.3C179.32 0.3 180.31 0.1 181.16 -0.31C182.02 -0.72 182.68 -1.31 183.15 -2.09C183.62 -2.86 183.86 -3.78 183.86 -4.84C183.86 -5.88 183.62 -6.78 183.15 -7.56C182.68 -8.33 182.02 -8.93 181.16 -9.35C180.31 -9.77 179.32 -9.99 178.19 -9.99C177.06 -9.99 176.06 -9.77 175.2 -9.35C174.34 -8.93 173.68 -8.33 173.22 -7.56C172.75 -6.78 172.52 -5.88 172.52 -4.84C172.52 -3.78 172.75 -2.86 173.23 -2.09C173.7 -1.31 174.36 -0.72 175.21 -0.31ZM180.41 -2.57C179.86 -1.99 179.12 -1.69 178.19 -1.69C177.26 -1.69 176.52 -1.99 175.97 -2.57C175.42 -3.16 175.14 -3.91 175.14 -4.84C175.14 -5.82 175.41 -6.59 175.96 -7.15C176.5 -7.71 177.25 -7.99 178.19 -7.99C179.13 -7.99 179.87 -7.71 180.42 -7.15C180.96 -6.59 181.23 -5.82 181.23 -4.84C181.23 -3.91 180.96 -3.16 180.41 -2.57Z M188.88 -9.68L188.88 4.42L191.42 4.42L191.42 -0.95C191.87 -0.53 192.43 -0.22 193.08 -0.01C193.73 0.2 194.43 0.3 195.17 0.3C196.15 0.3 197.03 0.08 197.8 -0.35C198.58 -0.79 199.18 -1.4 199.62 -2.18C200.05 -2.96 200.27 -3.85 200.27 -4.86C200.27 -5.88 200.05 -6.78 199.62 -7.56C199.18 -8.33 198.58 -8.93 197.8 -9.35C197.03 -9.77 196.15 -9.99 195.17 -9.99C194.38 -9.99 193.67 -9.87 193.05 -9.62C192.43 -9.38 191.86 -9.01 191.34 -8.51L191.34 -9.68ZM196.8 -2.58C196.21 -1.99 195.46 -1.69 194.54 -1.69C193.82 -1.69 193.17 -1.89 192.6 -2.29C192.03 -2.69 191.63 -3.21 191.42 -3.87L191.42 -5.83C191.65 -6.49 192.04 -7.01 192.61 -7.4C193.17 -7.79 193.82 -7.99 194.54 -7.99C195.46 -7.99 196.21 -7.7 196.8 -7.12C197.4 -6.54 197.69 -5.79 197.69 -4.86C197.69 -3.93 197.4 -3.17 196.8 -2.58Z M205.19 -0.29C205.39 -0.1 205.63 0 205.92 0C206.2 0 206.44 -0.1 206.64 -0.29C206.84 -0.49 206.95 -0.73 206.95 -1.01C206.95 -1.3 206.84 -1.55 206.64 -1.76C206.44 -1.96 206.2 -2.06 205.92 -2.06C205.63 -2.06 205.39 -1.96 205.19 -1.76C204.99 -1.55 204.89 -1.3 204.89 -1.01C204.89 -0.73 204.99 -0.49 205.19 -0.29Z M222.23 -14.1L222.23 0L226.73 0C229.16 0 231.06 -0.6 232.41 -1.81C233.77 -3.01 234.45 -4.78 234.45 -7.12C234.45 -8.55 234.15 -9.78 233.54 -10.83C232.94 -11.88 232.07 -12.69 230.94 -13.25C229.81 -13.82 228.48 -14.1 226.95 -14.1ZM226.77 -2.12L224.79 -2.12L224.79 -11.98L227.03 -11.98C228.02 -11.98 228.88 -11.78 229.61 -11.37C230.34 -10.96 230.9 -10.39 231.29 -9.65C231.68 -8.92 231.87 -8.08 231.87 -7.12C231.87 -5.55 231.43 -4.32 230.55 -3.44C229.67 -2.56 228.41 -2.12 226.77 -2.12Z M240.64 -1.05C241.69 -0.15 243.12 0.3 244.92 0.3C245.63 0.3 246.35 0.24 247.07 0.12C247.79 0 248.37 -0.15 248.83 -0.34L248.83 -2.3C248.35 -2.11 247.78 -1.96 247.14 -1.86C246.49 -1.75 245.86 -1.69 245.24 -1.69C242.91 -1.69 241.66 -2.41 241.49 -3.85L249.74 -3.85L249.74 -5.02C249.74 -5.98 249.54 -6.83 249.13 -7.58C248.73 -8.32 248.13 -8.91 247.33 -9.34C246.53 -9.77 245.56 -9.99 244.43 -9.99C242.71 -9.99 241.39 -9.52 240.46 -8.59C239.53 -7.67 239.07 -6.41 239.07 -4.82C239.07 -3.21 239.59 -1.95 240.64 -1.05ZM247.34 -5.59L241.49 -5.59C241.51 -6.33 241.78 -6.91 242.29 -7.34C242.81 -7.77 243.51 -7.99 244.39 -7.99C245.29 -7.99 246 -7.78 246.52 -7.36C247.04 -6.95 247.31 -6.35 247.34 -5.59Z M254.76 -9.68L254.76 4.42L257.3 4.42L257.3 -0.95C257.76 -0.53 258.31 -0.22 258.96 -0.01C259.62 0.2 260.31 0.3 261.05 0.3C262.03 0.3 262.91 0.08 263.68 -0.35C264.46 -0.79 265.06 -1.4 265.5 -2.18C265.94 -2.96 266.16 -3.85 266.16 -4.86C266.16 -5.88 265.94 -6.78 265.5 -7.56C265.06 -8.33 264.46 -8.93 263.68 -9.35C262.91 -9.77 262.03 -9.99 261.05 -9.99C260.26 -9.99 259.55 -9.87 258.93 -9.62C258.31 -9.38 257.74 -9.01 257.22 -8.51L257.22 -9.68ZM262.69 -2.58C262.09 -1.99 261.34 -1.69 260.43 -1.69C259.7 -1.69 259.05 -1.89 258.48 -2.29C257.91 -2.69 257.51 -3.21 257.3 -3.87L257.3 -5.83C257.53 -6.49 257.92 -7.01 258.49 -7.4C259.05 -7.79 259.7 -7.99 260.43 -7.99C261.34 -7.99 262.09 -7.7 262.69 -7.12C263.28 -6.54 263.57 -5.79 263.57 -4.86C263.57 -3.93 263.28 -3.17 262.69 -2.58Z M271.17 -14.91L271.17 0L273.72 0L273.72 -14.91Z M281.43 -0.31C282.28 0.1 283.27 0.3 284.4 0.3C285.53 0.3 286.52 0.1 287.38 -0.31C288.23 -0.72 288.89 -1.31 289.36 -2.09C289.84 -2.86 290.07 -3.78 290.07 -4.84C290.07 -5.88 289.84 -6.78 289.36 -7.56C288.89 -8.33 288.23 -8.93 287.38 -9.35C286.52 -9.77 285.53 -9.99 284.4 -9.99C283.27 -9.99 282.28 -9.77 281.42 -9.35C280.56 -8.93 279.89 -8.33 279.43 -7.56C278.97 -6.78 278.73 -5.88 278.73 -4.84C278.73 -3.78 278.97 -2.86 279.44 -2.09C279.91 -1.31 280.57 -0.72 281.43 -0.31ZM286.62 -2.57C286.07 -1.99 285.33 -1.69 284.4 -1.69C283.47 -1.69 282.73 -1.99 282.18 -2.57C281.63 -3.16 281.36 -3.91 281.36 -4.84C281.36 -5.82 281.63 -6.59 282.17 -7.15C282.72 -7.71 283.46 -7.99 284.4 -7.99C285.34 -7.99 286.09 -7.71 286.63 -7.15C287.18 -6.59 287.45 -5.82 287.45 -4.84C287.45 -3.91 287.17 -3.16 286.62 -2.57Z M295 3.92C295.38 3.97 295.75 3.99 296.1 3.99C297.07 3.99 297.86 3.74 298.47 3.23C299.08 2.72 299.6 1.93 300.03 0.87L304.27 -9.68L301.73 -9.68L298.92 -2.62L295.94 -9.68L293.37 -9.68L297.55 -0.44L297.17 0.56C296.98 1.06 296.76 1.43 296.5 1.65C296.25 1.88 295.86 2 295.35 2C294.85 2 294.44 1.93 294.1 1.8L294.1 3.73C294.32 3.81 294.61 3.88 295 3.92Z M308.78 -0.29C308.98 -0.1 309.23 0 309.51 0C309.79 0 310.03 -0.1 310.23 -0.29C310.44 -0.49 310.54 -0.73 310.54 -1.01C310.54 -1.3 310.44 -1.55 310.23 -1.76C310.03 -1.96 309.79 -2.06 309.51 -2.06C309.23 -2.06 308.98 -1.96 308.78 -1.76C308.58 -1.55 308.48 -1.3 308.48 -1.01C308.48 -0.73 308.58 -0.49 308.78 -0.29Z"></path></g></svg>