<svg xmlns="http://www.w3.org/2000/svg" version="1.1" xlink="http://www.w3.org/1999/xlink" xmlns:svgjs="http://svgjs.com/svgjs" width="100%" height="100%" viewBox="2.490000009536743 -22.559999465942383 310.55999755859375 28.81999969482422"><g fill="#333333"><path d="M20.59 0L24.75 0L24.75 -20.89L18.83 -20.89L13.73 -7.5L13.54 -7.5L8.44 -20.89L2.49 -20.89L2.49 0L6.53 0L6.53 -14.27L6.68 -14.27L12.06 0L15.03 0L20.44 -14.27L20.59 -14.27Z M29.72 -0.82C30.48 -0.11 31.64 0.24 33.19 0.24C34.29 0.24 35.26 0.1 36.11 -0.18C36.96 -0.47 37.62 -1.03 38.08 -1.88L38.3 -1.88L38.42 0L42.21 0L42.21 -9.45C42.21 -11.04 42.06 -12.27 41.76 -13.13C41.45 -14 40.82 -14.64 39.85 -15.08C38.87 -15.51 37.4 -15.73 35.41 -15.73C33.37 -15.73 31.4 -15.57 29.52 -15.25L29.52 -12.12C30.07 -12.18 30.81 -12.24 31.74 -12.3C32.67 -12.36 33.45 -12.39 34.07 -12.39C35.37 -12.39 36.28 -12.34 36.81 -12.24C37.33 -12.14 37.69 -11.9 37.89 -11.54C38.08 -11.18 38.17 -10.54 38.17 -9.63L38.17 -9.05C36.07 -9.13 34.49 -9.17 33.44 -9.17C32.16 -9.17 31.17 -9.01 30.48 -8.7C29.78 -8.39 29.29 -7.89 29 -7.2C28.72 -6.51 28.58 -5.56 28.58 -4.34C28.58 -2.7 28.96 -1.53 29.72 -0.82ZM36.73 -3.17C36.32 -3.02 35.78 -2.95 35.11 -2.95C34.32 -2.95 33.75 -2.99 33.39 -3.08C33.04 -3.17 32.79 -3.34 32.66 -3.58C32.53 -3.83 32.47 -4.22 32.47 -4.77C32.47 -5.33 32.52 -5.75 32.62 -6.01C32.72 -6.28 32.91 -6.45 33.19 -6.54C33.48 -6.64 33.92 -6.68 34.53 -6.68L38.17 -6.68L38.17 -6.2C38.17 -5.16 38.02 -4.4 37.72 -3.92C37.48 -3.57 37.15 -3.33 36.73 -3.17Z M56.15 -8.2L56.15 0L60.19 0L60.19 -9.69C60.19 -11.13 60.08 -12.27 59.84 -13.12C59.61 -13.97 59.14 -14.62 58.43 -15.06C57.72 -15.51 56.69 -15.73 55.33 -15.73C54.14 -15.73 53.16 -15.56 52.39 -15.22C51.62 -14.87 51.04 -14.32 50.66 -13.58L50.41 -13.58L50.29 -15.49L46.5 -15.49L46.5 0L50.54 0L50.54 -8.02C50.54 -9.09 50.6 -9.91 50.73 -10.48C50.86 -11.04 51.14 -11.46 51.55 -11.72C51.97 -11.99 52.61 -12.12 53.48 -12.12C54.35 -12.12 54.96 -12.04 55.3 -11.89C55.65 -11.74 55.88 -11.41 55.99 -10.9C56.1 -10.4 56.15 -9.5 56.15 -8.2Z M64.48 0L68.54 0L68.54 -22.56L64.48 -22.56Z M76.32 6.17C77.29 6.23 78.24 6.26 79.17 6.26C81.38 6.26 83.01 5.98 84.05 5.44C85.09 4.89 85.76 4.08 86.07 3.01C86.37 1.93 86.52 0.34 86.52 -1.76L86.52 -15.49L82.48 -15.49L82.48 -7.62C82.48 -6.53 82.42 -5.71 82.29 -5.16C82.16 -4.62 81.89 -4.21 81.48 -3.95C81.08 -3.68 80.44 -3.55 79.57 -3.55C78.7 -3.55 78.09 -3.63 77.73 -3.78C77.38 -3.93 77.14 -4.26 77.03 -4.77C76.92 -5.27 76.87 -6.18 76.87 -7.47L76.87 -15.49L72.83 -15.49L72.83 -5.98C72.83 -4.55 72.95 -3.41 73.19 -2.57C73.43 -1.73 73.91 -1.08 74.62 -0.64C75.33 -0.19 76.36 0.03 77.72 0.03C78.89 0.03 79.85 -0.13 80.59 -0.46C81.33 -0.78 81.89 -1.3 82.27 -2L82.48 -2L82.48 -0.91C82.48 0.28 82.41 1.12 82.26 1.61C82.1 2.1 81.74 2.43 81.16 2.63C80.59 2.82 79.61 2.92 78.23 2.92C77.48 2.92 76.05 2.89 73.92 2.82L73.92 5.92C74.55 6.02 75.35 6.1 76.32 6.17Z M98.67 -20.89L98.67 0L105.78 0C108.77 0 110.92 -0.3 112.2 -0.9C113.49 -1.49 114.29 -2.46 114.62 -3.8C114.94 -5.13 115.1 -7.35 115.1 -10.45C115.1 -13.54 114.94 -15.76 114.62 -17.1C114.29 -18.43 113.49 -19.4 112.2 -20C110.92 -20.6 108.77 -20.89 105.78 -20.89ZM105.57 -3.74L102.98 -3.74L102.98 -17.16L105.57 -17.16C107.41 -17.16 108.64 -17.06 109.26 -16.86C109.87 -16.65 110.27 -16.13 110.46 -15.29C110.64 -14.45 110.73 -12.84 110.73 -10.45C110.73 -8.04 110.64 -6.42 110.47 -5.59C110.3 -4.76 109.9 -4.24 109.27 -4.04C108.64 -3.84 107.41 -3.74 105.57 -3.74Z M119.08 -18.89L123.24 -18.89L123.24 -22.56L119.08 -22.56ZM119.11 0L123.18 0L123.18 -15.49L119.11 -15.49Z M130.44 6.15C131.45 6.22 132.44 6.26 133.41 6.26C135.66 6.26 137.32 5.98 138.38 5.44C139.44 4.89 140.13 4.07 140.45 2.98C140.76 1.88 140.92 0.28 140.92 -1.82L140.92 -15.49L137.15 -15.49L137.03 -13.58L136.79 -13.58C136.04 -15.01 134.52 -15.73 132.23 -15.73C130.91 -15.73 129.88 -15.49 129.12 -15.02C128.36 -14.54 127.8 -13.73 127.45 -12.59C127.09 -11.44 126.92 -9.85 126.92 -7.81C126.92 -5.76 127.09 -4.18 127.43 -3.05C127.78 -1.93 128.33 -1.13 129.09 -0.67C129.85 -0.2 130.89 0.03 132.23 0.03C133.3 0.03 134.21 -0.12 134.96 -0.41C135.71 -0.7 136.29 -1.21 136.69 -1.94L136.88 -1.94L136.88 -1C136.88 0.23 136.79 1.1 136.62 1.59C136.45 2.09 136.07 2.43 135.48 2.61C134.89 2.79 133.88 2.89 132.44 2.89C130.74 2.89 129.28 2.85 128.07 2.79L128.07 5.89C128.64 5.99 129.43 6.08 130.44 6.15ZM135.53 -3.78C135.15 -3.63 134.63 -3.55 133.96 -3.55C133.01 -3.55 132.34 -3.64 131.94 -3.83C131.55 -4.01 131.29 -4.37 131.17 -4.92C131.05 -5.47 130.99 -6.43 130.99 -7.81C130.99 -9.2 131.05 -10.18 131.17 -10.75C131.29 -11.32 131.55 -11.69 131.94 -11.87C132.34 -12.06 133.01 -12.15 133.96 -12.15C134.63 -12.15 135.15 -12.07 135.53 -11.9C135.9 -11.74 136.2 -11.47 136.42 -11.08C136.6 -10.78 136.72 -10.37 136.79 -9.86C136.85 -9.34 136.88 -8.66 136.88 -7.81C136.88 -6.95 136.85 -6.28 136.79 -5.77C136.72 -5.26 136.59 -4.85 136.39 -4.53C136.19 -4.18 135.9 -3.93 135.53 -3.78Z M145.17 -18.89L149.33 -18.89L149.33 -22.56L145.17 -22.56ZM145.2 0L149.27 0L149.27 -15.49L145.2 -15.49Z M155.04 0L159.08 0L159.08 -12.15L162.6 -12.15L162.6 -15.49L159.08 -15.49L159.08 -19.98L155.04 -19.98L155.04 -15.49L152.06 -15.49L152.06 -12.15L155.04 -12.15Z M165.44 -0.82C166.2 -0.11 167.36 0.24 168.92 0.24C170.01 0.24 170.98 0.1 171.83 -0.18C172.68 -0.47 173.34 -1.03 173.81 -1.88L174.02 -1.88L174.14 0L177.94 0L177.94 -9.45C177.94 -11.04 177.78 -12.27 177.48 -13.13C177.18 -14 176.54 -14.64 175.57 -15.08C174.6 -15.51 173.12 -15.73 171.13 -15.73C169.09 -15.73 167.13 -15.57 165.24 -15.25L165.24 -12.12C165.79 -12.18 166.53 -12.24 167.46 -12.3C168.39 -12.36 169.17 -12.39 169.8 -12.39C171.09 -12.39 172 -12.34 172.53 -12.24C173.06 -12.14 173.42 -11.9 173.61 -11.54C173.8 -11.18 173.9 -10.54 173.9 -9.63L173.9 -9.05C171.79 -9.13 170.21 -9.17 169.16 -9.17C167.88 -9.17 166.9 -9.01 166.2 -8.7C165.5 -8.39 165.01 -7.89 164.73 -7.2C164.44 -6.51 164.3 -5.56 164.3 -4.34C164.3 -2.7 164.68 -1.53 165.44 -0.82ZM172.46 -3.17C172.04 -3.02 171.5 -2.95 170.83 -2.95C170.04 -2.95 169.47 -2.99 169.11 -3.08C168.76 -3.17 168.52 -3.34 168.39 -3.58C168.25 -3.83 168.19 -4.22 168.19 -4.77C168.19 -5.33 168.24 -5.75 168.34 -6.01C168.44 -6.28 168.63 -6.45 168.92 -6.54C169.2 -6.64 169.65 -6.68 170.25 -6.68L173.9 -6.68L173.9 -6.2C173.9 -5.16 173.75 -4.4 173.44 -3.92C173.2 -3.57 172.87 -3.33 172.46 -3.17Z M182.22 0L186.29 0L186.29 -22.56L182.22 -22.56Z M198.13 -0.24C200.26 0.08 202.81 0.24 205.79 0.24C207.45 0.24 208.79 0.1 209.81 -0.2C210.83 -0.49 211.65 -1.12 212.25 -2.1C212.86 -3.07 213.17 -4.51 213.17 -6.44C213.17 -8.26 212.92 -9.61 212.44 -10.48C212.09 -11.11 211.62 -11.56 211.01 -11.83C210.4 -12.1 209.63 -12.29 208.7 -12.39L203.9 -12.97C203.26 -13.05 202.79 -13.14 202.52 -13.26C202.25 -13.37 202.07 -13.56 201.99 -13.82C201.91 -14.08 201.87 -14.52 201.87 -15.12C201.87 -15.65 201.91 -16.05 201.99 -16.31C202.07 -16.57 202.27 -16.78 202.6 -16.95C203.18 -17.25 204.39 -17.4 206.21 -17.4C208.2 -17.4 210.17 -17.27 212.13 -17.01L212.13 -20.53C210.25 -20.93 207.98 -21.14 205.33 -21.14C203.61 -21.14 202.2 -21 201.11 -20.71C200.02 -20.43 199.15 -19.83 198.5 -18.91C197.85 -17.98 197.53 -16.63 197.53 -14.85C197.53 -13.64 197.66 -12.62 197.94 -11.8C198.21 -10.98 198.71 -10.31 199.44 -9.79C200.17 -9.28 201.2 -8.93 202.54 -8.75L207 -8.23C207.57 -8.17 207.97 -8.07 208.22 -7.94C208.46 -7.81 208.62 -7.61 208.7 -7.33C208.78 -7.06 208.82 -6.63 208.82 -6.04C208.82 -5.52 208.79 -5.11 208.72 -4.83C208.65 -4.55 208.48 -4.3 208.22 -4.1C207.93 -3.88 207.5 -3.72 206.92 -3.63C206.35 -3.54 205.54 -3.49 204.51 -3.49C202.75 -3.49 200.62 -3.61 198.13 -3.86Z M230.08 -6.53L230.08 -7.71C230.08 -9.9 229.97 -11.52 229.73 -12.56C229.5 -13.6 228.92 -14.39 227.99 -14.93C227.05 -15.46 225.56 -15.73 223.49 -15.73C221.39 -15.73 219.83 -15.46 218.83 -14.91C217.83 -14.36 217.17 -13.55 216.86 -12.47C216.54 -11.38 216.38 -9.8 216.38 -7.71C216.38 -5.57 216.54 -3.96 216.84 -2.89C217.14 -1.81 217.82 -1.02 218.88 -0.52C219.93 -0.01 221.58 0.24 223.83 0.24C224.84 0.24 225.87 0.2 226.92 0.11C227.98 0.02 228.83 -0.1 229.47 -0.24L229.47 -3.34C227.53 -3.18 225.96 -3.1 224.77 -3.1C223.33 -3.1 222.33 -3.17 221.76 -3.33C221.19 -3.48 220.83 -3.78 220.67 -4.22C220.51 -4.67 220.42 -5.44 220.42 -6.53ZM221.46 -12.25C221.86 -12.43 222.52 -12.51 223.43 -12.51C224.22 -12.51 224.81 -12.44 225.19 -12.28C225.58 -12.13 225.85 -11.81 226.01 -11.33C226.17 -10.84 226.26 -10.07 226.26 -9.02L220.42 -9.02C220.44 -10.07 220.52 -10.83 220.65 -11.3C220.78 -11.76 221.05 -12.08 221.46 -12.25Z M233.82 -15.49L233.82 0L237.86 0L237.86 -6.07C237.86 -7.53 238 -8.67 238.3 -9.48C238.59 -10.29 239.1 -10.87 239.83 -11.22C240.56 -11.58 241.59 -11.75 242.93 -11.75L242.93 -15.73C241.59 -15.73 240.53 -15.52 239.74 -15.09C238.95 -14.67 238.36 -13.91 237.98 -12.82L237.73 -12.82L237.61 -15.49Z M249.18 0L254.56 0L259.51 -15.49L255.41 -15.49L252.07 -3.89L251.77 -3.89L248.36 -15.49L244.2 -15.49Z M262.15 -18.89L266.31 -18.89L266.31 -22.56L262.15 -22.56ZM262.18 0L266.25 0L266.25 -15.49L262.18 -15.49Z M278.95 0.12C279.78 0.04 280.49 -0.07 281.07 -0.21L281.07 -3.34C279.49 -3.18 278.34 -3.1 277.61 -3.1C276.54 -3.1 275.76 -3.21 275.29 -3.45C274.81 -3.68 274.49 -4.1 274.33 -4.72C274.17 -5.34 274.09 -6.35 274.09 -7.74C274.09 -9.12 274.16 -10.12 274.32 -10.74C274.47 -11.35 274.78 -11.78 275.24 -12.03C275.71 -12.27 276.48 -12.39 277.55 -12.39C278.76 -12.39 279.9 -12.3 280.95 -12.12L280.95 -15.25C280.38 -15.39 279.69 -15.5 278.87 -15.59C278.05 -15.69 277.26 -15.73 276.49 -15.73C274.6 -15.73 273.19 -15.43 272.25 -14.84C271.31 -14.24 270.7 -13.39 270.41 -12.3C270.13 -11.21 269.99 -9.7 269.99 -7.77C269.99 -5.75 270.12 -4.2 270.38 -3.11C270.65 -2.03 271.24 -1.2 272.17 -0.62C273.11 -0.05 274.56 0.24 276.55 0.24C277.32 0.24 278.12 0.2 278.95 0.12Z M297.68 -6.53L297.68 -7.71C297.68 -9.9 297.57 -11.52 297.34 -12.56C297.1 -13.6 296.52 -14.39 295.59 -14.93C294.66 -15.46 293.16 -15.73 291.09 -15.73C288.99 -15.73 287.44 -15.46 286.43 -14.91C285.43 -14.36 284.77 -13.55 284.46 -12.47C284.15 -11.38 283.99 -9.8 283.99 -7.71C283.99 -5.57 284.14 -3.96 284.44 -2.89C284.75 -1.81 285.43 -1.02 286.48 -0.52C287.53 -0.01 289.18 0.24 291.43 0.24C292.44 0.24 293.47 0.2 294.53 0.11C295.58 0.02 296.43 -0.1 297.08 -0.24L297.08 -3.34C295.13 -3.18 293.56 -3.1 292.37 -3.1C290.93 -3.1 289.93 -3.17 289.36 -3.33C288.8 -3.48 288.43 -3.78 288.27 -4.22C288.11 -4.67 288.03 -5.44 288.03 -6.53ZM289.06 -12.25C289.46 -12.43 290.12 -12.51 291.03 -12.51C291.82 -12.51 292.41 -12.44 292.8 -12.28C293.18 -12.13 293.45 -11.81 293.62 -11.33C293.78 -10.84 293.86 -10.07 293.86 -9.02L288.03 -9.02C288.05 -10.07 288.12 -10.83 288.26 -11.3C288.39 -11.76 288.66 -12.08 289.06 -12.25Z M304.05 0.12C305.17 0.2 306.19 0.24 307.1 0.24C308.48 0.24 309.58 0.13 310.41 -0.11C311.24 -0.34 311.89 -0.8 312.35 -1.5C312.82 -2.2 313.05 -3.25 313.05 -4.65C313.05 -5.84 312.94 -6.75 312.7 -7.36C312.47 -7.98 312.13 -8.42 311.67 -8.67C311.21 -8.92 310.59 -9.1 309.8 -9.2L305.92 -9.66C305.45 -9.72 305.12 -9.78 304.93 -9.86C304.74 -9.93 304.61 -10.04 304.55 -10.2C304.49 -10.37 304.46 -10.64 304.46 -11.02C304.46 -11.45 304.55 -11.76 304.73 -11.97C304.91 -12.17 305.21 -12.29 305.61 -12.35C306.02 -12.4 306.64 -12.42 307.49 -12.42C308.89 -12.42 310.46 -12.33 312.2 -12.15L312.2 -15.25C311.57 -15.39 310.76 -15.5 309.76 -15.59C308.75 -15.69 307.81 -15.73 306.92 -15.73C305.52 -15.73 304.38 -15.63 303.5 -15.41C302.62 -15.2 301.92 -14.75 301.41 -14.08C300.89 -13.4 300.63 -12.39 300.63 -11.05C300.63 -10.06 300.72 -9.26 300.89 -8.64C301.06 -8.02 301.39 -7.52 301.88 -7.14C302.36 -6.75 303.07 -6.51 304 -6.41L307.59 -5.95C308.11 -5.89 308.48 -5.83 308.69 -5.76C308.91 -5.68 309.05 -5.57 309.12 -5.41C309.19 -5.24 309.23 -4.96 309.23 -4.56C309.23 -4.13 309.16 -3.82 309.04 -3.63C308.92 -3.44 308.65 -3.3 308.24 -3.2C307.82 -3.11 307.16 -3.07 306.25 -3.07C305.52 -3.07 304.66 -3.09 303.68 -3.14C302.7 -3.19 301.85 -3.26 301.12 -3.34L301.12 -0.18C301.95 -0.06 302.92 0.04 304.05 0.12Z"></path></g></svg>