<svg width="980" height="325" viewBox="0 0 980 325" fill="none" xmlns="http://www.w3.org/2000/svg">
<path d="M450 87L488.128 239H526.001L555.492 151.207L582.962 239H620.835L658.708 87H618.536L595.919 178.825L567.706 87H534.152V108.474L511.767 178.588L490.172 87H450ZM724.283 183.073V239H765.453V183.073L824.178 87H781.476L744.88 150.021L708.261 87H665.558L724.283 183.073ZM833.583 87V239H874.521V148.361L944.16 239H979.502V87H938.308V177.877L868.669 87H833.583Z" fill="#4A6CF7"/>
<path d="M301.239 203.531C289.012 193.778 273.778 188.473 258.078 188.499H242.242V136.504H258.078C274.421 136.504 289.424 130.87 301.239 121.466C305.131 118.361 308.675 114.852 311.812 110.999C321.318 99.2987 327 84.44 327 68.2556C327 52.0712 321.314 37.2125 311.812 25.5126C308.674 21.6605 305.129 18.1515 301.239 15.0452C289.014 5.28768 273.78 -0.0227608 258.078 7.3331e-05C241.75 7.3331e-05 226.739 5.63768 214.932 15.0383C211.035 18.1373 207.49 21.6471 204.359 25.5057C194.507 37.6124 189.147 52.6998 189.174 68.2487V87.333H137.833V68.2521C137.833 52.0677 132.15 37.209 122.644 25.5091C119.513 21.6522 115.969 18.1426 112.075 15.0418C99.8495 5.28745 84.6173 -0.0215519 68.9181 7.3331e-05C52.5757 7.3331e-05 37.579 5.63768 25.7615 15.0383C21.868 18.1427 18.3222 21.6519 15.185 25.5057C5.68565 37.2055 0 52.0677 0 68.2487C0 84.4296 5.68914 99.2918 15.185 110.992C18.3186 114.849 21.8647 118.358 25.7615 121.459C37.9858 131.214 53.2188 136.522 68.9181 136.497H84.7619V188.492H68.9181C52.5757 188.492 37.579 194.123 25.7615 203.524C21.8645 206.628 18.3184 210.141 15.185 214.001C5.68565 225.698 0 240.55 0 256.738C0 272.925 5.68914 287.774 15.185 299.481C18.3177 303.337 21.864 306.846 25.7615 309.944C37.9852 319.702 53.2181 325.012 68.9181 324.99C85.2534 324.99 100.261 319.345 112.071 309.944C115.967 306.847 119.511 303.338 122.641 299.481C132.495 287.375 137.857 272.287 137.829 256.738V237.664H189.171V256.744C189.147 272.293 194.507 287.379 204.356 299.487C207.485 303.347 211.03 306.855 214.929 309.951C227.149 319.708 242.378 325.019 258.075 325C274.417 325 289.421 319.355 301.235 309.951C305.128 306.849 308.673 303.341 311.808 299.487C321.318 287.781 326.993 272.929 326.993 256.744C326.993 240.56 321.307 225.701 311.808 214.008C308.674 210.151 305.131 206.638 301.239 203.531ZM204.359 136.504V68.2452C204.359 38.9041 228.454 15.0349 258.078 15.0349C287.709 15.0349 311.812 38.9041 311.812 68.2452C311.812 97.5863 287.709 121.456 258.078 121.456H250.357V121.262H242.412V121.072H242.242V102.444H259.316C266.685 102.456 273.836 99.9668 279.577 95.3907C281.407 93.9334 283.073 92.284 284.544 90.4711C289.17 84.7882 291.689 77.7061 291.68 70.4063C291.68 62.8113 289.006 55.8307 284.544 50.3416C283.075 48.5263 281.41 46.8765 279.577 45.422C273.838 40.8425 266.686 38.3505 259.316 38.3621C254.475 38.3582 249.694 39.4329 245.329 41.5066C240.964 43.5803 237.126 46.5998 234.098 50.3416C229.469 56.0228 226.95 63.106 226.962 70.4063V188.489H204.359V136.504ZM242.242 87.3295V70.4098C242.242 61.0851 249.9 53.4935 259.316 53.4935C263.844 53.499 268.185 55.2831 271.387 58.4544C274.589 61.6258 276.389 65.9253 276.394 70.4098C276.39 74.8949 274.59 79.1953 271.388 82.3674C268.186 85.5395 263.845 87.3241 259.316 87.3295H242.242ZM137.833 102.447H189.171V121.076H137.833V102.447ZM137.833 136.504H189.171V188.496H137.833V136.504ZM76.6465 121.269V121.459H68.9181C39.2871 121.459 15.185 97.5898 15.185 68.2487C15.185 38.9075 39.2871 15.0383 68.9181 15.0383C98.5455 15.0383 122.641 38.9075 122.641 68.2487V188.492H100.038V70.4167C100.038 62.8216 97.3638 55.8411 92.9052 50.3519C89.8771 46.6102 86.0381 43.5909 81.6724 41.5172C77.3066 39.4436 72.5259 38.3688 67.684 38.3724C60.314 38.362 53.163 40.8538 47.4234 45.4324C45.5905 46.8869 43.9246 48.5367 42.4559 50.3519C37.8331 56.0363 35.3171 63.118 35.327 70.4167C35.327 78.0152 38.0008 84.9889 42.4559 90.4815C43.9274 92.2943 45.5929 93.9438 47.4234 95.401C53.1648 99.9756 60.3151 102.465 67.684 102.454H84.7619V121.273L76.6465 121.269ZM84.7619 70.4098V87.333H67.684C63.1545 87.3275 58.8122 85.5431 55.6093 82.3713C52.4065 79.1994 50.6047 74.899 50.5992 70.4133C50.5992 61.0886 58.2649 53.497 67.684 53.497C72.2119 53.5015 76.5531 55.2849 79.7548 58.4557C82.9565 61.6265 84.7573 65.9256 84.7619 70.4098ZM258.078 309.951C228.454 309.951 204.359 286.082 204.359 256.744V237.664H226.962V254.587C226.962 262.185 229.633 269.176 234.098 274.658C237.127 278.398 240.966 281.416 245.331 283.487C249.696 285.559 254.475 286.632 259.316 286.628C266.685 286.642 273.837 284.152 279.577 279.575C281.405 278.117 283.071 276.469 284.544 274.658C289.171 268.973 291.69 261.889 291.68 254.587C291.689 247.288 289.17 240.207 284.544 234.525C281.517 230.78 277.678 227.759 273.31 225.685C268.943 223.611 264.16 222.538 259.316 222.546H67.6875C62.8441 222.539 58.0612 223.612 53.6938 225.686C49.3265 227.76 45.4867 230.781 42.4594 234.525C37.8366 240.208 35.3205 247.289 35.3305 254.587C35.3305 262.185 38.0043 269.176 42.4594 274.658C43.927 276.461 45.5933 278.111 47.4269 279.575C53.1675 284.151 60.3183 286.64 67.6875 286.628C72.529 286.635 77.31 285.563 81.6761 283.491C86.0421 281.419 89.8812 278.4 92.9087 274.658C97.5334 268.972 100.051 261.888 100.041 254.587V237.664H122.644V256.744C122.644 286.082 98.549 309.951 68.9215 309.951C39.2906 309.951 15.1885 286.082 15.1885 256.744C15.1885 227.4 39.2906 203.531 68.9215 203.531H258.096C287.713 203.531 311.815 227.4 311.815 256.744C311.812 286.082 287.709 309.951 258.078 309.951ZM242.242 254.58V237.66H259.316C268.739 237.66 276.394 245.248 276.394 254.573C276.394 263.898 268.739 271.496 259.316 271.496C254.788 271.491 250.447 269.706 247.246 266.535C244.045 263.364 242.245 259.064 242.242 254.58ZM84.7619 237.66V254.58C84.7564 259.065 82.9557 263.364 79.7544 266.537C76.5532 269.709 72.2126 271.495 67.684 271.503C58.2649 271.503 50.5992 263.905 50.5992 254.58C50.5992 245.255 58.2649 237.664 67.684 237.664L84.7619 237.66Z" fill="#4A6CF7"/>
</svg>
